<svg width="34" height="27" viewBox="0 0 34 27" fill="none" xmlns="http://www.w3.org/2000/svg">
<path d="M33.6529 0.97599C33.3603 0.670901 32.9281 0.49585 32.4673 0.49585H8.36298C6.4637 0.49585 3.74056 1.56866 1.93861 3.96487C-0.218674 6.83321 -1.65647 12.3528 3.69716 22.3693L3.69071 22.5178C3.68016 22.7824 3.80154 23.04 4.02319 23.2235C4.22842 23.3946 4.50519 23.4896 4.79076 23.4896C4.81187 23.4896 4.83357 23.4886 4.85468 23.4876C6.30948 23.4161 10.5097 22.9699 12.8898 20.3422V26.0033C12.8898 26.2799 13.1519 26.5035 13.4762 26.5035C13.8005 26.5035 14.0626 26.2799 14.0626 26.0033V18.5121C14.0632 18.5111 14.0632 18.5106 14.0638 18.5096C14.0761 18.5096 14.0896 18.5096 14.1025 18.5096C14.2543 18.5096 14.439 18.5071 14.649 18.5011V26.0038C14.649 26.2804 14.9111 26.504 15.2353 26.504C15.5596 26.504 15.8217 26.2804 15.8217 26.0038V18.4321C19.3013 18.1345 25.7667 16.7321 27.0192 10.5098C30.8142 8.36316 33.1545 5.52132 33.9696 2.05631C34.0599 1.67319 33.9443 1.27958 33.6529 0.97599ZM19.3441 16.7876C17.1598 17.4378 15.0483 17.5133 14.1429 17.5113C14.4009 16.6456 15.3145 16.0004 16.4087 16.0004C16.733 16.0004 16.9951 15.7768 16.9951 15.5002C16.9951 15.2237 16.733 15.0001 16.4087 15.0001C14.9269 15.0001 13.6586 15.7868 13.1408 16.8952C12.623 16.6496 11.9264 16.5005 11.1313 16.5005C10.807 16.5005 10.5449 16.7241 10.5449 17.0007C10.5449 17.2773 10.807 17.5008 11.1313 17.5008C11.5154 17.5008 11.8355 17.5453 12.0982 17.6074C10.1608 17.9145 8.78576 18.8562 8.78576 20.0016C8.78576 20.2781 9.04787 20.5017 9.37214 20.5017C9.6964 20.5017 9.95852 20.2781 9.95852 20.0016C9.95852 19.3729 11.0932 18.6822 12.7931 18.5321C11.1195 21.8531 6.4508 22.3978 4.86523 22.4848L4.90745 21.4045C4.92094 21.339 4.93677 21.2719 4.95377 21.2039C4.96316 21.1659 4.9743 21.1264 4.98544 21.0874C4.99365 21.0584 5.00127 21.0294 5.00948 20.9994C5.02473 20.9473 5.04173 20.8943 5.05874 20.8403C5.06401 20.8248 5.0687 20.8088 5.07398 20.7928C5.09568 20.7283 5.11855 20.6628 5.14376 20.5962C5.14493 20.5932 5.14611 20.5902 5.14728 20.5872C5.91954 18.5471 8.34715 15.6123 15.7191 13.9923L15.7185 13.9908C15.7455 13.9848 15.7742 13.9793 15.8012 13.9733C16.1477 13.8983 16.506 13.8268 16.8719 13.7577L17.1721 13.7022C17.5791 13.6287 17.9954 13.5572 18.4288 13.4917C18.4293 13.4917 18.4299 13.4917 18.4305 13.4917C18.6252 13.4637 21.7993 12.9905 25.2788 11.396C25.3199 11.3775 25.3603 11.3585 25.4014 11.34C25.4817 11.3025 25.5609 11.268 25.6418 11.2295C24.7957 13.9273 22.6818 15.7938 19.3441 16.7876ZM32.8203 1.85975C32.0544 5.1157 29.8174 7.78449 26.1695 9.79258C25.7444 10.0271 25.297 10.2507 24.8344 10.4653C24.8097 10.4768 24.7851 10.4893 24.7605 10.5008C24.2966 10.7138 23.8146 10.9159 23.3156 11.108C22.7832 11.312 22.2719 11.4866 21.7869 11.6396C21.4357 11.7511 21.0827 11.8562 20.7279 11.9532C20.6347 11.9787 20.5473 12.0012 20.4576 12.0247C20.087 12.1223 19.7153 12.2133 19.3429 12.2948C19.2403 12.3173 19.1494 12.3358 19.0597 12.3543L18.7671 12.4123C18.4399 12.4749 18.2429 12.5049 18.2347 12.5059L18.2282 12.5069C17.7638 12.5774 17.3193 12.6539 16.8836 12.7329L16.6221 12.7815C16.6122 12.7835 16.6034 12.7855 16.5934 12.7875C16.2427 12.854 15.9003 12.9225 15.5684 12.9945C15.5502 12.9985 15.5303 13.002 15.5121 13.006C15.5115 13.006 15.4265 13.024 15.4265 13.024C15.4189 13.0255 15.4118 13.0275 15.4042 13.0295C14.9322 13.1336 14.4801 13.2436 14.045 13.3581C13.9993 13.3701 13.9547 13.3821 13.9095 13.3941C7.09464 15.2157 4.75265 18.2295 3.98449 20.4092C3.98273 20.4137 3.98097 20.4182 3.97921 20.4222C-0.228642 11.7902 1.035 7.01876 2.92549 4.50502C4.47998 2.43792 6.83429 1.49614 8.36298 1.49614H18.7243C18.4229 4.84763 15.1362 7.4979 11.1313 7.4979C10.807 7.4979 10.5449 7.72147 10.5449 7.99805C10.5449 8.27463 10.807 8.49819 11.1313 8.49819C15.7836 8.49819 19.5933 5.39979 19.897 1.49614H32.4667C32.5746 1.49614 32.676 1.53765 32.7458 1.61018C32.7862 1.65169 32.8484 1.73921 32.8203 1.85975Z" fill="url(#paint0_linear_37_5086)"/>
<defs>
<linearGradient id="paint0_linear_37_5086" x1="16.9998" y1="0.49585" x2="16.9998" y2="26.504" gradientUnits="userSpaceOnUse">
<stop stop-color="#0379B9"/>
<stop offset="1" stop-color="#019888"/>
</linearGradient>
</defs>
</svg>
