<svg width="38" height="38" viewBox="0 0 38 38" fill="none" xmlns="http://www.w3.org/2000/svg">
<g clip-path="url(#clip0_37_5075)">
<path d="M28.9846 7.43045C28.5242 7.68415 28.4628 8.45768 28.8473 9.15781C29.232 9.85867 29.9188 10.2217 30.3793 9.96804C30.8403 9.71572 30.9023 8.94212 30.5165 8.24068C30.1325 7.53989 29.4463 7.17683 28.9846 7.43045Z" fill="url(#paint0_linear_37_5075)"/>
<path d="M12.5148 23.8203C12.1746 23.072 11.9645 22.2429 11.9127 21.2284C11.902 21.0228 11.8982 20.8077 11.9014 20.5858C11.9045 20.3637 11.7268 20.1815 11.5048 20.1777C11.2834 20.1759 11.1006 20.353 11.0975 20.5756C11.095 20.814 11.0981 21.0449 11.1101 21.27C11.1657 22.3725 11.3998 23.3118 11.7837 24.1536C12.1682 24.9942 12.6988 25.7335 13.3351 26.4514C13.7065 26.8701 13.8684 27.3597 13.8943 27.8499C13.9208 28.3502 13.7931 28.8467 13.6053 29.1977C13.5015 29.3931 13.5755 29.636 13.7717 29.7404C13.9671 29.8447 14.2112 29.7708 14.315 29.5747C14.5737 29.0883 14.7293 28.4665 14.697 27.8088C14.6654 27.1687 14.4427 26.4869 13.9368 25.9176C13.3339 25.2384 12.8563 24.5667 12.5148 23.8203Z" fill="url(#paint1_linear_37_5075)"/>
<path d="M18.639 26.6058C19.2006 26.5767 19.6427 26.3788 19.9413 26.1884C20.2423 25.9993 20.4042 25.8178 20.4226 25.7969C20.5693 25.6299 20.5536 25.3763 20.3859 25.2296C20.2208 25.0841 19.9679 25.0993 19.8217 25.2638H19.8204L19.816 25.2694C19.7907 25.2966 19.6617 25.4256 19.4524 25.5465C19.2411 25.6698 18.9545 25.7842 18.5985 25.8026C18.3613 25.8139 18.0926 25.7849 17.7832 25.6792C17.243 25.4952 16.7712 25.1594 16.3658 24.7476C15.7586 24.129 15.3096 23.3415 15.0199 22.7103C14.8744 22.3947 14.7688 22.1177 14.6999 21.9229C14.6651 21.8255 14.6398 21.7483 14.6239 21.6958C14.6157 21.6699 14.6094 21.6503 14.6063 21.6376L14.6018 21.6237L14.6006 21.62C14.5405 21.4068 14.3184 21.2828 14.1046 21.3436C13.8909 21.4023 13.7675 21.625 13.827 21.8388V21.8382C13.8333 21.8572 14.0863 22.7553 14.6625 23.7774C14.9516 24.2885 15.3222 24.8311 15.7934 25.3112C16.262 25.7888 16.8351 26.205 17.5233 26.4396C17.9255 26.578 18.3025 26.6223 18.639 26.6058Z" fill="url(#paint2_linear_37_5075)"/>
<path d="M17.7574 30.4622C17.5689 30.3015 17.4 30.1719 17.2336 30.0757C17.1489 30.0277 17.0654 29.9884 16.9756 29.9581C16.887 29.929 16.7884 29.9101 16.6809 29.9151C16.6056 29.9189 16.5266 29.936 16.4525 29.9696C16.3203 30.0264 16.2185 30.1302 16.1553 30.2352C16.0598 30.3959 16.025 30.559 16.0029 30.7424C15.9827 30.9265 15.9814 31.1339 15.994 31.375C16.0048 31.5963 16.1939 31.7665 16.4159 31.7558C16.6372 31.7437 16.808 31.5558 16.7967 31.3339C16.7884 31.1713 16.7878 31.0334 16.7942 30.9252C16.7979 30.8575 16.8049 30.8057 16.8125 30.7614C16.8358 30.7746 16.8625 30.7893 16.8915 30.8082C17.0502 30.9107 17.2798 31.1017 17.5575 31.3686C17.837 31.6348 18.1691 31.9783 18.5543 32.3895C18.706 32.5501 18.9609 32.5596 19.1222 32.4071C19.2835 32.2553 19.293 32.0011 19.1405 31.8391C18.5853 31.2464 18.1325 30.7872 17.7574 30.4622Z" fill="url(#paint3_linear_37_5075)"/>
<path d="M21.2765 27.3849C21.136 27.5671 20.9856 27.6625 20.8078 27.729C20.6307 27.7941 20.4245 27.8207 20.2107 27.8321C20.0615 27.839 19.909 27.839 19.7579 27.8473C19.6649 27.8517 19.5725 27.8592 19.4764 27.8763C19.4056 27.8902 19.3303 27.9099 19.2531 27.9434C19.1949 27.9681 19.1348 28.0022 19.0785 28.0491C18.9926 28.1174 18.9186 28.2173 18.8787 28.3267C18.8377 28.4361 18.8262 28.548 18.8319 28.6544C18.8414 28.8258 18.892 28.9794 18.9577 29.1243C19.078 29.3773 19.2531 29.6088 19.4524 29.834C19.7497 30.1705 20.1013 30.4867 20.4024 30.7397C20.5529 30.8675 20.6889 30.9775 20.7977 31.0654C20.8527 31.109 20.9001 31.147 20.9368 31.1786C20.9742 31.2083 21.002 31.2323 21.0133 31.2425C21.1778 31.3898 21.4314 31.3772 21.5807 31.2128C21.7294 31.0471 21.7161 30.7941 21.5516 30.6448C21.5048 30.6031 21.4499 30.5588 21.3752 30.4993C21.2481 30.3956 21.0728 30.2552 20.8799 30.0908C20.5909 29.846 20.2638 29.5475 20.0178 29.2622C19.8958 29.1193 19.7933 28.9814 19.7269 28.8637C19.6807 28.7815 19.6554 28.7126 19.6428 28.6645C19.6826 28.6576 19.7345 28.6531 19.7989 28.65C19.9204 28.6437 20.0772 28.643 20.2519 28.6336C20.5004 28.6209 20.7889 28.5918 21.0842 28.4836C21.3796 28.3774 21.68 28.1826 21.9153 27.872C22.0493 27.6955 22.0159 27.4432 21.8394 27.3097C21.663 27.1749 21.4105 27.2085 21.2765 27.3849Z" fill="url(#paint4_linear_37_5075)"/>
<path d="M19.5113 1.40031L19.5124 1.40245L19.5103 1.39722L19.5113 1.40031Z" fill="url(#paint5_linear_37_5075)"/>
<path d="M32.916 7.70508C32.6017 6.91512 32.1077 6.19153 31.4815 5.62675C31.1678 5.34526 30.8174 5.10235 30.4284 4.92531C30.0426 4.74819 29.6112 4.63564 29.1552 4.63441H29.1413C28.6594 4.63441 28.1648 4.76781 27.7195 5.04047C27.0693 5.43769 26.4457 5.85895 25.8467 6.30039C25.9182 6.15238 26.0042 5.9867 26.1054 5.80582C26.285 5.47815 26.5014 5.09736 26.6886 4.6528L26.6936 4.64389L26.6975 4.63448C26.7803 4.43457 26.8214 4.22336 26.8228 4.00702C26.8221 3.6952 26.7361 3.41943 26.6216 3.18984C26.4236 2.79768 26.1397 2.49919 25.838 2.24368C25.3813 1.86166 24.8412 1.55303 24.2897 1.32214C24.0133 1.20705 23.7325 1.11151 23.4523 1.04318L23.444 1.04065L23.4516 1.04195C23.4478 1.0413 23.4446 1.0413 23.4409 1.04007C23.1651 0.972972 22.8856 0.929399 22.594 0.928747C22.3714 0.929399 22.124 0.955311 21.8654 1.05085C21.7351 1.10014 21.5985 1.16977 21.4688 1.26843C21.3372 1.36839 21.2158 1.49549 21.1197 1.64792C21.0488 1.76177 20.9932 1.86926 20.9381 1.97812C20.8427 2.16848 20.7433 2.37788 20.6352 2.58662L20.6314 2.59422L20.6346 2.58727C20.4796 2.89091 20.2886 3.20019 20.1374 3.3684C19.8895 3.64164 19.6422 1.63033 19.5119 1.40074C19.3721 1.15153 19.181 0.943441 18.9616 0.761331C18.5878 0.452629 18.1629 0.285647 17.7472 0.182577C16.2811 -0.176069 14.1458 -0.100141 13.218 1.28942C13.2177 1.28942 13.2177 1.29007 13.2177 1.29007L13.2167 1.29137L13.2173 1.29072C13.0295 1.58734 12.9169 1.89155 12.841 2.17492C12.7663 2.45764 12.7258 2.729 12.7253 2.99405C12.7253 3.18 12.7385 3.35205 12.748 3.53922C12.7708 3.94658 12.7961 4.34569 12.712 4.73842C12.278 4.15721 11.9978 3.47596 11.5962 2.87383C11.4849 2.70431 11.3477 2.57852 11.2104 2.48232C11.0092 2.34386 10.7974 2.26229 10.5919 2.21104C10.3857 2.15922 10.1726 2.137 9.95368 2.13634C9.57542 2.137 9.16936 2.20597 8.75194 2.35146C8.33452 2.49759 7.90248 2.72205 7.48318 3.03647C6.99932 3.40011 6.63626 3.77649 6.38329 4.17936C6.1309 4.58295 5.99555 5.01868 5.99555 5.45318C5.9962 5.78468 6.07777 6.09071 6.21001 6.34882C6.82915 7.55178 7.54963 8.88257 7.54775 10.2753V10.281C7.5471 10.699 7.46806 11.0336 7.30991 11.305L7.15306 11.5732L7.22587 11.6156C6.24417 13.1968 5.42012 15.248 4.99756 17.9949C4.90716 18.5768 4.86475 19.1732 4.86475 19.7779C4.8654 21.7152 5.30243 23.7411 6.07726 25.7024C7.2423 28.6417 9.16827 31.4455 11.6305 33.5497C12.8633 34.6003 14.2314 35.4763 15.7114 36.0911C17.1744 36.6996 18.7473 37.0499 20.3894 37.0594H20.4374C21.3539 37.0594 22.2893 36.9506 23.2343 36.7216L23.2444 36.7191C23.2444 36.7191 23.2583 36.7153 23.2614 36.7146C24.4574 36.387 25.5662 35.6988 26.5643 34.7773C28.0601 33.3902 29.3251 31.4624 30.234 29.2335C31.1416 27.0027 31.6888 24.4658 31.6893 21.8524C31.6893 19.1301 31.0816 16.3244 29.6452 13.7571C29.7451 13.6736 29.8438 13.5895 29.9456 13.5086C30.6862 12.9153 31.4629 12.3803 32.1574 11.8091C32.54 11.4928 32.8247 11.0988 33.0031 10.6757C33.1814 10.2525 33.2535 9.80976 33.2535 9.37968C33.2525 8.79868 33.1236 8.23382 32.916 7.70508ZM7.87512 5.11118C7.98196 4.94102 8.18441 4.70889 8.53856 4.44391C8.81687 4.23458 9.08757 4.09735 9.33106 4.01252C9.57527 3.92776 9.79212 3.89548 9.95346 3.89613C10.0565 3.89548 10.1343 3.90873 10.1786 3.92146C10.3235 4.14852 10.4834 4.43189 10.6504 4.73799C10.9312 5.24907 11.2266 5.80879 11.5619 6.28259C11.7067 6.48562 11.8591 6.67279 12.04 6.84043C11.6384 7.26486 11.1242 7.71449 10.553 8.23505C10.1394 8.61143 9.6973 9.03008 9.25006 9.50446C9.14823 8.77335 8.92305 8.07256 8.6771 7.45146C8.51135 7.03274 8.33431 6.65064 8.17362 6.32435C8.01359 5.99929 7.87006 5.72852 7.77582 5.5451C7.76445 5.52238 7.7549 5.49516 7.7549 5.44703C7.75555 5.38695 7.76945 5.28323 7.87512 5.11118ZM31.3809 9.99209C31.3056 10.1667 31.2007 10.3147 31.0369 10.4513C30.226 11.1223 29.1085 11.8536 28.0427 12.8123C27.5095 13.2924 26.989 13.8325 26.5285 14.4587C26.068 15.0842 25.6689 15.7977 25.3843 16.6136C25.2522 16.9924 25.4507 17.4048 25.829 17.537C26.2059 17.6698 26.6196 17.4706 26.7524 17.0923C26.9858 16.4251 27.3102 15.8432 27.6961 15.3169C27.8466 15.112 28.0073 14.9159 28.1749 14.7274C29.4025 16.9727 29.9288 19.4307 29.9294 21.8568C29.9319 25.0041 29.0382 28.0894 27.6797 30.4853C27.001 31.6832 26.2085 32.7085 25.3686 33.4846C24.5324 34.2594 23.6539 34.7811 22.807 35.0139C22.0032 35.2081 21.2125 35.2986 20.4371 35.2986C18.5643 35.2986 16.7736 34.7698 15.1235 33.8539C12.6517 32.4814 10.5101 30.2311 9.00223 27.6796C6.34131 23.1876 5.84297 17.7178 8.4153 13.0627C9.49934 11.1045 10.8345 9.93317 12.0167 8.86426C12.6074 8.32915 13.1622 7.8219 13.6124 7.23056C13.8375 6.93387 14.0349 6.61634 14.1854 6.26601C14.3373 5.91562 14.441 5.53483 14.4801 5.12689C14.5168 4.7689 14.5282 4.44883 14.5282 4.16546C14.5282 3.00042 14.2417 2.10232 15.6578 1.86767C15.9152 1.82402 16.1992 1.79999 16.4763 1.79999C16.7849 1.79934 17.0847 1.83097 17.3269 1.89039C17.5704 1.94924 17.7501 2.03964 17.8348 2.11304C17.9038 2.16993 17.9417 2.21169 17.9606 2.23703C17.9873 2.27495 17.9796 2.26612 17.986 2.28574C17.991 2.30405 17.9974 2.36355 17.9967 2.47986C17.9967 2.51468 17.9967 2.5526 17.9967 2.59625C17.9967 2.73536 18.0075 2.89858 18.0327 3.08576C18.1763 4.13824 18.7835 5.28178 20.0054 5.27679C20.2433 5.27802 20.4709 5.22236 20.667 5.13507C21.0136 4.98075 21.271 4.74544 21.4848 4.49877C21.8042 4.12688 22.0351 3.70881 22.2235 3.34575C22.3159 3.16422 22.3974 2.99601 22.4639 2.86066C22.4962 2.79486 22.5259 2.73667 22.5511 2.68926L22.5954 2.68868C22.751 2.68615 23.0299 2.73609 23.3272 2.83793C23.7763 2.98848 24.2779 3.25158 24.6225 3.52229C24.7946 3.65633 24.9267 3.79241 24.9957 3.89164C25.0286 3.93782 25.047 3.97387 25.0551 3.99536C24.8748 4.41908 24.6168 4.84482 24.3739 5.30907C23.9109 6.1945 23.6952 7.15333 24.1513 8.08182C22.9249 9.18686 21.8446 10.3898 20.9319 11.6674C19.1844 14.1165 18.0471 16.8406 17.667 19.6608C17.6145 20.0574 17.8922 20.4223 18.2894 20.4749C18.6853 20.5287 19.0502 20.251 19.104 19.8544C19.4487 17.2915 20.4861 14.7869 22.1122 12.5099C23.737 10.2323 25.952 8.18366 28.6369 6.54243C28.8159 6.4343 28.974 6.39507 29.1492 6.39376C29.3687 6.39376 29.6255 6.46774 29.8988 6.63219C30.3073 6.8751 30.7273 7.31589 31.0227 7.82704C31.3232 8.33682 31.4965 8.90978 31.4933 9.3791C31.4935 9.61202 31.4543 9.81693 31.3809 9.99209Z" fill="url(#paint6_linear_37_5075)"/>
<path d="M31.4918 5.6344L31.4829 5.62671C31.4829 5.62671 31.4835 5.62786 31.4841 5.62786L31.4918 5.6344Z" fill="url(#paint7_linear_37_5075)"/>
</g>
<defs>
<linearGradient id="paint0_linear_37_5075" x1="29.6823" y1="7.34961" x2="29.6823" y2="10.0489" gradientUnits="userSpaceOnUse">
<stop stop-color="#047ABA"/>
<stop offset="1" stop-color="#019888"/>
</linearGradient>
<linearGradient id="paint1_linear_37_5075" x1="12.8989" y1="20.1777" x2="12.8989" y2="29.7877" gradientUnits="userSpaceOnUse">
<stop stop-color="#047ABA"/>
<stop offset="1" stop-color="#019888"/>
</linearGradient>
<linearGradient id="paint2_linear_37_5075" x1="17.1675" y1="21.3281" x2="17.1675" y2="26.6091" gradientUnits="userSpaceOnUse">
<stop stop-color="#047ABA"/>
<stop offset="1" stop-color="#019888"/>
</linearGradient>
<linearGradient id="paint3_linear_37_5075" x1="17.6175" y1="29.9143" x2="17.6175" y2="32.5159" gradientUnits="userSpaceOnUse">
<stop stop-color="#047ABA"/>
<stop offset="1" stop-color="#019888"/>
</linearGradient>
<linearGradient id="paint4_linear_37_5075" x1="20.414" y1="27.2271" x2="20.414" y2="31.3451" gradientUnits="userSpaceOnUse">
<stop stop-color="#047ABA"/>
<stop offset="1" stop-color="#019888"/>
</linearGradient>
<linearGradient id="paint5_linear_37_5075" x1="19.5113" y1="1.39722" x2="19.5113" y2="1.40245" gradientUnits="userSpaceOnUse">
<stop stop-color="#047ABA"/>
<stop offset="1" stop-color="#019888"/>
</linearGradient>
<linearGradient id="paint6_linear_37_5075" x1="19.0591" y1="0.000488281" x2="19.0591" y2="37.0594" gradientUnits="userSpaceOnUse">
<stop stop-color="#047ABA"/>
<stop offset="1" stop-color="#019888"/>
</linearGradient>
<linearGradient id="paint7_linear_37_5075" x1="31.4873" y1="5.62671" x2="31.4873" y2="5.6344" gradientUnits="userSpaceOnUse">
<stop stop-color="#047ABA"/>
<stop offset="1" stop-color="#019888"/>
</linearGradient>
<clipPath id="clip0_37_5075">
<rect width="37.0588" height="37.0588" fill="white" transform="translate(0.529297)"/>
</clipPath>
</defs>
</svg>
