<?xml version="1.0" encoding="UTF-8"?>
<svg id="Ebene_1" data-name="Ebene 1" xmlns="http://www.w3.org/2000/svg" viewBox="0 0 61.03 65.43">
  <defs>
    <style>
      .cls-1 {
        fill: #098;
      }

      .cls-2 {
        fill: #059988;
      }

      .cls-3 {
        fill: #0177bc;
      }
    </style>
  </defs>
  <path class="cls-3" d="M16.76,21.91h16.17c2.25,0,4.38.21,6.39.62,2.01.41,3.76,1.12,5.26,2.12s2.68,2.36,3.57,4.06c.88,1.7,1.32,3.84,1.32,6.42s-.41,4.67-1.23,6.39c-.82,1.72-1.95,3.09-3.38,4.12-1.44,1.02-3.14,1.75-5.1,2.18-1.97.43-4.1.65-6.39.65h-7.01v16.97h-9.59V21.91ZM26.35,40.35h6.39c.86,0,1.69-.08,2.49-.25.8-.17,1.52-.44,2.15-.83s1.15-.92,1.54-1.6.59-1.53.59-2.55c0-1.11-.26-2-.77-2.67s-1.17-1.2-1.97-1.57c-.8-.37-1.69-.6-2.67-.71s-1.93-.16-2.83-.16h-4.92v10.33Z"/>
  <path class="cls-1" d="M51.59,65.43l-9.52-15.81c-.73.29-1.49.55-2.32.73-1.97.43-4.1.65-6.39.65h-.81l7.55,14.43h11.5Z"/>
  <g>
    <circle class="cls-1" cx="30.52" cy="9.5" r="9.5"/>
    <path class="cls-2" d="M18.89,18.94S-4.5,10.21.77,3.48c5.28-6.73,18.11,15.46,18.11,15.46Z"/>
    <path class="cls-2" d="M42.14,18.94s23.39-8.73,18.11-15.46c-5.28-6.73-18.11,15.46-18.11,15.46Z"/>
  </g>
</svg>