<?xml version="1.0" encoding="UTF-8"?>
<svg id="Ebene_1" data-name="Ebene 1" xmlns="http://www.w3.org/2000/svg" xmlns:xlink="http://www.w3.org/1999/xlink" viewBox="0 0 2772 1104">
  <defs>
    <style>
      .cls-1 {
        fill: rgba(0, 119, 187, .2);
      }

      .cls-2 {
        fill: #e0e0e0;
      }

      .cls-3, .cls-4, .cls-5, .cls-6, .cls-7, .cls-8, .cls-9, .cls-10, .cls-11, .cls-12, .cls-13, .cls-14, .cls-15 {
        isolation: isolate;
      }

      .cls-3, .cls-7, .cls-11 {
        opacity: .3;
      }

      .cls-4, .cls-16, .cls-10 {
        opacity: .1;
      }

      .cls-5, .cls-12 {
        opacity: .2;
      }

      .cls-17 {
        fill: #098;
      }

      .cls-18 {
        fill: #ebebeb;
      }

      .cls-19 {
        fill: #ed893e;
      }

      .cls-6 {
        fill: #2c5666;
      }

      .cls-6, .cls-9 {
        opacity: .8;
      }

      .cls-20 {
        fill: rgba(0, 153, 136, .2);
      }

      .cls-21 {
        fill: #65a33e;
      }

      .cls-7 {
        fill: #3362cc;
      }

      .cls-22 {
        fill: #263238;
      }

      .cls-23 {
        fill: none;
        stroke: #fff;
        stroke-dasharray: 20 20;
        stroke-width: 10px;
      }

      .cls-24 {
        fill: #296aad;
      }

      .cls-25 {
        letter-spacing: 0em;
      }

      .cls-26 {
        letter-spacing: 0em;
      }

      .cls-27, .cls-8, .cls-9, .cls-10, .cls-11, .cls-12, .cls-13, .cls-14, .cls-15 {
        fill: #fff;
      }

      .cls-28, .cls-29, .cls-30, .cls-31, .cls-32 {
        font-weight: 800;
      }

      .cls-28, .cls-30 {
        fill: #098;
      }

      .cls-28, .cls-32 {
        font-family: Avenir-Heavy, Avenir;
        font-size: 40px;
      }

      .cls-33 {
        fill: #f0f0f0;
      }

      .cls-29, .cls-30, .cls-31 {
        font-family: Avenir-Black, Avenir;
        font-size: 48px;
      }

      .cls-29, .cls-32 {
        fill: #07b;
      }

      .cls-34 {
        fill: #fafafa;
      }

      .cls-35, .cls-13 {
        opacity: .6;
      }

      .cls-36, .cls-14 {
        opacity: .5;
      }

      .cls-37 {
        fill: #f5f5f5;
      }

      .cls-38 {
        fill: url(#Unbenannter_Verlauf_15);
      }

      .cls-39 {
        letter-spacing: -.02em;
      }

      .cls-40 {
        fill: #ffcfa4;
      }

      .cls-8 {
        opacity: .7;
      }

      .cls-15 {
        opacity: .4;
      }
    </style>
    <linearGradient id="Unbenannter_Verlauf_15" data-name="Unbenannter Verlauf 15" x1="-2.94" y1="583.67" x2="2772.65" y2="583.67" gradientUnits="userSpaceOnUse">
      <stop offset="0" stop-color="#07b"/>
      <stop offset="1" stop-color="#098"/>
    </linearGradient>
  </defs>
  <path class="cls-38" d="M1614.51,803.13c-87.88,0-134.9-66.07-180.37-129.96-35.76-50.25-72.74-102.21-131.53-131.21-67.77-33.42-156.92-31.56-272.55,5.71-102.6,33.07-220.84,58.54-351.43,75.71-104.08,13.68-216.26,22.16-333.44,25.2-199.41,5.17-346.67-7.41-348.14-7.54v-59.77c1.44.12,151.18,12.45,347.38,7.31,114.97-3.01,224.94-11.33,326.84-24.75,126.83-16.69,241.35-41.34,340.39-73.27,131.21-42.29,235.06-43.08,317.5-2.42,72.37,35.7,115.67,96.54,153.88,150.23,46.22,64.94,77.29,104.75,131.48,104.75,24.27,0,43.33-7.47,61.79-24.22,19.18-17.4,36.39-43.22,56.32-73.11,38.14-57.2,85.61-128.4,176.76-184.91,104.93-65.05,245.21-96.68,428.83-96.68,156.05,0,173.01.29,190.97.6,20.36.35,18.76.71,243.46.71v60c-225.22,0-223.88-.37-244.49-.72-17.7-.3-34.41-.59-189.95-.59-172.13,0-302.06,28.68-397.22,87.67-80.08,49.64-121.72,112.1-158.46,167.2-21.22,31.82-41.26,61.88-65.92,84.26-29.5,26.77-62.9,39.78-102.1,39.78Z"/>
  <rect class="cls-1" x="995" y="190.84" width="394" height="803.37"/>
  <rect class="cls-20" x="1825" y="193.7" width="394" height="800.49"/>
  <path class="cls-40" d="M177.65,304.09l9.78,7.34-12,2.75s-5.17-5.79-3.45-10.52l5.67.43Z"/>
  <path class="cls-40" d="M190.02,321.25l-10.17,1.76-4.47-8.83,12-2.75,2.64,9.82Z"/>
  <path class="cls-18" d="M1866,395.33h-487v.24h487v-.24Z"/>
  <path class="cls-18" d="M1817.2,411h-32.26v.24h32.26v-.24Z"/>
  <path class="cls-18" d="M1701.61,413.65h-8.47v.24h8.47v-.24Z"/>
  <path class="cls-18" d="M1783.97,401.96h-18.69v.24h18.69v-.24Z"/>
  <path class="cls-18" d="M1472.16,403.6h-42.06v.24h42.06v-.24Z"/>
  <path class="cls-18" d="M1487.01,403.6h-6.17v.24h6.17v-.24Z"/>
  <path class="cls-18" d="M1598.3,407.71h-91.25v.24h91.25v-.24Z"/>
  <path class="cls-2" d="M1526.48,253.88h-66.02v12.62h66.02v-12.62Z"/>
  <path class="cls-34" d="M1516.03,256.48h-3.8v7.73h3.8v-7.73Z"/>
  <path class="cls-18" d="M1522.52,256.48h-3.8v7.73h3.8v-7.73Z"/>
  <path class="cls-33" d="M1469.28,264.16c2.21,0,3.99-1.79,3.99-3.99s-1.78-3.99-3.99-3.99-3.99,1.79-3.99,3.99,1.78,3.99,3.99,3.99Z"/>
  <path class="cls-2" d="M1468.33,260.16c0,.1-.03.2-.09.28-.06.08-.13.15-.23.19-.09.04-.19.05-.29.03-.1-.02-.19-.07-.26-.14-.07-.07-.12-.16-.14-.26-.02-.1,0-.2.03-.29.04-.09.1-.17.19-.23.08-.05.18-.09.28-.09.13,0,.26.05.36.15.09.1.15.22.15.36Z"/>
  <path class="cls-2" d="M1471.25,260.16c0,.14-.06.26-.15.36-.1.1-.22.15-.36.15-.07.02-.15.03-.23.01-.08-.02-.15-.05-.21-.09-.07-.05-.12-.11-.15-.18-.04-.07-.05-.15-.05-.23s.01-.16.05-.23c.03-.07.08-.13.15-.18.06-.05.13-.08.21-.09s.16-.01.23.01c.13,0,.25.05.35.13.09.09.15.21.16.33Z"/>
  <path class="cls-33" d="M1480.72,264.16c2.21,0,4-1.79,4-3.99s-1.79-3.99-4-3.99-3.99,1.79-3.99,3.99,1.79,3.99,3.99,3.99Z"/>
  <path class="cls-2" d="M1479.77,260.16c0,.1-.03.2-.09.28-.05.08-.13.15-.22.19-.1.04-.2.05-.3.03-.1-.02-.19-.07-.26-.14-.07-.07-.12-.16-.13-.26-.02-.1-.01-.2.03-.29.04-.09.1-.17.19-.23.08-.05.18-.08.28-.08.07,0,.13.01.2.04.06.03.11.06.16.11.04.05.08.1.11.16.02.06.03.13.03.19Z"/>
  <path class="cls-2" d="M1482.69,260.16c0,.1-.03.2-.08.28-.06.08-.14.15-.23.19-.09.04-.19.05-.29.03-.1-.02-.19-.07-.26-.14-.07-.07-.12-.16-.14-.26-.02-.1,0-.2.03-.29.04-.09.1-.17.18-.23.09-.05.19-.09.29-.09.13,0,.26.05.35.15.1.1.15.22.15.36Z"/>
  <path class="cls-33" d="M1492.75,264.16c2.21,0,4-1.79,4-3.99s-1.79-3.99-4-3.99-3.99,1.79-3.99,3.99,1.79,3.99,3.99,3.99Z"/>
  <path class="cls-2" d="M1491.8,260.16c0,.1-.03.2-.09.28-.05.08-.13.15-.22.19-.1.04-.2.05-.3.03-.09-.02-.18-.07-.26-.14-.07-.07-.11-.16-.13-.26-.02-.1-.01-.2.02-.29.04-.09.11-.17.19-.23.08-.05.18-.09.28-.09.14,0,.27.05.36.15.1.1.15.22.15.36Z"/>
  <path class="cls-2" d="M1494.71,260.16c0,.1-.03.2-.08.28-.06.08-.14.15-.23.19-.09.04-.2.05-.29.03-.1-.02-.19-.07-.26-.14-.07-.07-.12-.16-.14-.26s-.01-.2.03-.29c.04-.09.1-.17.18-.23.09-.05.18-.09.28-.09.14,0,.27.05.36.15.1.1.15.22.15.36Z"/>
  <path class="cls-37" d="M1622.5,439.31c104.3,0,188.85-4.94,188.85-11.03s-84.55-11.03-188.85-11.03-188.85,4.94-188.85,11.03,84.55,11.03,188.85,11.03Z"/>
  <path class="cls-22" d="M1767.81,281.83v21.92l6.91-3.64c2.32-1.23,4.01-4.73,4.31-8.95l.07-1.07c.31-4.38-1.65-8.25-4.17-8.25h-7.12ZM1775.52,297.64l-6.16,3.24v-16.21h5.66c1.65,0,2.92,2.53,2.74,5.42l-.24,3.38c-.15,1.96-.92,3.59-2,4.17Z"/>
  <path class="cls-15" d="M1767.81,281.83v21.92l6.91-3.64c2.32-1.23,4.01-4.73,4.31-8.95l.07-1.07c.31-4.38-1.65-8.25-4.17-8.25h-7.12ZM1775.52,297.64l-6.16,3.24v-16.21h5.66c1.65,0,2.92,2.53,2.74,5.42l-.24,3.38c-.15,1.96-.92,3.59-2,4.17Z"/>
  <path class="cls-22" d="M1776.43,310.99h-22.92l3.09-31.2,15.6-.05,4.23,31.25Z"/>
  <path class="cls-13" d="M1776.43,310.99h-22.92l3.09-31.2,15.6-.05,4.23,31.25Z"/>
  <path class="cls-22" d="M1790.41,313.79h-69.24v94.85h69.24v-94.85Z"/>
  <path class="cls-15" d="M1790.41,313.79h-69.24v94.85h69.24v-94.85Z"/>
  <path class="cls-22" d="M1800.56,317.45h-76.38c-1.67,0-3.01,1.35-3.01,3.01v.92c0,1.66,1.34,3.01,3.01,3.01h76.38c1.66,0,3.01-1.35,3.01-3.01v-.92c0-1.66-1.35-3.01-3.01-3.01Z"/>
  <path class="cls-8" d="M1800.56,317.45h-76.38c-1.67,0-3.01,1.35-3.01,3.01v.92c0,1.66,1.34,3.01,3.01,3.01h76.38c1.66,0,3.01-1.35,3.01-3.01v-.92c0-1.66-1.35-3.01-3.01-3.01Z"/>
  <path class="cls-22" d="M1800.32,319h-27.62c-1.79,0-3.24,1.45-3.24,3.24v9.49c0,1.79,1.45,3.24,3.24,3.24h27.62c1.79,0,3.25-1.45,3.25-3.24v-9.49c0-1.79-1.46-3.24-3.25-3.24Z"/>
  <path class="cls-14" d="M1800.32,319h-27.62c-1.79,0-3.24,1.45-3.24,3.24v9.49c0,1.79,1.45,3.24,3.24,3.24h27.62c1.79,0,3.25-1.45,3.25-3.24v-9.49c0-1.79-1.46-3.24-3.25-3.24Z"/>
  <path class="cls-22" d="M1787.6,316.6h-63.63c-.74,0-1.46-.3-1.98-.82-.53-.53-.82-1.24-.82-1.98s.29-1.46.82-1.98c.52-.53,1.24-.82,1.98-.82h63.63c.75,0,1.46.29,1.99.82.52.53.82,1.24.82,1.98s-.3,1.46-.82,1.98c-.53.53-1.24.82-1.99.82Z"/>
  <path class="cls-14" d="M1787.6,316.6h-63.63c-.74,0-1.46-.3-1.98-.82-.53-.53-.82-1.24-.82-1.98s.29-1.46.82-1.98c.52-.53,1.24-.82,1.98-.82h63.63c.75,0,1.46.29,1.99.82.52.53.82,1.24.82,1.98s-.3,1.46-.82,1.98c-.53.53-1.24.82-1.99.82Z"/>
  <path class="cls-22" d="M1803.57,379.87h-24.49v28.77h24.49v-28.77Z"/>
  <path class="cls-13" d="M1803.57,379.87h-24.49v28.77h24.49v-28.77Z"/>
  <path class="cls-22" d="M1747.11,310.99h-7.47l-1.95-17.34h10.88l-1.46,17.34Z"/>
  <path class="cls-13" d="M1747.11,310.99h-7.47l-1.95-17.34h10.88l-1.46,17.34Z"/>
  <path class="cls-22" d="M1778.7,355.65h-57.53v52.97h57.53v-52.97Z"/>
  <path class="cls-8" d="M1778.7,355.65h-57.53v52.97h57.53v-52.97Z"/>
  <path class="cls-22" d="M1778.7,339.86h-57.53v14.9h57.53v-14.9Z"/>
  <path class="cls-13" d="M1778.7,339.86h-57.53v14.9h57.53v-14.9Z"/>
  <path class="cls-22" d="M1728.8,372.33h-3.34v19.28h3.34v-19.28Z"/>
  <path class="cls-15" d="M1728.8,372.33h-3.34v19.28h3.34v-19.28Z"/>
  <path class="cls-22" d="M1759.04,341.66h-18.21v3.9h18.21v-3.9Z"/>
  <path class="cls-15" d="M1759.04,341.66h-18.21v3.9h18.21v-3.9Z"/>
  <path class="cls-22" d="M1791.32,321.95h-9.62v2.45h9.62v-2.45Z"/>
  <path class="cls-15" d="M1791.32,321.95h-9.62v2.45h9.62v-2.45Z"/>
  <path class="cls-22" d="M1760.91,279.78l-3.82,6.14-1.95-6.17,5.77.04Z"/>
  <path class="cls-15" d="M1760.91,279.78l-3.82,6.14-1.95-6.17,5.77.04Z"/>
  <path class="cls-22" d="M1772.15,279.74h-15.77v-.08c.15-1.4.81-2.7,1.85-3.64,1.04-.94,2.4-1.47,3.81-1.48h4.45c1.42.01,2.78.55,3.83,1.51,1.04.96,1.69,2.27,1.83,3.69Z"/>
  <path class="cls-14" d="M1772.15,279.74h-15.77v-.08c.15-1.4.81-2.7,1.85-3.64,1.04-.94,2.4-1.47,3.81-1.48h4.45c1.42.01,2.78.55,3.83,1.51,1.04.96,1.69,2.27,1.83,3.69Z"/>
  <path class="cls-22" d="M1719.75,421.48c0,.99.3,1.96.85,2.79.55.83,1.33,1.47,2.25,1.85.92.38,1.93.48,2.9.29.97-.19,1.87-.67,2.57-1.37.7-.7,1.18-1.6,1.37-2.57.19-.97.09-1.98-.29-2.9-.38-.92-1.02-1.7-1.84-2.25-.83-.55-1.8-.85-2.79-.85-.66,0-1.31.13-1.92.38-.61.25-1.16.62-1.63,1.09s-.84,1.02-1.09,1.63-.38,1.26-.38,1.92Z"/>
  <path class="cls-3" d="M1722.82,421.48c0,.38.12.76.33,1.08.21.32.52.57.87.72.36.15.75.19,1.13.11.38-.07.73-.26,1-.53.27-.27.46-.62.53-1,.08-.38.04-.77-.11-1.12-.15-.36-.4-.66-.72-.87-.32-.22-.69-.33-1.08-.33-.52,0-1.01.2-1.38.57-.36.36-.57.86-.57,1.38Z"/>
  <path class="cls-22" d="M1724.77,421.48l-5.02-1.89c.26-.97.8-1.85,1.55-2.52.76-.66,1.7-1.08,2.7-1.21,1.01-.17,2.04-.03,2.97.38.93.42,1.72,1.1,2.27,1.96l-4.47,3.27Z"/>
  <path class="cls-11" d="M1724.77,421.48l-5.02-1.89c.26-.97.8-1.85,1.55-2.52.76-.66,1.7-1.08,2.7-1.21,1.01-.17,2.04-.03,2.97.38.93.42,1.72,1.1,2.27,1.96l-4.47,3.27Z"/>
  <path class="cls-22" d="M1728.36,408.61h-7.19v7.2h7.19v-7.2Z"/>
  <path class="cls-11" d="M1728.36,408.61h-7.19v7.2h7.19v-7.2Z"/>
  <path class="cls-22" d="M1769.65,421.48c0,.99.3,1.96.85,2.79.55.83,1.33,1.47,2.25,1.85.91.38,1.92.48,2.9.29.97-.19,1.86-.67,2.56-1.37.71-.7,1.18-1.6,1.38-2.57.19-.97.09-1.98-.29-2.9-.38-.92-1.02-1.7-1.85-2.25-.82-.55-1.79-.85-2.78-.85-1.33,0-2.61.53-3.55,1.47-.94.94-1.47,2.22-1.47,3.55Z"/>
  <path class="cls-3" d="M1772.68,421.48c0,.38.12.76.33,1.08.21.32.52.57.87.72.36.15.75.19,1.13.11.38-.07.72-.26,1-.53.27-.27.45-.62.53-1,.07-.38.04-.77-.11-1.12-.15-.36-.4-.66-.72-.87-.32-.22-.7-.33-1.08-.33-.52,0-1.01.2-1.38.57-.36.36-.57.86-.57,1.38Z"/>
  <path class="cls-22" d="M1774.67,421.48l-5.02-1.89c.26-.98.8-1.85,1.56-2.52.76-.66,1.7-1.08,2.7-1.2,1-.16,2.03-.03,2.96.39.93.42,1.72,1.1,2.27,1.95l-4.47,3.27Z"/>
  <path class="cls-11" d="M1774.67,421.48l-5.02-1.89c.26-.98.8-1.85,1.56-2.52.76-.66,1.7-1.08,2.7-1.2,1-.16,2.03-.03,2.96.39.93.42,1.72,1.1,2.27,1.95l-4.47,3.27Z"/>
  <path class="cls-22" d="M1778.7,408.66h-7.14v7.14h7.14v-7.14Z"/>
  <path class="cls-11" d="M1778.7,408.66h-7.14v7.14h7.14v-7.14Z"/>
  <path class="cls-22" d="M1795.23,421.48c0,.99.29,1.96.84,2.79.56.83,1.34,1.47,2.26,1.85.91.38,1.92.48,2.89.29.98-.19,1.87-.67,2.57-1.37.7-.7,1.18-1.6,1.37-2.57.2-.97.1-1.98-.28-2.9-.38-.92-1.02-1.7-1.85-2.25-.82-.55-1.79-.85-2.78-.85-1.34,0-2.61.53-3.55,1.47-.94.94-1.47,2.22-1.47,3.55Z"/>
  <path class="cls-3" d="M1798.26,601.5c0,.38.11.76.33,1.08.21.32.51.57.87.72.36.15.75.19,1.13.11.37-.07.72-.26.99-.53.28-.27.46-.62.54-1,.07-.38.03-.77-.11-1.12-.15-.36-.4-.66-.72-.87-.32-.22-.7-.33-1.08-.33-.52,0-1.02.2-1.38.57-.37.36-.57.86-.57,1.38Z"/>
  <path class="cls-22" d="M1800.25,421.48l-5.02-1.89c.25-.98.79-1.85,1.55-2.52.76-.66,1.7-1.08,2.71-1.2,1-.16,2.03-.03,2.96.39.93.42,1.72,1.1,2.27,1.95l-4.47,3.27Z"/>
  <path class="cls-11" d="M1800.25,421.48l-5.02-1.89c.25-.98.79-1.85,1.55-2.52.76-.66,1.7-1.08,2.71-1.2,1-.16,2.03-.03,2.96.39.93.42,1.72,1.1,2.27,1.95l-4.47,3.27Z"/>
  <path class="cls-22" d="M1803.47,408.78h-7.03v7.03h7.03v-7.03Z"/>
  <path class="cls-11" d="M1803.47,408.78h-7.03v7.03h7.03v-7.03Z"/>
  <path class="cls-24" d="M1549.71,269.59h37.11v1.5c0,1.55-.61,3.04-1.71,4.13-1.1,1.1-2.58,1.71-4.13,1.71h-25.46c-1.55,0-3.04-.62-4.13-1.71-1.1-1.1-1.72-2.58-1.72-4.13v-1.5h.04Z"/>
  <path class="cls-11" d="M1549.71,269.59h37.11v1.5c0,1.55-.61,3.04-1.71,4.13-1.1,1.1-2.58,1.71-4.13,1.71h-25.46c-1.55,0-3.04-.62-4.13-1.71-1.1-1.1-1.72-2.58-1.72-4.13v-1.5h.04Z"/>
  <path class="cls-22" d="M1575.17,276.9h-13.81v135.14h13.81v-135.14Z"/>
  <path class="cls-14" d="M1575.17,276.9h-13.81v135.14h13.81v-135.14Z"/>
  <path class="cls-22" d="M1601.17,412.04h-65.81v5.91h65.81v-5.91Z"/>
  <path class="cls-11" d="M1601.17,412.04h-65.81v5.91h65.81v-5.91Z"/>
  <path class="cls-22" d="M1601.18,428.4c2.88,0,5.22-2.34,5.22-5.22s-2.34-5.22-5.22-5.22-5.22,2.34-5.22,5.22,2.34,5.22,5.22,5.22Z"/>
  <path class="cls-3" d="M1601.18,425.77c1.43,0,2.59-1.16,2.59-2.59s-1.16-2.59-2.59-2.59-2.59,1.16-2.59,2.59,1.16,2.59,2.59,2.59Z"/>
  <path class="cls-22" d="M1595.96,420.56l2.7,2.62h2.52v-5.23h-5.22v2.61Z"/>
  <path class="cls-12" d="M1595.96,420.56l2.7,2.62h2.52v-5.23h-5.22v2.61Z"/>
  <path class="cls-22" d="M1535.36,428.4c2.88,0,5.22-2.34,5.22-5.22s-2.34-5.22-5.22-5.22-5.22,2.34-5.22,5.22,2.33,5.22,5.22,5.22Z"/>
  <path class="cls-3" d="M1535.36,425.77c1.43,0,2.59-1.16,2.59-2.59s-1.16-2.59-2.59-2.59-2.59,1.16-2.59,2.59,1.16,2.59,2.59,2.59Z"/>
  <path class="cls-22" d="M1540.59,420.56l-2.71,2.62h-2.52v-5.23h5.23v2.61Z"/>
  <path class="cls-12" d="M1540.59,420.56l-2.71,2.62h-2.52v-5.23h5.23v2.61Z"/>
  <path class="cls-24" d="M1585.72,239.09h-34.92c-3.79,0-6.86,3.07-6.86,6.87v16.77c0,3.79,3.07,6.87,6.86,6.87h34.92c3.79,0,6.87-3.08,6.87-6.87v-16.77c0-3.79-3.08-6.87-6.87-6.87Z"/>
  <path class="cls-14" d="M1585.72,239.09h-34.92c-3.79,0-6.86,3.07-6.86,6.87v16.77c0,3.79,3.07,6.87,6.86,6.87h34.92c3.79,0,6.87-3.08,6.87-6.87v-16.77c0-3.79-3.08-6.87-6.87-6.87Z"/>
  <path class="cls-2" d="M1578.12,241.92h-28.34v20.28h28.34v-20.28Z"/>
  <path class="cls-22" d="M1589.31,266.37c1.41,0,2.55-1.14,2.55-2.55s-1.14-2.55-2.55-2.55-2.56,1.14-2.56,2.55,1.15,2.55,2.56,2.55Z"/>
  <path class="cls-22" d="M1589.74,257.91c1.17,0,2.12-.39,2.12-.88s-.95-.88-2.12-.88-2.11.39-2.11.88.95.88,2.11.88Z"/>
  <path class="cls-22" d="M1589.74,255.34c1.17,0,2.12-.39,2.12-.88s-.95-.88-2.12-.88-2.11.39-2.11.88.95.88,2.11.88Z"/>
  <path class="cls-22" d="M1589.74,252.79c1.17,0,2.12-.39,2.12-.88s-.95-.88-2.12-.88-2.11.39-2.11.88.95.88,2.11.88Z"/>
  <path class="cls-22" d="M1589.74,250.23c1.17,0,2.12-.39,2.12-.88s-.95-.88-2.12-.88-2.11.39-2.11.88.95.88,2.11.88Z"/>
  <path class="cls-22" d="M1589.74,247.68c1.17,0,2.12-.39,2.12-.88s-.95-.88-2.12-.88-2.11.39-2.11.88.95.88,2.11.88Z"/>
  <path class="cls-22" d="M1589.74,245.12c1.17,0,2.12-.39,2.12-.88s-.95-.88-2.12-.88-2.11.39-2.11.88.95.88,2.11.88Z"/>
  <path class="cls-22" d="M1582.8,268.86c.45,0,.81-.36.81-.81s-.36-.81-.81-.81-.81.36-.81.81.36.81.81.81Z"/>
  <path class="cls-22" d="M1579.29,268.86c.45,0,.81-.36.81-.81s-.36-.81-.81-.81-.81.36-.81.81.37.81.81.81Z"/>
  <path class="cls-24" d="M1578.38,237.74h-28.85c-3.09,0-5.59,2.5-5.59,5.59v17.45c0,3.09,2.5,5.59,5.59,5.59h28.85c3.09,0,5.59-2.5,5.59-5.59v-17.45c0-3.09-2.5-5.59-5.59-5.59Z"/>
  <path class="cls-12" d="M1578.38,237.74h-28.85c-3.09,0-5.59,2.5-5.59,5.59v17.45c0,3.09,2.5,5.59,5.59,5.59h28.85c3.09,0,5.59-2.5,5.59-5.59v-17.45c0-3.09-2.5-5.59-5.59-5.59Z"/>
  <path class="cls-22" d="M1580.12,242.17h-32.14v20.53h32.14v-20.53Z"/>
  <path class="cls-8" d="M1580.12,242.17h-32.14v20.53h32.14v-20.53Z"/>
  <path class="cls-24" d="M1557.5,253.9c-.22-.14-.4-.34-.51-.58-.13-.28-.2-.59-.19-.9-.01-.31.06-.62.19-.9.11-.23.29-.43.51-.58.22-.13.48-.2.75-.19.26,0,.52.06.75.19.22.14.39.34.5.58.13.28.2.59.19.9.01.31-.06.62-.19.9-.11.24-.29.43-.5.58-.23.13-.49.2-.75.19-.27,0-.53-.06-.75-.19ZM1558.61,252.43c0-.54-.12-.81-.36-.81s-.37.27-.37.81.12.81.37.81.36-.27.36-.81Z"/>
  <path class="cls-24" d="M1560.65,253.9c-.22-.14-.4-.34-.52-.58-.12-.28-.18-.59-.18-.9-.01-.31.06-.61.18-.9.12-.24.3-.44.52-.58.23-.13.48-.2.74-.19.26,0,.52.06.75.19.23.14.41.34.52.58.12.28.19.59.18.9.01.31-.06.61-.18.9-.12.24-.3.43-.52.58-.23.13-.49.2-.75.19-.26,0-.51-.06-.74-.19ZM1561.76,252.43c0-.54-.13-.81-.37-.81s-.36.27-.36.81.13.81.36.81.37-.27.37-.81Z"/>
  <path class="cls-24" d="M1557.88,259.85c-.23-.14-.4-.34-.51-.57-.13-.28-.2-.59-.19-.9-.01-.31.06-.61.19-.89.1-.24.28-.44.51-.58.22-.14.48-.21.75-.2.26,0,.52.07.75.2.22.14.39.34.5.58.13.28.2.58.19.89.01.31-.06.62-.19.9-.11.24-.28.44-.51.58-.22.14-.48.2-.74.19-.27,0-.53-.06-.75-.19ZM1558.99,258.38c0-.54-.12-.8-.36-.8s-.38.26-.38.8.13.81.38.81.36-.27.36-.81Z"/>
  <path class="cls-24" d="M1561.02,259.85c-.22-.14-.39-.34-.51-.57-.13-.28-.19-.59-.18-.9-.01-.31.05-.61.18-.89.11-.24.29-.44.51-.58.23-.14.49-.21.75-.2.27,0,.53.07.75.2.22.14.4.34.51.58.13.28.19.58.18.89.01.31-.05.62-.18.9-.11.24-.29.44-.51.57-.23.14-.49.2-.75.19-.26,0-.52-.06-.75-.19ZM1562.11,258.38c0-.54-.12-.8-.37-.8s-.36.26-.36.8.12.81.36.81.37-.27.37-.81Z"/>
  <path class="cls-24" d="M1565.85,259.85c-.22-.14-.4-.34-.51-.57-.13-.28-.19-.59-.19-.9s.06-.61.19-.89c.11-.24.29-.44.51-.58.22-.14.48-.21.74-.2.27,0,.53.07.75.2.23.13.41.34.52.58.13.28.19.58.18.89.01.31-.05.61-.18.9-.11.24-.29.44-.52.57-.22.14-.48.2-.75.19-.26,0-.52-.06-.74-.19ZM1566.98,258.38c0-.54-.12-.8-.37-.8s-.36.26-.36.8.12.81.36.81.37-.27.37-.81Z"/>
  <path class="cls-24" d="M1569,259.85c-.22-.14-.4-.34-.51-.57-.13-.28-.19-.59-.18-.9-.01-.31.05-.61.18-.89.11-.24.28-.44.51-.58.22-.14.48-.21.75-.2.26,0,.52.07.75.2.22.14.4.34.5.58.14.28.2.58.19.89.01.31-.05.62-.19.9-.1.24-.28.44-.51.58-.22.14-.48.2-.74.19-.27,0-.53-.06-.75-.19ZM1570.11,258.38c0-.54-.12-.8-.36-.8s-.37.26-.37.8.12.81.37.81.36-.27.36-.81Z"/>
  <path class="cls-24" d="M1566.38,253.9c-.22-.14-.4-.34-.52-.58-.12-.28-.18-.59-.17-.9,0-.31.05-.61.17-.9.11-.24.29-.44.52-.58.23-.13.49-.2.75-.19.26,0,.51.06.74.19.22.14.4.34.51.58.13.28.19.59.19.9s-.06.61-.19.9c-.11.24-.29.43-.51.58-.23.13-.48.2-.74.19-.26,0-.52-.06-.75-.19ZM1567.49,252.43c0-.54-.12-.81-.36-.81s-.37.27-.37.81.12.81.37.81.36-.27.36-.81Z"/>
  <path class="cls-24" d="M1569.52,253.9c-.22-.14-.39-.34-.5-.58-.13-.28-.2-.59-.19-.9-.01-.31.06-.62.19-.9.11-.24.28-.44.5-.58.23-.13.49-.19.75-.19s.52.07.75.19c.23.14.4.34.51.58.13.28.2.59.19.9.01.31-.06.62-.19.9-.11.24-.29.43-.51.58-.23.13-.48.2-.75.2s-.52-.07-.75-.2ZM1570.63,252.43c0-.54-.11-.81-.36-.81s-.36.27-.36.81.12.81.36.81.36-.27.36-.81Z"/>
  <path class="cls-24" d="M1564.33,257.31h.46l-.75,2.14h-.46l.75-2.14Z"/>
  <path class="cls-24" d="M1566.69,246.19h-17.61v.22h17.61v-.22Z"/>
  <path class="cls-24" d="M1567.99,248.2v-3.5h-.17v3.67h10.85v-.17h-10.68Z"/>
  <path class="cls-24" d="M1571.19,233.65h-12.27c-.58,0-1.14-.23-1.55-.64-.41-.41-.64-.97-.64-1.55s.23-1.14.64-1.55c.41-.41.97-.64,1.55-.64h12.27c.58,0,1.14.23,1.55.64.41.41.64.97.64,1.55s-.23,1.14-.64,1.55c-.41.41-.97.64-1.55.64Z"/>
  <path class="cls-10" d="M1571.19,233.65h-12.27c-.58,0-1.14-.23-1.55-.64-.41-.41-.64-.97-.64-1.55s.23-1.14.64-1.55c.41-.41.97-.64,1.55-.64h12.27c.58,0,1.14.23,1.55.64.41.41.64.97.64,1.55s-.23,1.14-.64,1.55c-.41.41-.97.64-1.55.64Z"/>
  <path class="cls-22" d="M1556.73,230.33v7.45h-1.76v-5.7c0-.46.19-.91.52-1.24.32-.33.77-.51,1.24-.51Z"/>
  <path class="cls-11" d="M1556.73,230.33v7.45h-1.76v-5.7c0-.46.19-.91.52-1.24.32-.33.77-.51,1.24-.51Z"/>
  <path class="cls-22" d="M1573.38,230.33v7.45h1.75v-5.7c0-.23-.04-.46-.13-.67-.09-.21-.22-.41-.38-.57-.16-.16-.36-.29-.57-.38-.21-.09-.44-.13-.67-.13Z"/>
  <path class="cls-11" d="M1573.38,230.33v7.45h1.75v-5.7c0-.23-.04-.46-.13-.67-.09-.21-.22-.41-.38-.57-.16-.16-.36-.29-.57-.38-.21-.09-.44-.13-.67-.13Z"/>
  <path class="cls-22" d="M1568.34,337.41h-99.78v12.86h99.78v-12.86Z"/>
  <path class="cls-12" d="M1568.34,337.41h-99.78v12.86h99.78v-12.86Z"/>
  <path class="cls-22" d="M1457.44,427.95c6.14,0,11.12-4.98,11.12-11.12s-4.98-11.12-11.12-11.12-11.13,4.98-11.13,11.12,4.98,11.12,11.13,11.12Z"/>
  <path class="cls-5" d="M1462.6,416.82c0,1.02-.3,2.02-.87,2.87-.57.85-1.37,1.51-2.32,1.9-.94.39-1.98.49-2.98.29-1-.2-1.92-.69-2.64-1.41-.73-.72-1.22-1.64-1.42-2.64-.2-1-.09-2.04.3-2.98.39-.94,1.05-1.75,1.9-2.32.85-.57,1.85-.87,2.87-.87.67,0,1.35.13,1.97.39.63.26,1.2.64,1.68,1.12.48.48.86,1.05,1.12,1.68.26.63.39,1.3.39,1.98Z"/>
  <path class="cls-22" d="M1701.43,347.84l-243.63,38.02,1.06,6.83,243.63-38.02-1.06-6.83Z"/>
  <path class="cls-11" d="M1701.43,347.84l-243.63,38.02,1.06,6.83,243.63-38.02-1.06-6.83Z"/>
  <path class="cls-22" d="M1457.8,354.67l243.63,38.02,1.06-6.83-243.63-38.02-1.06,6.83Z"/>
  <path class="cls-12" d="M1457.8,354.67l243.63,38.02,1.06-6.83-243.63-38.02-1.06,6.83Z"/>
  <path class="cls-22" d="M1543.25,314.57l-80.49-27.11c-.88-.29-1.84-.23-2.67.18-.83.41-1.47,1.14-1.77,2.02l-4.68,13.92c-.19.57-.27,1.16-.23,1.76.04.6.2,1.18.46,1.71.27.54.64,1.01,1.09,1.4.45.39.97.69,1.54.88l80.15,27.96h165.03c.93,0,1.83-.37,2.49-1.03.66-.66,1.03-1.56,1.03-2.49v-16.37c0-.37-.07-.74-.21-1.09-.15-.34-.36-.66-.62-.92-.27-.26-.58-.47-.92-.61-.35-.14-.72-.21-1.09-.21h-159.11Z"/>
  <path class="cls-24" d="M1446.47,350.27h-5.31c-.99,0-1.93-.4-2.63-1.1-.7-.7-1.09-1.65-1.09-2.64v-50.65c0-.99.39-1.94,1.1-2.65.7-.7,1.65-1.1,2.64-1.1h1.57c.91,0,1.78.33,2.47.93.68.6,1.12,1.43,1.24,2.33l3.74,28.57c.01.16.01.33,0,.49v22.08c0,.99-.39,1.94-1.09,2.64-.7.7-1.65,1.1-2.64,1.1Z"/>
  <path class="cls-14" d="M1446.47,350.27h-5.31c-.99,0-1.93-.4-2.63-1.1-.7-.7-1.09-1.65-1.09-2.64v-50.65c0-.99.39-1.94,1.1-2.65.7-.7,1.65-1.1,2.64-1.1h1.57c.91,0,1.78.33,2.47.93.68.6,1.12,1.43,1.24,2.33l3.74,28.57c.01.16.01.33,0,.49v22.08c0,.99-.39,1.94-1.09,2.64-.7.7-1.65,1.1-2.64,1.1Z"/>
  <path class="cls-24" d="M1709.29,346.38h5.31c.99,0,1.94-.39,2.65-1.1.7-.7,1.09-1.65,1.09-2.64v-50.65c0-.99-.39-1.94-1.09-2.64-.71-.7-1.66-1.1-2.65-1.1h-1.52c-.9,0-1.78.33-2.46.93-.68.6-1.12,1.42-1.24,2.32l-3.75,28.57c-.01.16-.01.32,0,.49v22.05c-.01.98.37,1.93,1.06,2.64.68.71,1.62,1.11,2.6,1.13Z"/>
  <path class="cls-14" d="M1709.29,346.38h5.31c.99,0,1.94-.39,2.65-1.1.7-.7,1.09-1.65,1.09-2.64v-50.65c0-.99-.39-1.94-1.09-2.64-.71-.7-1.66-1.1-2.65-1.1h-1.52c-.9,0-1.78.33-2.46.93-.68.6-1.12,1.42-1.24,2.32l-3.75,28.57c-.01.16-.01.32,0,.49v22.05c-.01.98.37,1.93,1.06,2.64.68.71,1.62,1.11,2.6,1.13Z"/>
  <path class="cls-24" d="M1549.99,337.41h-99.78v12.86h99.78v-12.86Z"/>
  <path class="cls-15" d="M1549.99,337.41h-99.78v12.86h99.78v-12.86Z"/>
  <path class="cls-24" d="M1705.55,337.41h-154.04v12.86h154.04v-12.86Z"/>
  <path class="cls-15" d="M1705.55,337.41h-154.04v12.86h154.04v-12.86Z"/>
  <path class="cls-24" d="M1705.2,390.23h-248.56v12.99h248.56v-12.99Z"/>
  <path class="cls-15" d="M1705.2,390.23h-248.56v12.99h248.56v-12.99Z"/>
  <path class="cls-24" d="M1436.95,271.24l-10.17,27.47c-1.03,2.83-.91,5.96.36,8.7,1.26,2.74,3.56,4.86,6.38,5.91l99.37,36.82c4.7,1.73,33.12-12.5,25.16-21.52-7.96-9.02-30.03-35.82-46.24-41.79l-60.22-22.29c-2.83-1.05-5.96-.93-8.71.33-2.74,1.26-4.87,3.55-5.93,6.38ZM1510,299.6c.24-.64.6-1.23,1.08-1.73.47-.5,1.04-.89,1.67-1.16.63-.27,1.31-.4,1.99-.4.69,0,1.37.15,1.99.43,8,3.59,15.28,9.83,22.08,17.8.72.85,1.14,1.91,1.19,3.02.06,1.11-.26,2.21-.9,3.11-.64.91-1.56,1.58-2.62,1.91-1.07.33-2.21.29-3.25-.1l-23.18-8.58c-1.24-.47-2.24-1.41-2.79-2.62-.55-1.21-.6-2.59-.13-3.83l2.87-7.87ZM1443.77,276.77c.27-.74.69-1.42,1.23-2,.53-.58,1.18-1.05,1.89-1.38.72-.33,1.49-.51,2.28-.54.79-.03,1.58.09,2.32.37l36.09,13.36c1.2.45,2.23,1.26,2.93,2.34.7,1.07,1.04,2.34.97,3.62l-.29,5.46c-.06.94-.33,1.85-.8,2.67-.47.82-1.12,1.51-1.91,2.02-.78.52-1.68.84-2.62.94-.93.11-1.88-.01-2.76-.34l-37.58-13.9c-.74-.27-1.41-.69-1.99-1.23-.58-.54-1.05-1.18-1.38-1.9-.33-.72-.51-1.49-.54-2.28-.03-.79.09-1.57.37-2.31l1.79-4.92Z"/>
  <path class="cls-8" d="M1436.95,271.24l-10.17,27.47c-1.03,2.83-.91,5.96.36,8.7,1.26,2.74,3.56,4.86,6.38,5.91l99.37,36.82c4.7,1.73,33.12-12.5,25.16-21.52-7.96-9.02-30.03-35.82-46.24-41.79l-60.22-22.29c-2.83-1.05-5.96-.93-8.71.33-2.74,1.26-4.87,3.55-5.93,6.38ZM1510,299.6c.24-.64.6-1.23,1.08-1.73.47-.5,1.04-.89,1.67-1.16.63-.27,1.31-.4,1.99-.4.69,0,1.37.15,1.99.43,8,3.59,15.28,9.83,22.08,17.8.72.85,1.14,1.91,1.19,3.02.06,1.11-.26,2.21-.9,3.11-.64.91-1.56,1.58-2.62,1.91-1.07.33-2.21.29-3.25-.1l-23.18-8.58c-1.24-.47-2.24-1.41-2.79-2.62-.55-1.21-.6-2.59-.13-3.83l2.87-7.87ZM1443.77,276.77c.27-.74.69-1.42,1.23-2,.53-.58,1.18-1.05,1.89-1.38.72-.33,1.49-.51,2.28-.54.79-.03,1.58.09,2.32.37l36.09,13.36c1.2.45,2.23,1.26,2.93,2.34.7,1.07,1.04,2.34.97,3.62l-.29,5.46c-.06.94-.33,1.85-.8,2.67-.47.82-1.12,1.51-1.91,2.02-.78.52-1.68.84-2.62.94-.93.11-1.88-.01-2.76-.34l-37.58-13.9c-.74-.27-1.41-.69-1.99-1.23-.58-.54-1.05-1.18-1.38-1.9-.33-.72-.51-1.49-.54-2.28-.03-.79.09-1.57.37-2.31l1.79-4.92Z"/>
  <path class="cls-22" d="M1460.87,381.93h2.53c1.12,0,2.2.45,2.99,1.24.8.79,1.24,1.87,1.24,3v4.06h-10.99v-4.06c0-1.12.44-2.2,1.24-3,.79-.79,1.87-1.24,2.99-1.24Z"/>
  <path class="cls-10" d="M1460.87,381.93h2.53c1.12,0,2.2.45,2.99,1.24.8.79,1.24,1.87,1.24,3v4.06h-10.99v-4.06c0-1.12.44-2.2,1.24-3,.79-.79,1.87-1.24,2.99-1.24Z"/>
  <path class="cls-22" d="M1463.39,358.57h-2.53c-1.12,0-2.2-.45-2.99-1.24-.8-.8-1.24-1.87-1.24-3v-4.06h10.99v4.06c0,1.12-.44,2.2-1.24,3-.79.79-1.87,1.24-2.99,1.24Z"/>
  <path class="cls-10" d="M1463.39,358.57h-2.53c-1.12,0-2.2-.45-2.99-1.24-.8-.8-1.24-1.87-1.24-3v-4.06h10.99v4.06c0,1.12-.44,2.2-1.24,3-.79.79-1.87,1.24-2.99,1.24Z"/>
  <path class="cls-22" d="M1701.36,358.57h-2.56c-1.12,0-2.2-.45-2.99-1.24-.8-.8-1.24-1.87-1.24-3v-4.06h11.05v4.06c0,.56-.11,1.11-.32,1.63-.22.52-.53.98-.93,1.38-.4.39-.87.71-1.38.92-.52.21-1.08.32-1.63.32Z"/>
  <path class="cls-10" d="M1701.36,358.57h-2.56c-1.12,0-2.2-.45-2.99-1.24-.8-.8-1.24-1.87-1.24-3v-4.06h11.05v4.06c0,.56-.11,1.11-.32,1.63-.22.52-.53.98-.93,1.38-.4.39-.87.71-1.38.92-.52.21-1.08.32-1.63.32Z"/>
  <path class="cls-22" d="M1698.84,381.93h2.55c1.13,0,2.21.45,3,1.24.79.79,1.24,1.87,1.24,3v4.06h-11.05v-4.06c0-.56.11-1.11.32-1.63.22-.52.53-.99.93-1.38.39-.39.86-.71,1.38-.92s1.07-.32,1.63-.31Z"/>
  <path class="cls-10" d="M1698.84,381.93h2.55c1.13,0,2.21.45,3,1.24.79.79,1.24,1.87,1.24,3v4.06h-11.05v-4.06c0-.56.11-1.11.32-1.63.22-.52.53-.99.93-1.38.39-.39.86-.71,1.38-.92s1.07-.32,1.63-.31Z"/>
  <path class="cls-22" d="M1581.52,377.01c4.17-1.72,6.16-6.5,4.43-10.67-1.72-4.17-6.5-6.16-10.67-4.43-4.17,1.72-6.16,6.5-4.43,10.67,1.72,4.17,6.5,6.16,10.67,4.43Z"/>
  <path class="cls-10" d="M1581.52,377.01c4.17-1.72,6.16-6.5,4.43-10.67-1.72-4.17-6.5-6.16-10.67-4.43-4.17,1.72-6.16,6.5-4.43,10.67,1.72,4.17,6.5,6.16,10.67,4.43Z"/>
  <path class="cls-24" d="M1691.65,338.16h-64.21c-17.23,0-47.24,17.46-57.82,23.16-10.58,5.7,11.12,28.91,16.12,28.91h105.91c1.5,0,2.98-.29,4.37-.86,1.38-.57,2.64-1.41,3.7-2.47,1.06-1.06,1.9-2.32,2.47-3.7.57-1.38.87-2.87.87-4.36v-29.28c0-1.5-.3-2.98-.87-4.36-.57-1.38-1.41-2.64-2.47-3.7-1.06-1.06-2.32-1.9-3.7-2.47-1.39-.57-2.87-.87-4.37-.86ZM1624.67,359.18c0,1.33-.53,2.61-1.47,3.55-.95.94-2.22,1.47-3.55,1.47h-24.72c-1.11,0-2.19-.37-3.06-1.05-.88-.68-1.51-1.62-1.79-2.69-.29-1.07-.21-2.21.22-3.23.43-1.02,1.18-1.87,2.14-2.42,9.16-5.11,18.15-8.43,26.88-9.03.69-.04,1.38.05,2.02.29.65.23,1.24.59,1.74,1.06.5.47.9,1.04,1.17,1.67.27.63.41,1.31.41,1.99v8.4ZM1694.71,357.59c0,.79-.15,1.57-.45,2.3-.3.73-.74,1.39-1.3,1.95-.56.56-1.22,1-1.95,1.3-.73.3-1.51.46-2.3.46h-40.12c-.94,0-1.87-.22-2.71-.65s-1.57-1.04-2.12-1.8c-.56-.76-.93-1.64-1.09-2.57-.16-.93-.09-1.88.19-2.78l1.61-5.22c.38-1.23,1.14-2.3,2.18-3.06,1.03-.76,2.28-1.17,3.56-1.17h38.52c.79,0,1.57.16,2.3.46.73.3,1.39.75,1.95,1.3.56.56,1,1.22,1.3,1.95.3.73.45,1.51.45,2.3l-.02,5.23Z"/>
  <path class="cls-8" d="M1691.65,338.16h-64.21c-17.23,0-47.24,17.46-57.82,23.16-10.58,5.7,11.12,28.91,16.12,28.91h105.91c1.5,0,2.98-.29,4.37-.86,1.38-.57,2.64-1.41,3.7-2.47,1.06-1.06,1.9-2.32,2.47-3.7.57-1.38.87-2.87.87-4.36v-29.28c0-1.5-.3-2.98-.87-4.36-.57-1.38-1.41-2.64-2.47-3.7-1.06-1.06-2.32-1.9-3.7-2.47-1.39-.57-2.87-.87-4.37-.86ZM1624.67,359.18c0,1.33-.53,2.61-1.47,3.55-.95.94-2.22,1.47-3.55,1.47h-24.72c-1.11,0-2.19-.37-3.06-1.05-.88-.68-1.51-1.62-1.79-2.69-.29-1.07-.21-2.21.22-3.23.43-1.02,1.18-1.87,2.14-2.42,9.16-5.11,18.15-8.43,26.88-9.03.69-.04,1.38.05,2.02.29.65.23,1.24.59,1.74,1.06.5.47.9,1.04,1.17,1.67.27.63.41,1.31.41,1.99v8.4ZM1694.71,357.59c0,.79-.15,1.57-.45,2.3-.3.73-.74,1.39-1.3,1.95-.56.56-1.22,1-1.95,1.3-.73.3-1.51.46-2.3.46h-40.12c-.94,0-1.87-.22-2.71-.65s-1.57-1.04-2.12-1.8c-.56-.76-.93-1.64-1.09-2.57-.16-.93-.09-1.88.19-2.78l1.61-5.22c.38-1.23,1.14-2.3,2.18-3.06,1.03-.76,2.28-1.17,3.56-1.17h38.52c.79,0,1.57.16,2.3.46.73.3,1.39.75,1.95,1.3.56.56,1,1.22,1.3,1.95.3.73.45,1.51.45,2.3l-.02,5.23Z"/>
  <path class="cls-22" d="M1670.61,336.05h-29.65v2.72h29.65v-2.72Z"/>
  <path class="cls-12" d="M1670.61,336.05h-29.65v2.72h29.65v-2.72Z"/>
  <path class="cls-22" d="M1491.33,333.23l-27.78-10.37-.95,2.55,27.78,10.37.95-2.55Z"/>
  <path class="cls-12" d="M1491.33,333.23l-27.78-10.37-.95,2.55,27.78,10.37.95-2.55Z"/>
  <path class="cls-22" d="M1468.56,407.07l-8.15,11.18h-3.77v-15.03h11.92v3.85Z"/>
  <path class="cls-10" d="M1468.56,407.07l-8.15,11.18h-3.77v-15.03h11.92v3.85Z"/>
  <path class="cls-22" d="M1704.4,427.95c6.15,0,11.13-4.98,11.13-11.12s-4.98-11.12-11.13-11.12-11.12,4.98-11.12,11.12,4.98,11.12,11.12,11.12Z"/>
  <path class="cls-5" d="M1699.24,416.82c0,1.02.3,2.02.87,2.87.57.85,1.37,1.51,2.32,1.9.94.39,1.98.49,2.98.29,1-.2,1.92-.69,2.64-1.41.73-.72,1.22-1.64,1.42-2.64.2-1,.09-2.04-.3-2.98-.39-.94-1.05-1.75-1.9-2.32-.85-.57-1.85-.87-2.87-.87-.67,0-1.35.13-1.97.39-.63.26-1.2.64-1.68,1.12-.48.48-.86,1.05-1.12,1.67-.26.63-.39,1.3-.39,1.98Z"/>
  <path class="cls-22" d="M1693.29,407.07l8.15,11.18h3.77v-15.03h-11.92v3.85Z"/>
  <path class="cls-10" d="M1693.29,407.07l8.15,11.18h3.77v-15.03h-11.92v3.85Z"/>
  <path class="cls-22" d="M1497.83,147.98h-2.39v269.85h2.39V147.98Z"/>
  <path class="cls-14" d="M1497.83,147.98h-2.39v269.85h2.39V147.98Z"/>
  <path class="cls-22" d="M1482.25,155.21h-5.84v-1.58h4.4v-1.23h1.44v2.8Z"/>
  <path class="cls-10" d="M1482.25,155.21h-5.84v-1.58h4.4v-1.23h1.44v2.8Z"/>
  <path class="cls-22" d="M1511.19,155.21h5.85v-1.58h-4.4l-.02-1.23h-1.43v2.8Z"/>
  <path class="cls-10" d="M1511.19,155.21h5.85v-1.58h-4.4l-.02-1.23h-1.43v2.8Z"/>
  <path class="cls-24" d="M1502.24,308.02c-8.01,0-8.3-15.29-8.52-27.58-.06-2.65-.1-5.15-.23-7.23-.1-1.72-.3-4.29-.53-7.48-1.17-15.93-3.35-45.57-2.04-62.45,1.34-17.28-3.18-41.5-8.97-48.01-.29-.4-.66-.74-1.08-1s-.89-.43-1.38-.51c-.27,0-.53.06-.77.16-.24.11-.45.26-.64.45-5.1,4.78-5.84,31.77-5.84,32.04l-4.02,92.99-1.23-.06,4.02-92.97c0-1.12.79-27.78,6.27-32.9.29-.31.65-.56,1.04-.72.39-.17.82-.25,1.25-.25.66.08,1.29.29,1.87.63.57.33,1.07.78,1.47,1.32,6.06,6.82,10.65,31.06,9.26,48.91-1.31,16.79.88,46.38,2.04,62.28.24,3.18.43,5.77.54,7.5.13,2.09.18,4.61.22,7.28.21,11.12.5,26.38,7.3,26.38,5.73,0,7.09-8.63,8.53-17.76.56-4.23,1.41-8.42,2.56-12.53,3.69-11.8.43-77.65.4-77.92l1.23-.15c.12,1.08,3.31,66.37-.45,78.41-1.13,4.06-1.97,8.19-2.52,12.36-1.53,9.68-3,18.81-9.78,18.81Z"/>
  <path class="cls-22" d="M1469.47,428.36c2.03,0,3.68-1.65,3.68-3.68s-1.65-3.68-3.68-3.68-3.69,1.65-3.69,3.68,1.65,3.68,3.69,3.68Z"/>
  <path class="cls-3" d="M1470.93,424.68c0,.29-.09.57-.25.81-.16.24-.39.43-.66.54-.26.11-.56.14-.84.08-.28-.06-.54-.2-.75-.4-.2-.21-.34-.47-.4-.75-.05-.28-.03-.58.09-.84.11-.27.29-.5.53-.66.24-.16.53-.25.82-.25.38,0,.75.15,1.03.43.27.27.43.64.43,1.03Z"/>
  <path class="cls-22" d="M1469.47,424.68l3.68-1.38c-.19-.72-.59-1.36-1.14-1.85-.56-.49-1.25-.8-1.99-.89-.75-.13-1.51-.04-2.21.27-.69.3-1.28.81-1.69,1.45l3.35,2.41Z"/>
  <path class="cls-5" d="M1469.47,424.68l3.68-1.38c-.19-.72-.59-1.36-1.14-1.85-.56-.49-1.25-.8-1.99-.89-.75-.13-1.51-.04-2.21.27-.69.3-1.28.81-1.69,1.45l3.35,2.41Z"/>
  <path class="cls-22" d="M1524.02,428.36c2.03,0,3.68-1.65,3.68-3.68s-1.65-3.68-3.68-3.68-3.68,1.65-3.68,3.68,1.65,3.68,3.68,3.68Z"/>
  <path class="cls-3" d="M1522.56,424.68c0,.29.08.57.24.81.16.24.39.43.66.54.27.11.56.14.84.08.29-.06.55-.2.75-.4.21-.21.35-.47.4-.75.06-.28.03-.58-.08-.84-.11-.27-.3-.5-.54-.66-.24-.16-.52-.25-.81-.25-.39,0-.76.15-1.03.43-.28.27-.43.64-.43,1.03Z"/>
  <path class="cls-22" d="M1524.02,424.68l-3.68-1.38c.18-.72.58-1.36,1.13-1.85.56-.49,1.25-.8,1.98-.89.74-.12,1.5-.03,2.19.28.68.3,1.26.8,1.66,1.44l-3.28,2.41Z"/>
  <path class="cls-5" d="M1524.02,424.68l-3.68-1.38c.18-.72.58-1.36,1.13-1.85.56-.49,1.25-.8,1.98-.89.74-.12,1.5-.03,2.19.28.68.3,1.26.8,1.66,1.44l-3.28,2.41Z"/>
  <path class="cls-22" d="M1468.9,279.32h-3.02v9.05h3.02v-9.05Z"/>
  <path class="cls-10" d="M1468.9,279.32h-3.02v9.05h3.02v-9.05Z"/>
  <path class="cls-22" d="M1468.17,293.82h-1.57v-5.45h1.57v5.45Z"/>
  <path class="cls-14" d="M1468.17,293.82h-1.57v-5.45h1.57v5.45Z"/>
  <path class="cls-24" d="M1467.39,299.28l-.38-5.46h.75l-.37,5.46Z"/>
  <path class="cls-14" d="M1467.39,299.28l-.38-5.46h.75l-.37,5.46Z"/>
  <path class="cls-24" d="M1512.44,163.27l-.98-.18s.98-4.87,1.15-6.95c.26-2.57,1.24-3.49,2.01-3.49s1.4,1.26,1.86,3.72c.25,1.33.24,6.37.24,6.58h-.97s0-5.16-.22-6.4c-.1-1.04-.43-2.04-.98-2.92-.08,0-.74.64-.97,2.63-.24,1.99-1.07,6.8-1.14,7Z"/>
  <path class="cls-24" d="M1520.49,193.68c-.42,1.53-4.09,5.75-5.96,5.75s-6.3-3.12-6.82-5.12c-.51-2.01,1.53-5.95,1.81-8.77.27-2.81-1.18-14.89-1.04-17.6.15-2.71.98-3.74,2.21-4.77,1.24-1.03,6.68-1.2,7.63,0,.96,1.2,2.14,2.21,2.14,4.36s-1.52,16-1.45,18.21c.07,2.21,1.9,6.42,1.48,7.94Z"/>
  <path class="cls-13" d="M1520.49,193.68c-.42,1.53-4.09,5.75-5.96,5.75s-6.3-3.12-6.82-5.12c-.51-2.01,1.53-5.95,1.81-8.77.27-2.81-1.18-14.89-1.04-17.6.15-2.71.98-3.74,2.21-4.77,1.24-1.03,6.68-1.2,7.63,0,.96,1.2,2.14,2.21,2.14,4.36s-1.52,16-1.45,18.21c.07,2.21,1.9,6.42,1.48,7.94Z"/>
  <path class="cls-24" d="M1519.8,192.92c-.34,1.23-4.18,4.64-5.69,4.64s-4.81-2.87-5.2-4.5c-.39-1.63,1.3-6.15,1.52-8.45.23-2.3-.97-12.03-.85-14.21.98-2.07,9.69-2.06,9.69-.33s-1.23,12.93-1.18,14.71c.05,1.78,2.04,6.92,1.71,8.14Z"/>
  <path class="cls-12" d="M1519.8,192.92c-.34,1.23-4.18,4.64-5.69,4.64s-4.81-2.87-5.2-4.5c-.39-1.63,1.3-6.15,1.52-8.45.23-2.3-.97-12.03-.85-14.21.98-2.07,9.69-2.06,9.69-.33s-1.23,12.93-1.18,14.71c.05,1.78,2.04,6.92,1.71,8.14Z"/>
  <path class="cls-24" d="M1517.31,163.17h-5.99c-.23,0-.46-.09-.62-.26-.17-.16-.26-.39-.26-.62,0-.12.02-.23.07-.34.04-.11.1-.21.18-.29.09-.08.18-.15.29-.19.11-.04.22-.07.34-.07h5.99c.11,0,.23.02.34.07.1.05.2.11.28.19.08.08.15.18.19.29.04.11.07.22.06.34,0,.23-.09.46-.25.62-.17.16-.39.26-.62.26Z"/>
  <path class="cls-12" d="M1517.31,163.17h-5.99c-.23,0-.46-.09-.62-.26-.17-.16-.26-.39-.26-.62,0-.12.02-.23.07-.34.04-.11.1-.21.18-.29.09-.08.18-.15.29-.19.11-.04.22-.07.34-.07h5.99c.11,0,.23.02.34.07.1.05.2.11.28.19.08.08.15.18.19.29.04.11.07.22.06.34,0,.23-.09.46-.25.62-.17.16-.39.26-.62.26Z"/>
  <path class="cls-22" d="M1524.02,417.73h-54.55v2.79h54.55v-2.79Z"/>
  <path class="cls-10" d="M1524.02,417.73h-54.55v2.79h54.55v-2.79Z"/>
  <path class="cls-22" d="M1517.04,147.98h-40.63v2.74h40.63v-2.74Z"/>
  <path class="cls-10" d="M1517.04,147.98h-40.63v2.74h40.63v-2.74Z"/>
  <path class="cls-22" d="M1478.5,147.98h-2.09v7.22h2.09v-7.22Z"/>
  <path class="cls-10" d="M1478.5,147.98h-2.09v7.22h2.09v-7.22Z"/>
  <path class="cls-22" d="M1517.04,147.98h-2.1v7.22h2.1v-7.22Z"/>
  <path class="cls-10" d="M1517.04,147.98h-2.1v7.22h2.1v-7.22Z"/>
  <path class="cls-24" d="M2556.23,479.38l80.92,124.48v111.7h-191.58v-111.7l110.66-124.48Z"/>
  <path class="cls-14" d="M2556.23,479.38l80.92,124.48v111.7h-191.58v-111.7l110.66-124.48Z"/>
  <path class="cls-24" d="M2467.38,484.45l12.32-18.89h76.53l90.18,138.3h-179.03v-119.41Z"/>
  <path class="cls-5" d="M2467.38,484.45l12.32-18.89h76.53l90.18,138.3h-179.03v-119.41Z"/>
  <path class="cls-24" d="M2569.85,603.87l-90.15-138.3-90.17,138.3h180.32Z"/>
  <path class="cls-24" d="M2479.7,479.38l80.89,124.48v111.7h-161.8v-111.7l80.91-124.48Z"/>
  <path class="cls-9" d="M2479.7,479.38l80.89,124.48v111.7h-161.8v-111.7l80.91-124.48Z"/>
  <path class="cls-24" d="M2454.59,715.45h49.24v-58.98h-49.24v58.98Z"/>
  <path class="cls-11" d="M2454.59,715.45h49.24v-53.5h-49.24v53.5Z"/>
  <path class="cls-24" d="M2515.38,583.63h-23.69v-23.83h-22.53v23.83h-23.69v19.22h23.69v23.83h22.53v-23.83h23.69v-19.22Z"/>
  <path class="cls-24" d="M505.91,208.26l80.92,124.48v111.7h-191.58v-111.7l110.67-124.48Z"/>
  <path class="cls-14" d="M505.91,208.26l80.92,124.48v111.7h-191.58v-111.7l110.67-124.48Z"/>
  <path class="cls-24" d="M417.06,213.33l12.33-18.89h76.53l90.17,138.3h-179.03v-119.41Z"/>
  <path class="cls-5" d="M417.06,213.33l12.33-18.89h76.53l90.17,138.3h-179.03v-119.41Z"/>
  <path class="cls-24" d="M519.53,332.74l-90.15-138.3-90.17,138.3h180.32Z"/>
  <path class="cls-24" d="M429.38,208.26l80.89,124.48v111.7h-161.8v-111.7l80.92-124.48Z"/>
  <path class="cls-9" d="M429.38,208.26l80.89,124.48v111.7h-161.8v-111.7l80.92-124.48Z"/>
  <path class="cls-24" d="M404.26,444.33h49.25v-58.98h-49.25v58.98Z"/>
  <path class="cls-11" d="M404.26,444.33h49.25v-53.5h-49.25v53.5Z"/>
  <path class="cls-24" d="M465.06,312.51h-23.7v-23.83h-22.52v23.83h-23.7v19.22h23.7v23.83h22.52v-23.83h23.7v-19.22Z"/>
  <path class="cls-7" d="M395.15,312.39h-3.65v19.46h3.65v-19.46Z"/>
  <path class="cls-7" d="M418.86,288.68h-3.65v23.71h3.65v-23.71Z"/>
  <path class="cls-7" d="M418.86,331.85h-3.65v23.71h3.65v-23.71Z"/>
  <text class="cls-30" transform="translate(1865.09 170.53)"><tspan x="0" y="0">Rehabilitation</tspan></text>
  <text class="cls-31" transform="translate(269.63 512.15)"><tspan x="0" y="0">Haus-O</tspan><tspan class="cls-39" x="166.12" y="0">r</tspan><tspan x="184.8" y="0">dination</tspan></text>
  <text class="cls-31" transform="translate(517.03 1057.06)"><tspan x="0" y="0">Spezial-Ambulanz</tspan></text>
  <text class="cls-31" transform="translate(2330.54 774.83)"><tspan x="0" y="0">Haus-O</tspan><tspan class="cls-39" x="166.12" y="0">r</tspan><tspan x="184.8" y="0">dination</tspan><tspan x="63.07" y="57.6">Nachso</tspan><tspan class="cls-39" x="230.16" y="57.6">r</tspan><tspan x="248.83" y="57.6">ge</tspan></text>
  <text class="cls-31" transform="translate(1487.83 503.97)"><tspan x="0" y="0">Operation</tspan></text>
  <text class="cls-29" transform="translate(1026.19 170.53)"><tspan x="0" y="0">P</tspan><tspan class="cls-39" x="30.24" y="0">r</tspan><tspan x="48.91" y="0">ehabilitation</tspan></text>
  <path class="cls-22" d="M937.44,664.21h-41.75v24.22h41.75v-24.22Z"/>
  <path class="cls-15" d="M937.44,664.21h-41.75v24.22h41.75v-24.22Z"/>
  <path class="cls-15" d="M937.44,664.21h-22.96v24.22h22.96v-24.22Z"/>
  <path class="cls-22" d="M893.04,664.21h-41.75v24.22h41.75v-24.22Z"/>
  <path class="cls-15" d="M893.04,664.21h-41.75v24.22h41.75v-24.22Z"/>
  <path class="cls-15" d="M893.02,664.21h-22.96v24.22h22.96v-24.22Z"/>
  <path class="cls-22" d="M676,664.21h-176.34v24.22h176.34v-24.22Z"/>
  <path class="cls-15" d="M676,664.21h-176.34v24.22h176.34v-24.22Z"/>
  <path class="cls-15" d="M676.02,664.21h-97.01v24.22h97.01v-24.22Z"/>
  <path class="cls-24" d="M580.81,688.44h-98.45v292.22h98.45v-292.22Z"/>
  <path class="cls-15" d="M580.81,688.44h-98.45v292.22h98.45v-292.22Z"/>
  <path class="cls-4" d="M495.54,688.44h-1.72v292.22h1.72v-292.22Z"/>
  <path class="cls-4" d="M509.81,688.44h-1.72v292.22h1.72v-292.22Z"/>
  <path class="cls-4" d="M524.08,688.44h-1.72v292.22h1.72v-292.22Z"/>
  <path class="cls-4" d="M538.34,688.44h-1.72v292.22h1.72v-292.22Z"/>
  <path class="cls-4" d="M552.59,688.44h-1.72v292.22h1.72v-292.22Z"/>
  <path class="cls-4" d="M566.86,688.44h-1.72v292.22h1.72v-292.22Z"/>
  <g class="cls-16">
    <path class="cls-27" d="M527.75,688.42l-45.39,73.21v-35.44l23.41-37.76h21.98Z"/>
    <path class="cls-27" d="M553.78,688.42l-71.42,115.16v-10.33l65.01-104.83h6.41Z"/>
  </g>
  <g class="cls-16">
    <path class="cls-27" d="M580.81,774.28v35.44l-98.45,158.79v-35.44l98.45-158.79Z"/>
    <path class="cls-27" d="M580.81,841.37v10.35l-79.94,128.93h-6.43l86.37-139.28Z"/>
  </g>
  <path class="cls-24" d="M954.78,677.01h-379.73v317.2h379.73v-317.2Z"/>
  <path class="cls-24" d="M471.07,994.19h103.99v-22.86h-103.99v22.86Z"/>
  <path class="cls-24" d="M471.07,699.86h103.99v-22.86h-103.99v22.86Z"/>
  <path class="cls-24" d="M471.07,758.74h103.99v-22.86h-103.99v22.86Z"/>
  <path class="cls-24" d="M471.07,817.6h103.99v-22.86h-103.99v22.86Z"/>
  <path class="cls-24" d="M471.07,876.45h103.99v-22.86h-103.99v22.86Z"/>
  <path class="cls-24" d="M471.07,935.34h103.99v-22.86h-103.99v22.86Z"/>
  <g class="cls-35">
    <path class="cls-27" d="M471.07,994.19h103.99v-22.86h-103.99v22.86Z"/>
    <path class="cls-27" d="M471.07,699.86h103.99v-22.86h-103.99v22.86Z"/>
    <path class="cls-27" d="M471.07,758.74h103.99v-22.86h-103.99v22.86Z"/>
    <path class="cls-27" d="M471.07,817.6h103.99v-22.86h-103.99v22.86Z"/>
    <path class="cls-27" d="M471.07,876.45h103.99v-22.86h-103.99v22.86Z"/>
    <path class="cls-27" d="M471.07,935.34h103.99v-22.86h-103.99v22.86Z"/>
  </g>
  <path class="cls-13" d="M954.78,677.01h-379.73v317.2h379.73v-317.2Z"/>
  <path class="cls-15" d="M954.78,677.01h-367.51v317.2h367.51v-317.2Z"/>
  <path class="cls-24" d="M829.55,677.01h-116.95v317.2h116.95v-317.2Z"/>
  <path class="cls-24" d="M942.29,699.86h-103.35v271.47h103.35v-271.47Z"/>
  <path class="cls-14" d="M942.29,699.86h-103.35v271.47h103.35v-271.47Z"/>
  <g class="cls-16">
    <path d="M855.33,699.87h-1.72v271.46h1.72v-271.46Z"/>
    <path d="M873.4,699.87h-1.72v271.46h1.72v-271.46Z"/>
    <path d="M891.46,699.87h-1.72v271.46h1.72v-271.46Z"/>
    <path d="M909.53,699.87h-1.72v271.46h1.72v-271.46Z"/>
    <path d="M927.59,699.87h-1.72v271.46h1.72v-271.46Z"/>
    <path d="M943.15,972.19h-105.07v-273.18h105.07v273.18ZM839.79,970.47h101.64v-269.74h-101.64v269.74Z"/>
    <path d="M942.29,735.01h-103.35v1.72h103.35v-1.72Z"/>
    <path d="M942.29,757.87h-103.35v1.72h103.35v-1.72Z"/>
    <path d="M942.29,793.88h-103.35v1.72h103.35v-1.72Z"/>
    <path d="M942.29,816.74h-103.35v1.72h103.35v-1.72Z"/>
    <path d="M942.29,852.75h-103.35v1.72h103.35v-1.72Z"/>
    <path d="M942.29,875.61h-103.35v1.72h103.35v-1.72Z"/>
    <path d="M942.29,911.6h-103.35v1.72h103.35v-1.72Z"/>
    <path d="M942.29,934.46h-103.35v1.72h103.35v-1.72Z"/>
  </g>
  <g class="cls-16">
    <path class="cls-27" d="M942.29,760.29v35.44l-103.35,166.67v-35.46l103.35-166.66Z"/>
    <path class="cls-27" d="M942.29,827.36v10.35l-82.85,133.62h-6.43l89.28-143.97Z"/>
  </g>
  <g class="cls-16">
    <path class="cls-27" d="M942.29,898.97v35.44l-22.89,36.92h-21.97l44.86-72.36Z"/>
    <path class="cls-27" d="M942.29,966.03v5.29h-3.28l3.28-5.29Z"/>
  </g>
  <path class="cls-24" d="M703.21,699.86h-103.35v271.47h103.35v-271.47Z"/>
  <path class="cls-14" d="M703.21,699.86h-103.35v271.47h103.35v-271.47Z"/>
  <g class="cls-16">
    <path d="M616.27,699.87h-1.72v271.46h1.72v-271.46Z"/>
    <path d="M634.32,699.87h-1.72v271.46h1.72v-271.46Z"/>
    <path d="M652.39,699.87h-1.72v271.46h1.72v-271.46Z"/>
    <path d="M670.45,699.87h-1.72v271.46h1.72v-271.46Z"/>
    <path d="M688.52,699.87h-1.72v271.46h1.72v-271.46Z"/>
    <path d="M704.07,972.19h-105.07v-273.18h105.07v273.18ZM600.72,970.47h101.64v-269.74h-101.64v269.74Z"/>
    <path d="M703.21,735.01h-103.35v1.72h103.35v-1.72Z"/>
    <path d="M703.21,757.87h-103.35v1.72h103.35v-1.72Z"/>
    <path d="M703.21,793.88h-103.35v1.72h103.35v-1.72Z"/>
    <path d="M703.21,816.74h-103.35v1.72h103.35v-1.72Z"/>
    <path d="M703.21,852.75h-103.35v1.72h103.35v-1.72Z"/>
    <path d="M703.21,875.61h-103.35v1.72h103.35v-1.72Z"/>
    <path d="M703.21,911.6h-103.35v1.72h103.35v-1.72Z"/>
    <path d="M703.21,934.46h-103.35v1.72h103.35v-1.72Z"/>
  </g>
  <g class="cls-16">
    <path class="cls-27" d="M647.87,699.86l-48.01,77.42v-35.42l26.04-41.99h21.97Z"/>
    <path class="cls-27" d="M673.91,699.86l-74.05,119.41v-10.35l67.62-109.06h6.43Z"/>
  </g>
  <g class="cls-16">
    <path class="cls-27" d="M703.21,782.07v35.42l-95.38,153.84h-7.97v-22.6l103.35-166.66Z"/>
    <path class="cls-27" d="M703.21,849.12v10.36l-69.35,111.85h-6.43l75.78-122.21Z"/>
  </g>
  <path class="cls-8" d="M829.55,677.01h-116.95v317.2h116.95v-317.2Z"/>
  <path class="cls-24" d="M748.64,794.74h-23.57v176.59h23.57v-176.59Z"/>
  <path class="cls-24" d="M783.04,794.74h-23.57v176.59h23.57v-176.59Z"/>
  <path class="cls-24" d="M817.43,794.74h-23.57v176.59h23.57v-176.59Z"/>
  <g class="cls-36">
    <path class="cls-27" d="M748.64,794.74h-23.57v176.59h23.57v-176.59Z"/>
    <path class="cls-27" d="M783.04,794.74h-23.57v176.59h23.57v-176.59Z"/>
    <path class="cls-27" d="M817.43,794.74h-23.57v176.59h23.57v-176.59Z"/>
  </g>
  <path class="cls-24" d="M806.53,727.43h-23.91v-23.91h-22.72v23.91h-23.91v19.29h23.91v23.91h22.72v-23.91h23.91v-19.29Z"/>
  <path class="cls-3" d="M739.45,727.44h-3.46v19.27h3.46v-19.27Z"/>
  <path class="cls-3" d="M763.36,703.53h-3.44v23.91h3.44v-23.91Z"/>
  <path class="cls-22" d="M98.71,166.74c1.08-7.88,22.12-13.96,31.93-4.96,13.23,12.09,11.11,49.97,11.11,70.5-19.58-4.82-49.35-3.66-54.55-.82-1.11-9.44-.85-62.41,11.51-64.72Z"/>
  <path class="cls-40" d="M139.28,240.11c.21,3.59.61,6.86,1.05,10.25.44,3.39,1.03,6.71,1.69,10.05,1.31,6.71,3.12,13.32,5.4,19.76.58,1.63,1.26,3.24,1.89,4.85.62,1.61,1.37,3.18,2.23,4.83,1.73,3.18,3.76,6.19,6.08,8.97,4.4,5.3,9.43,10.04,14.99,14.11l4.17-4.56c-3.97-4.93-7.66-10.08-11.05-15.43-1.59-2.51-2.96-5.15-4.12-7.89-.56-1.31-1.09-2.83-1.66-4.24-.56-1.41-.99-2.93-1.52-4.41-1.8-6.04-3.25-12.18-4.35-18.38-.53-3.13-1-6.28-1.44-9.44-.44-3.16-.79-6.39-1.05-9.35l-12.3.88Z"/>
  <path class="cls-40" d="M146.95,225.38c4.27,1.09,6.67,29.36,6.67,29.36l-11.36,6.84s-6.87-20.89-5.82-29.91c.76-6.55,7.28-7.12,10.51-6.29Z"/>
  <path class="cls-40" d="M124.12,557.54h9.76l6.02-44.44h-16.62l.84,44.44Z"/>
  <path class="cls-5" d="M123.72,536.12h13.06l3.12-23.02h-16.62l.44,23.02Z"/>
  <path class="cls-40" d="M48.54,541.52l9.43,2.43,19.13-40.5-16.22-4.59-12.33,42.66Z"/>
  <path class="cls-5" d="M54.35,521.4l12.89,2.9,9.85-20.86-16.22-4.59-6.52,22.55Z"/>
  <path class="cls-22" d="M60.23,542.29l-12.53-5.31c-.21-.1-.45-.12-.68-.04-.22.07-.41.22-.53.43l-5.64,9.29c-.13.24-.21.5-.24.77-.02.27,0,.55.1.8.09.26.23.5.42.69.19.2.41.36.66.46,4.39,1.78,6.61,2.42,12.16,4.76,3.38,1.44,8.18,3.89,12.86,5.88,4.68,1.99,6.89-2.54,5.11-3.79-7.92-5.58-8.21-8.76-10.1-12.48-.35-.66-.92-1.18-1.61-1.47Z"/>
  <path class="cls-22" d="M135.17,556.14h-13.59c-.24,0-.46.08-.64.23-.18.15-.3.37-.33.6l-1.52,10.75c-.03.27,0,.55.09.81.09.26.22.5.41.7.18.2.41.37.66.48.25.11.52.17.79.17,4.74-.09,7.02-.36,13-.36,3.68,0,11.3.38,16.37.38s5.35-5.02,3.24-5.47c-9.49-2.04-13.23-4.85-16.42-7.6-.58-.46-1.31-.71-2.05-.68Z"/>
  <path class="cls-17" d="M147.7,225.36s5.78,2.02-5.78,73.05h-49.15c.82-20.01.85-32.35-8.71-73.4,6.88-1.43,13.86-2.35,20.87-2.75,7.43-.53,14.89-.53,22.32,0,9.58.87,20.45,3.1,20.45,3.1Z"/>
  <path class="cls-27" d="M111.5,250.45s.11,0,.12-.09c3.04-5.26,10.76-9.4,10.84-9.44.02-.01.04-.03.06-.05.02-.02.03-.04.04-.07,0-.02,0-.05,0-.07,0-.03-.01-.05-.03-.07-.04-.03-.08-.05-.13-.05s-.09.02-.13.05c0,0-7.6,4.14-10.86,9.38-3.22-2.83-13.56-15.63-12.32-26.64,0-.02,0-.05,0-.07s-.02-.04-.03-.06c-.02-.02-.03-.03-.06-.04-.02-.01-.04-.02-.07-.02-.02,0-.05,0-.07,0-.02,0-.04.02-.06.03-.02.02-.03.03-.04.06-.01.02-.02.04-.02.07-1.28,11.36,9.58,24.57,12.62,27.11.02,0,.05,0,.07,0,.02,0,.05-.02.06-.03Z"/>
  <path class="cls-27" d="M137,248.4s.08.02.12,0c1.13-1.29,1.73-2.97,1.66-4.68.41-5.96-2.04-15.83-5.91-20.08-.04-.04-.09-.06-.14-.06s-.1.02-.14.06c-.02.02-.03.04-.04.06,0,.02-.01.05-.01.07s0,.05.01.07c0,.02.02.04.04.06,3.82,4.21,6.22,13.93,5.82,19.76.04,1.53-.44,3.03-1.37,4.26-2.52-3.42-9.58-7.6-9.88-7.74-.02-.02-.05-.04-.08-.05-.03,0-.06-.01-.09,0-.03,0-.06.02-.08.03-.02.02-.04.04-.06.07-.01.03-.02.06-.02.09,0,.03,0,.06.02.09.01.03.03.05.05.07s.05.03.08.04c.08,0,7.6,4.41,9.88,7.8.03.05.08.08.14.09Z"/>
  <path class="cls-40" d="M107.14,197.13c1.41,7.18,2.81,20.34-2.2,25.13,0,0-2.78,16.89,20.13,16.89,18.93,0,2.19-16.89,2.19-16.89-8.01-1.91-7.8-7.86-6.42-13.44l-13.7-11.69Z"/>
  <path class="cls-5" d="M112.73,201.9l8.1,6.96c-.34,1.3-.57,2.62-.68,3.95-3.04-.44-7.27-3.8-7.6-6.99-.19-1.31-.13-2.64.18-3.92Z"/>
  <path class="cls-40" d="M99.56,183.95c2.81,11.68,3.76,16.72,10.79,21.68,10.64,7.53,24.33,1.52,25.04-10.76.65-11.05-4.06-28.29-16.45-30.95-2.73-.6-5.57-.48-8.24.32-2.67.81-5.1,2.29-7.04,4.29-1.94,2.01-3.34,4.48-4.06,7.18-.72,2.7-.74,5.54-.05,8.24Z"/>
  <path class="cls-22" d="M108.7,170.31c-1.35,11.4-1.9,22.9-9.99,20.1-8.09-2.8-.79-20.1-.79-20.1h10.78Z"/>
  <path class="cls-22" d="M134.96,174.02c-11.6-3.62-24.1-3.12-35.38,1.41,1.52-5.56,2.45-10.05,9.3-12.16,6.86-2.11,22.64.36,26.07,10.75Z"/>
  <path class="cls-22" d="M141.92,298.42s9.55,93.23,8.76,130.14c-.82,38.39-9.53,100.19-9.53,100.19l-19.76-.62s.62-58.93-.82-96.63c-1.52-41.05-14.64-133.08-14.64-133.08h36Z"/>
  <path class="cls-17" d="M119.3,531.56h23.79l1.75-6.13-26.65-.74,1.11,6.87Z"/>
  <path class="cls-5" d="M120.71,321.6c12.09,24.33,2.43,68.6-1.84,85.14-2.19-24.77-5.88-55.02-8.76-77.25,1.82-12.68,5.03-19.08,10.6-7.89Z"/>
  <path class="cls-22" d="M129,298.42s-11.13,96.92-19.54,128.04c-9.99,36.94-36.91,91.94-36.91,91.94l-18.38-5.29s15.66-64.68,23.29-84.14c16.3-41.54,2.34-103.38,15.37-130.55h36.17Z"/>
  <path class="cls-17" d="M50.78,515.48l21.94,6.08,3.95-5.62-24.34-8.12-1.55,7.66Z"/>
  <path class="cls-22" d="M119.28,184.19c.18.96.82,1.64,1.44,1.52.62-.12,1-.99.84-1.95-.17-.96-.82-1.64-1.52-1.52s-.93.97-.76,1.95Z"/>
  <path class="cls-22" d="M130.15,182.26c.17.96.82,1.66,1.52,1.52.7-.14,1-.97.84-1.93-.17-.96-.82-1.66-1.44-1.52-.62.14-1.08.97-.91,1.93Z"/>
  <path class="cls-22" d="M130.72,180.42l2.19-1.08s-.87,2.02-2.19,1.08Z"/>
  <path class="cls-19" d="M127.07,184.31c1.26,2.04,2.8,3.9,4.56,5.53-.43.44-.95.77-1.52.99-.57.22-1.18.3-1.79.26l-1.25-6.78Z"/>
  <path class="cls-22" d="M123.19,195.62c.55,0,1.1-.05,1.64-.15.04,0,.07-.02.11-.04.03-.02.06-.05.08-.08.02-.03.04-.07.04-.1,0-.04,0-.08,0-.11-.01-.07-.06-.14-.12-.18-.06-.04-.14-.06-.21-.05-1.19.23-2.42.19-3.59-.14-1.17-.32-2.25-.92-3.15-1.73-.02-.03-.05-.06-.09-.08-.04-.02-.08-.03-.12-.04-.04,0-.08,0-.12.01-.04.01-.08.04-.11.07-.03.03-.05.06-.07.1-.01.04-.02.08-.02.12,0,.04.01.08.03.12.02.04.05.07.08.09,1.52,1.43,3.53,2.22,5.61,2.19Z"/>
  <path class="cls-40" d="M99.06,192.75c.9,2.14,2.61,3.84,4.76,4.73,2.86,1.16,4.56-1.32,4.11-4.2-.46-2.58-2.49-6.29-5.5-6.22-.66.03-1.29.22-1.86.56-.56.34-1.03.81-1.37,1.37-.33.56-.52,1.2-.55,1.86-.02.66.12,1.31.41,1.89Z"/>
  <path class="cls-22" d="M115.07,177.76c.08,0,.16-.02.23-.05s.14-.08.19-.13c.48-.54,1.08-.96,1.75-1.23.67-.26,1.4-.37,2.11-.3.15.02.3-.01.43-.1.12-.09.21-.22.24-.37.01-.07.01-.15,0-.22-.02-.07-.05-.14-.09-.2s-.1-.11-.16-.15c-.06-.04-.14-.06-.21-.08-.9-.11-1.82,0-2.67.31-.85.32-1.62.84-2.22,1.51-.11.11-.16.25-.16.4s.06.3.16.4c.11.12.25.19.41.2Z"/>
  <path class="cls-22" d="M132.86,176.29c.07,0,.15-.01.21-.04.07-.03.13-.07.18-.12.11-.11.16-.25.16-.4s-.06-.29-.16-.4c-.61-.68-1.38-1.19-2.23-1.51-.86-.32-1.77-.42-2.68-.3-.08.01-.15.04-.21.08-.06.04-.12.09-.16.16-.04.06-.07.13-.09.21-.01.08-.01.15,0,.23.01.07.04.15.08.21.04.06.09.12.16.16.06.04.13.07.21.09.07.01.15.01.22,0,.72-.07,1.44.03,2.11.3.67.26,1.27.68,1.75,1.22.06.05.13.09.21.12s.16.03.23.02Z"/>
  <path class="cls-40" d="M78.74,237.95c-2.8,6.81-5.19,13.78-7.16,20.87-2.14,7.18-3.61,14.55-4.41,22-.12.94-.17,1.93-.2,2.9v2.36c0,.46.03.91.09,1.37.41,2.62,1.45,5.1,3.04,7.22,2.34,3.2,5.06,6.12,8.09,8.68,5.61,4.82,11.66,9.11,18.06,12.8l3.56-4.99c-5.15-4.73-10.37-9.58-14.9-14.64-2.18-2.34-4.13-4.88-5.81-7.6-.52-.79-.85-1.68-.99-2.62v-.52l.14-1.2c.08-.81.15-1.6.3-2.42,1.14-6.74,2.75-13.38,4.83-19.89,2.07-6.58,4.41-13.29,6.86-19.66l-11.51-4.68Z"/>
  <path class="cls-40" d="M84.1,225.01c-4.82,1.96-10.86,28.35-10.86,28.35l10.25,8.41s9.65-19.67,10.08-28.75c.33-6.81-5.21-9.76-9.47-8.01Z"/>
  <path class="cls-17" d="M65.75,546.11c.22-.11.41-.27.56-.47.15-.2.25-.43.3-.67.05-.16.06-.34.03-.51-.04-.17-.12-.32-.24-.45-1.05-1.14-5.35-.4-5.85-.3-.05.01-.11.04-.15.07-.04.04-.07.09-.08.14,0,.06,0,.11.02.16.02.05.06.1.1.13,1.29.96,3.68,2.48,5.14,1.98l.17-.08ZM61.34,544.15c1.73-.24,4.09-.35,4.64.24.04.06.06.14.06.21s-.02.15-.06.21c-.03.18-.1.36-.22.5-.12.14-.27.25-.45.32-.7.27-2.19-.27-3.97-1.49Z"/>
  <path class="cls-17" d="M62.56,543.62c1.26-.61,2.55-1.52,2.74-2.4.04-.22.01-.45-.09-.66-.11-.2-.28-.36-.48-.45-.19-.11-.4-.18-.62-.2-.22-.02-.44,0-.64.08-1.67.55-3.04,3.76-3.04,3.89-.02.04-.03.09-.03.14s.01.1.03.14c.03.04.06.08.11.1.05.02.1.03.15.02.66-.12,1.29-.34,1.89-.65ZM63.46,540.58l.18-.08c.13-.04.27-.06.4-.05.14.01.27.06.39.12.32.18.33.36.3.5-.18.84-2.2,2.1-3.62,2.49.51-1.18,1.31-2.21,2.34-2.98h0Z"/>
  <path class="cls-17" d="M139.64,558.26c1.03.09,2.07-.17,2.93-.74.2-.17.35-.38.44-.62.09-.24.12-.5.08-.76,0-.16-.06-.32-.14-.45-.09-.14-.2-.25-.34-.32-1.52-.81-6.31,1.66-6.84,1.95-.06.02-.1.06-.13.12-.03.05-.04.11-.02.17,0,.06.03.11.08.16.04.04.09.07.15.08,1.25.26,2.52.4,3.8.43ZM141.8,555.76c.18,0,.36.02.53.09.06.03.11.08.14.13.03.06.05.12.06.19.02.17,0,.34-.05.5-.06.16-.15.3-.28.41-.73.67-2.72.78-5.41.33,1.59-.84,3.31-1.4,5.09-1.66h-.08Z"/>
  <path class="cls-17" d="M135.96,557.83h.12c1.52-.65,4.3-3.27,4.07-4.56,0-.33-.29-.73-1.08-.81-.27-.02-.55,0-.81.09-.26.08-.5.22-.71.4-1.52,1.26-1.81,4.56-1.82,4.67,0,.04,0,.08.01.12.01.04.03.07.06.1.03.03.06.05.1.07.04.01.08.02.12.02l-.06-.09ZM138.85,552.94h.17c.53,0,.56.26.58.33.12.82-1.81,2.87-3.28,3.77.11-1.37.64-2.68,1.52-3.74.28-.24.65-.37,1.02-.37Z"/>
  <path class="cls-21" d="M92.02,295.53l-1.25,4.39c-.18.35.23.7.79.7h50.6c.44,0,.81-.23.84-.5l.44-4.39c0-.3-.35-.56-.84-.56h-49.78c-.15-.01-.31.01-.45.08-.14.06-.26.16-.35.29Z"/>
  <path class="cls-6" d="M92.02,295.53l-1.25,4.39c-.18.35.23.7.79.7h50.6c.44,0,.81-.23.84-.5l.44-4.39c0-.3-.35-.56-.84-.56h-49.78c-.15-.01-.31.01-.45.08-.14.06-.26.16-.35.29Z"/>
  <path class="cls-17" d="M98.71,301.09h-1.34c-.26,0-.46-.14-.44-.3l.62-5.72c0-.17.24-.3.52-.3h1.34c.26,0,.46.14.44.3l-.62,5.72c-.02.17-.24.3-.52.3Z"/>
  <path class="cls-17" d="M138.42,301.09h-1.34c-.27,0-.47-.14-.46-.3l.62-5.72c0-.17.26-.3.52-.3h1.34c.27,0,.47.14.46.3l-.62,5.72c-.03.17-.26.3-.52.3Z"/>
  <path class="cls-17" d="M118.57,301.09h-1.34c-.26,0-.47-.14-.44-.3l.62-5.72c0-.17.24-.3.52-.3h1.32c.27,0,.47.14.46.3l-.62,5.72c-.01.17-.26.3-.52.3Z"/>
  <path class="cls-40" d="M98.36,310.08l13.03,1.12-8.71,8.7s-7.47-2.17-8.5-7.08l4.18-2.74Z"/>
  <path class="cls-40" d="M118.84,318.13l-7.68,6.89-10.32-5.81,10.55-8.01,7.45,6.93Z"/>
  <path class="cls-22" d="M119.88,182.35l2.19-1.08s-.9,2.01-2.19,1.08Z"/>
  <path class="cls-23" d="M-2.94,611.15s580.24,50.51,1022.5-92.03c442.26-142.55,399.93,254.01,593.65,254.01s98.3-378.91,723.7-378.91c331.88,0,10.45,1.31,434.44,1.31"/>
  <text class="cls-32" transform="translate(1070.14 724.08)"><tspan x="0" y="0">Strkung der </tspan><tspan x="-66.32" y="48">krper</tspan><tspan class="cls-25" x="58.84" y="48">l</tspan><tspan x="69.28" y="48">ichen Fitness </tspan><tspan x="-43" y="96">und Belas</tspan><tspan class="cls-25" x="138.48" y="96">t</tspan><tspan x="154.08" y="96">barkeit</tspan></text>
  <text class="cls-28" transform="translate(1848.98 738.15)"><tspan x="0" y="0">Wiederherste</tspan><tspan class="cls-25" x="254.08" y="0">l</tspan><tspan x="264.52" y="0">lung </tspan><tspan x="-13.68" y="48">der Gesun</tspan><tspan class="cls-25" x="179.64" y="48">d</tspan><tspan x="204.88" y="48">heit und </tspan><tspan x="11.08" y="96">Se</tspan><tspan class="cls-25" x="57" y="96">l</tspan><tspan x="67.44" y="96">bststn</tspan><tspan class="cls-26" x="203.72" y="96">d</tspan><tspan x="228.96" y="96">igkeit</tspan></text>
</svg>