<svg width="38" height="39" viewBox="0 0 38 39" fill="none" xmlns="http://www.w3.org/2000/svg">
<path d="M5.35539 2V6.14263C7.52898 7.70766 10.8693 9.89269 13.8087 12.0019C15.3359 13.0978 16.7546 14.1712 17.8403 15.1395C18.9332 16.1003 19.7294 16.8659 19.9755 17.8192L19.9972 17.8942V17.9693C20.0262 19.1102 20.2651 19.8608 20.569 20.3112C20.873 20.7616 21.2277 20.9567 21.6982 21.0243C22.6319 21.1669 24.0288 20.5739 25.1218 19.5831C26.2075 18.5923 26.9313 17.2637 26.8734 16.2654C26.8444 15.77 26.6635 15.3346 26.193 14.9068C25.7298 14.4789 24.9408 14.0736 23.7393 13.8109C22.8707 13.6232 21.7271 12.9552 20.171 11.9869C18.6148 11.0261 16.7329 9.77259 14.7786 8.44401C11.3478 6.0991 7.76928 3.58079 5.35539 2ZM17.587 2.21392C18.8609 3.07037 21.0685 4.61514 23.3702 6.50968C26.9096 9.41981 30.5793 13.2029 31.2524 16.0402V16.0477C31.4261 16.7983 31.5057 18.81 31.4551 21.242C31.4044 23.6664 31.2596 26.5638 31.0787 29.3486C30.8616 32.7413 30.601 35.9465 30.4345 37.9431H31.7446C31.9111 35.9314 32.1644 32.7789 32.3815 29.4387C32.5553 26.6464 32.7073 23.734 32.7579 21.2645C32.8086 18.8025 32.7869 16.8509 32.5118 15.725V15.7174C31.6577 12.122 27.7926 8.42149 24.1808 5.45057C22.6464 4.18879 21.1481 3.07788 19.9321 2.21392H17.587ZM5 11.5741V13.4131C8.54303 16.7608 13.5771 21.0468 16.8632 23.4938C16.0959 27.9074 16.2407 33.4544 16.3565 37.9431H17.6594C17.5363 33.2968 17.406 27.5621 18.2094 23.3287L18.2963 22.8933L17.9489 22.6381C14.4891 20.1085 8.58935 15.0494 5 11.5741ZM27.9663 14.0511L28.5454 20.026C29.1606 19.6582 29.5442 19.2153 29.7758 18.7499C30.0871 18.1044 30.1233 17.3688 29.9496 16.6332C29.6673 15.5073 28.8494 14.4864 27.9663 14.0511ZM26.6273 20.619C26.4391 20.7466 26.1351 21.0543 25.6719 21.3846C24.8178 22.0001 23.3991 22.5705 20.8875 22.4204C20.8296 23.0284 21.0757 23.5614 21.6258 24.1093C22.3062 24.7999 23.4643 25.4004 24.825 25.7156L25.0422 25.7682L25.1869 25.9483C25.5126 26.3686 25.5995 26.819 25.7298 27.457C25.8601 28.0951 25.9759 28.8907 26.0772 29.7914C26.2799 31.6004 26.4319 33.8447 26.5404 36.0365C26.5694 36.6821 26.5983 37.3201 26.6201 37.9431H28.7191C28.6322 33.9423 28.6757 29.4462 29.0955 24.7023C29.1027 23.779 29.0593 22.8783 28.777 22.1727C28.4947 21.4671 28.0242 20.9417 26.9675 20.5589C26.83 20.5064 26.7142 20.5589 26.6273 20.619ZM21.083 25.4154C21.083 25.6556 21.0902 25.8958 21.1047 26.136C21.1553 27.1568 21.3435 28.065 21.6258 28.4478L21.7633 28.6355L21.7344 37.9431H23.0227L23.1747 28.3878L23.3412 28.2001C23.7538 27.7348 23.9347 27.3369 24.065 26.9016C22.9142 26.5788 21.8791 26.0834 21.083 25.4154Z" fill="url(#paint0_linear_41_5100)"/>
<defs>
<linearGradient id="paint0_linear_41_5100" x1="5.16797" y1="19.8628" x2="48.668" y2="19.8628" gradientUnits="userSpaceOnUse">
<stop stop-color="#037CB6"/>
<stop offset="1" stop-color="#019789"/>
</linearGradient>
</defs>
</svg>
