<svg width="44" height="12" viewBox="0 0 44 12" fill="none" xmlns="http://www.w3.org/2000/svg">
<g clip-path="url(#clip0_41_7013)">
<path d="M3.79736 0.0258789L6.56493 4.84714L9.34338 0.0258789H3.79736Z" fill="#2B53A1"/>
<path d="M0 5.30315H5.5461L2.77821 0.481934L0 5.30315Z" fill="#2B53A1"/>
<path d="M13.1409 5.30279H7.59424L10.3734 0.481934L13.1409 5.30279Z" fill="#2B53A1"/>
<path d="M9.34338 11.4627H3.79736L6.57545 6.6416L9.34338 11.4627Z" fill="#2B53A1"/>
<path d="M7.59424 6.18555H13.1409L10.3618 11.0067L7.59424 6.18555Z" fill="#2B53A1"/>
<path d="M0 6.18555L2.76749 11.0067L5.54613 6.18555H0Z" fill="#2B53A1"/>
<path d="M15.3871 6.45762H15.0103V8.86569H15.3871V6.45762ZM17.7481 8.86569V6.45762H17.3695V8.09396L16.1828 6.45762H15.8959V8.86569H16.2729V7.22665L17.4629 8.86569H17.7481ZM19.037 8.89716C19.4275 8.89716 19.6864 8.84213 19.8144 8.73194C19.885 8.67142 19.9311 8.5911 19.9529 8.49185C19.9665 8.43181 19.9734 8.33898 19.9734 8.2135V8.15548C19.9734 8.02973 19.9666 7.93693 19.9529 7.87686C19.9311 7.77736 19.885 7.69752 19.8144 7.63648C19.6864 7.52686 19.4275 7.47175 19.037 7.47175C18.7391 7.47175 18.562 7.4475 18.5059 7.39933C18.487 7.38347 18.4778 7.30649 18.4778 7.16819V7.11158C18.4778 6.97336 18.487 6.89622 18.5059 6.8806C18.562 6.83251 18.7391 6.80818 19.037 6.80818C19.3349 6.80818 19.5121 6.83251 19.5681 6.8806C19.5861 6.89622 19.5947 6.97336 19.5947 7.11158V7.12425H19.9734V7.11158C19.9734 6.9851 19.9666 6.8915 19.9529 6.83174C19.9311 6.73205 19.8851 6.652 19.8144 6.59148C19.6865 6.48138 19.4275 6.42627 19.037 6.42627C18.6466 6.42627 18.3876 6.48138 18.2598 6.59148C18.1892 6.652 18.1431 6.73205 18.1214 6.83174C18.1078 6.89145 18.1009 6.9851 18.1009 7.11158V7.16819C18.1009 7.29366 18.1078 7.3869 18.1214 7.44629C18.1431 7.5457 18.1892 7.62659 18.2598 7.68864C18.3876 7.7975 18.6466 7.85188 19.037 7.85188C19.335 7.85188 19.5121 7.8769 19.5681 7.9258C19.5861 7.94173 19.5947 8.01807 19.5947 8.15552V8.21354C19.5947 8.35051 19.5861 8.42737 19.5681 8.44303C19.5122 8.49193 19.335 8.51694 19.037 8.51694C18.7391 8.51694 18.562 8.49193 18.5059 8.44303C18.487 8.42737 18.4778 8.35051 18.4778 8.21354V8.16767H18.1009V8.21185C18.1009 8.33865 18.1077 8.43185 18.1214 8.49189C18.1431 8.59114 18.1892 8.67146 18.2598 8.73198C18.3876 8.84213 18.6466 8.89716 19.037 8.89716ZM22.0366 6.45762H20.1859V6.83973H20.9227V8.86569H21.2999V6.83973H22.0366V6.45762ZM22.7819 6.45762H22.4049V8.86569H22.7819V6.45762ZM25.0009 6.45762H23.1505V6.83973H23.8872V8.86569H24.2644V6.83973H25.001L25.0009 6.45762ZM26.1965 8.89716C26.395 8.89716 26.5555 8.87884 26.678 8.84213C26.8462 8.79052 26.9695 8.70023 27.0489 8.57028C27.1338 8.43181 27.1762 8.14903 27.1762 7.72157V6.45766H26.7994V7.72157C26.7994 8.07657 26.7753 8.2929 26.7277 8.36879C26.6687 8.4676 26.4915 8.5169 26.1965 8.5169C25.9008 8.5169 25.7226 8.4676 25.6624 8.36879C25.6146 8.29137 25.5907 8.07459 25.5907 7.71834V6.45766H25.2137V7.71685C25.2137 8.14628 25.2565 8.4304 25.3417 8.56878C25.4753 8.78754 25.7605 8.89716 26.1965 8.89716ZM29.2397 6.45762H27.389V6.83973H28.1259V8.86569H28.5029V6.83973H29.2397V6.45762Z" fill="#2B53A1"/>
<path d="M15.0103 5.69632V3.24512H16.231C16.473 3.24512 16.6357 3.32351 16.7196 3.48001C16.7658 3.5655 16.7892 3.7145 16.7892 3.92664V3.95072C16.7892 4.05001 16.7751 4.14414 16.7464 4.23375C16.7091 4.34474 16.6598 4.4061 16.5974 4.41784C16.6762 4.43624 16.7364 4.50822 16.7765 4.63381C16.808 4.7308 16.8239 4.83889 16.8239 4.95698V4.98272C16.8239 5.2066 16.8003 5.36282 16.7526 5.4515C16.6651 5.61482 16.4942 5.69636 16.2405 5.69636H15.0103V5.69632ZM15.3938 4.24178H16.231C16.321 4.24178 16.3712 4.23149 16.382 4.21139C16.3964 4.18368 16.4039 4.0973 16.4039 3.95213V3.92522C16.4039 3.77986 16.3964 3.69352 16.382 3.66596C16.3712 3.64442 16.321 3.63361 16.231 3.63361H15.3938V4.24178ZM15.3938 5.30912H16.2405C16.3421 5.30912 16.4001 5.295 16.4151 5.26748C16.4319 5.23537 16.4401 5.14043 16.4401 4.98264V4.9569C16.4401 4.79911 16.4319 4.70406 16.4151 4.67234C16.4001 4.64455 16.3421 4.63047 16.2405 4.63047H15.3938V5.30912Z" fill="#2B53A1"/>
<path d="M17.2347 5.39527C17.148 5.25458 17.105 4.96655 17.105 4.53126V4.41148C17.105 3.97611 17.148 3.68808 17.2347 3.5474C17.3162 3.41389 17.4428 3.32174 17.6138 3.27063C17.7372 3.23238 17.9005 3.21289 18.1037 3.21289C18.5467 3.21289 18.8362 3.32428 18.9725 3.54744C19.0591 3.68812 19.1026 3.97712 19.1026 4.41446V4.52638C19.1026 4.96397 19.0591 5.25301 18.9725 5.39369C18.8913 5.52695 18.765 5.61979 18.5935 5.67196C18.4699 5.70907 18.3066 5.7282 18.1037 5.7282C17.661 5.7282 17.3712 5.61717 17.2347 5.39527ZM17.5614 3.75054C17.5126 3.82848 17.4886 4.04849 17.4886 4.41152V4.5313C17.4886 4.89288 17.5126 5.11244 17.5614 5.19031C17.6228 5.29097 17.8036 5.34092 18.1037 5.34092C18.404 5.34092 18.5846 5.29097 18.646 5.19031C18.6946 5.11156 18.7188 4.89038 18.7188 4.52638V4.41446C18.7188 4.05087 18.6946 3.82973 18.646 3.75187C18.5846 3.65177 18.404 3.6017 18.1037 3.6017C17.8036 3.60166 17.6229 3.65145 17.5614 3.75054Z" fill="#2B53A1"/>
<path d="M21.0622 5.69632H19.4199V3.24512H19.8035V5.30912H21.0622V5.69632Z" fill="#2B53A1"/>
<path d="M22.6095 3.63385H21.8596V5.69632H21.4759V3.63385H20.7261V3.24512H22.6095V3.63385Z" fill="#2B53A1"/>
<path d="M24.7338 5.69632H22.9806L22.833 5.37759L24.1759 3.63361H22.8901V3.24512H24.5881L24.7355 3.56514L23.3926 5.30912H24.7338V5.69632Z" fill="#2B53A1"/>
<path d="M25.4374 5.69632H25.0537V3.24512H25.393L26.2682 5.18558L27.1451 3.24512H27.4843V5.69632H27.0991V4.19526L26.4286 5.69632H26.1096L25.4374 4.19526V5.69632Z" fill="#2B53A1"/>
<path d="M29.3478 4.80646H28.2334V5.6962H27.8496V4.27366C27.8496 3.8907 27.8914 3.63575 27.9749 3.50887C28.1049 3.31178 28.3771 3.21289 28.7911 3.21289C29.2048 3.21289 29.4763 3.31178 29.6063 3.50887C29.6898 3.63575 29.7314 3.8907 29.7314 4.27366V5.6962H29.3478V4.80646ZM28.2334 4.41769H29.3478V4.27366C29.3478 3.96864 29.3274 3.78495 29.286 3.72318C29.2324 3.64245 29.0672 3.6017 28.7911 3.6017C28.5146 3.6017 28.3492 3.64245 28.2952 3.72318C28.2537 3.78495 28.2334 3.96864 28.2334 4.27366V4.41769Z" fill="#2B53A1"/>
<path d="M31.6437 5.69632L30.4324 4.02746V5.69632H30.0488V3.24512H30.3405L31.5488 4.91058V3.24512H31.9339V5.69632H31.6437Z" fill="#2B53A1"/>
<path d="M33.8463 5.69632L32.6346 4.02746V5.69632H32.251V3.24512H32.543L33.7511 4.91058V3.24512H34.1365V5.69632H33.8463Z" fill="#2B53A1"/>
<path d="M15.0103 0.0322266V2.48322H16.653V2.09627H15.3938V0.0322266H15.0103Z" fill="#2B53A1"/>
<path d="M16.9714 2.18087C16.8843 2.04023 16.8413 1.75119 16.8413 1.31368V0.0322266H17.2251V1.31518C17.2251 1.67784 17.2493 1.89878 17.2979 1.97765C17.3593 2.07787 17.5406 2.12822 17.8414 2.12822C18.1418 2.12822 18.3222 2.07783 18.3825 1.97765C18.431 1.89974 18.4552 1.68006 18.4552 1.31836V0.0322266H18.8389V1.31836C18.8389 1.7539 18.7956 2.0414 18.709 2.18233C18.6287 2.31438 18.5029 2.40697 18.3315 2.45918C18.2072 2.49638 18.0436 2.51498 17.8415 2.51498C17.3977 2.51498 17.1076 2.40378 16.9714 2.18087Z" fill="#2B53A1"/>
<path d="M19.1562 2.48322V0.0322266H20.0903C20.5091 0.0322266 20.7859 0.158629 20.9212 0.411193C20.9993 0.557285 21.0386 0.8322 21.0386 1.23541V1.27987C21.0386 1.68297 20.9993 1.95837 20.9212 2.10571C20.7859 2.35743 20.5091 2.48326 20.0903 2.48326L19.1562 2.48322ZM19.54 2.09627H20.0902C20.3567 2.09627 20.5208 2.0372 20.5835 1.91996C20.631 1.83156 20.6549 1.61829 20.6549 1.27983V1.23537C20.6549 0.898286 20.631 0.684656 20.5835 0.595088C20.5208 0.478893 20.3567 0.420795 20.0902 0.420795H19.54V2.09627Z" fill="#2B53A1"/>
<path d="M24.0837 0.0322266L23.5634 1.84294L23.0068 0.135915H22.6423L22.0858 1.84294L21.5658 0.0322266H21.1646L21.8781 2.48322H22.2809L22.8246 0.816263L23.3684 2.48322H23.7714L24.4846 0.0322266H24.0837Z" fill="#2B53A1"/>
<path d="M25.2014 0.0317383H24.8179V2.48302H25.2014V0.0317383Z" fill="#2B53A1"/>
<path d="M25.6503 2.13759C25.5722 1.99037 25.5327 1.71513 25.5327 1.312V1.20323C25.5327 0.799852 25.5722 0.525421 25.6503 0.379088C25.7856 0.126524 26.0626 0 26.481 0C26.7462 0 26.9475 0.0351007 27.0851 0.105827C27.2701 0.200841 27.3795 0.371139 27.4132 0.617248L27.0328 0.670222C27.0189 0.568994 26.9884 0.501779 26.9409 0.468776C26.866 0.415439 26.7125 0.388932 26.481 0.388932C26.216 0.388932 26.0516 0.446747 25.988 0.563346C25.9405 0.652631 25.9165 0.865979 25.9165 1.20327V1.31204C25.9165 1.65006 25.9406 1.8634 25.988 1.95208C26.0502 2.06917 26.2146 2.12775 26.481 2.12775C26.7074 2.12775 26.858 2.10233 26.9346 2.05117C26.9853 2.01813 27.0174 1.95349 27.0313 1.85743V1.45099H26.4747V1.06404H27.4147L27.4132 1.89745C27.3795 2.14381 27.2701 2.31435 27.085 2.40956C26.9474 2.47992 26.7462 2.51486 26.4809 2.51486C26.0626 2.5149 25.7856 2.38931 25.6503 2.13759Z" fill="#2B53A1"/>
<path d="M16.1798 10.7657H15.2345V11.4628H15.0083V10.3874C15.0083 10.0946 15.039 9.90196 15.1005 9.80932C15.1947 9.66626 15.3971 9.59473 15.7078 9.59473C16.0183 9.59473 16.2203 9.66626 16.3138 9.80932C16.3753 9.90196 16.406 10.0946 16.406 10.3874V11.4628H16.1798V10.7657ZM15.2345 10.5374H16.1798V10.3874C16.1806 10.141 16.1626 9.9904 16.1257 9.93585C16.0765 9.8606 15.9372 9.82296 15.7078 9.82296C15.4775 9.82296 15.3378 9.8606 15.2886 9.93585C15.2525 9.99044 15.2345 10.141 15.2345 10.3874V10.5374Z" fill="#2B53A1"/>
<path d="M16.8639 11.4626H16.6377V10.7978C16.6377 10.5654 16.6627 10.4112 16.7127 10.3351C16.7905 10.2168 16.954 10.1577 17.2031 10.1577H17.39V10.386H17.2031C17.0351 10.386 16.9347 10.4112 16.902 10.4616C16.8765 10.4996 16.8639 10.6117 16.8639 10.7978V11.4626Z" fill="#2B53A1"/>
<path d="M18.1564 10.3862H17.7237V10.8253C17.7237 11.0097 17.7361 11.1209 17.7606 11.159C17.7942 11.2094 17.895 11.2346 18.063 11.2346H18.1761V11.4629H18.063C17.8147 11.4629 17.6516 11.4038 17.5738 11.2855C17.5229 11.2094 17.4976 11.056 17.4976 10.8253V9.61963H17.7237V10.158H18.1564V10.3862Z" fill="#2B53A1"/>
<path d="M18.5187 11.4629H18.2925V9.61963H18.5187V10.2448C18.5899 10.1703 18.7031 10.1331 18.8579 10.1331C19.107 10.1331 19.2705 10.1923 19.3484 10.3105C19.3992 10.3866 19.4246 10.5408 19.4246 10.7732V11.4629H19.1984V10.7732C19.1984 10.5871 19.1857 10.4751 19.1603 10.437C19.1275 10.3866 19.0267 10.3614 18.8579 10.3614C18.6899 10.3614 18.5891 10.3866 18.5555 10.437C18.5309 10.4742 18.5187 10.5764 18.5187 10.7434V11.4629Z" fill="#2B53A1"/>
<path d="M19.8824 11.4626H19.6562V10.7978C19.6562 10.5654 19.6812 10.4112 19.7312 10.3351C19.8091 10.2168 19.9725 10.1577 20.2217 10.1577H20.4085V10.386H20.2217C20.0537 10.386 19.9533 10.4112 19.9205 10.4616C19.8951 10.4996 19.8824 10.6117 19.8824 10.7978V11.4626Z" fill="#2B53A1"/>
<path d="M20.7916 9.84786H20.5654V9.61963H20.7916V9.84786ZM20.7916 11.4629H20.5654V10.158H20.7916V11.4629Z" fill="#2B53A1"/>
<path d="M21.7316 10.3862H21.2989V10.8253C21.2989 11.0097 21.3112 11.1209 21.3358 11.159C21.3694 11.2094 21.4702 11.2346 21.6382 11.2346H21.7513V11.4629H21.6382C21.3899 11.4629 21.2268 11.4038 21.149 11.2855C21.0981 11.2094 21.0728 11.056 21.0728 10.8253V9.61963H21.2989V10.158H21.7316V10.3862Z" fill="#2B53A1"/>
<path d="M22.1427 9.84786H21.9165V9.61963H22.1427V9.84786ZM22.1427 11.4629H21.9165V10.158H22.1427V11.4629Z" fill="#2B53A1"/>
<path d="M22.65 11.1107C22.65 11.1769 22.6537 11.2128 22.6611 11.2186C22.6963 11.246 22.8057 11.2596 22.9893 11.2596C23.1728 11.2596 23.2826 11.246 23.3187 11.2186C23.3261 11.2128 23.3298 11.1773 23.3298 11.1119V11.0723C23.3298 11.0061 23.3261 10.9701 23.3187 10.9643C23.2835 10.9379 23.1737 10.9247 22.9893 10.9247C22.7557 10.9247 22.6012 10.8957 22.5259 10.8379C22.4587 10.7866 22.4246 10.6898 22.4238 10.5476V10.5104C22.4238 10.4409 22.4279 10.3897 22.4361 10.3566C22.4509 10.2987 22.4808 10.2528 22.5259 10.2189C22.6012 10.1618 22.7557 10.1333 22.9893 10.1333C23.2236 10.1333 23.3785 10.1618 23.4539 10.2189C23.5219 10.2702 23.556 10.3669 23.556 10.5091H23.3298C23.3298 10.443 23.3261 10.407 23.3187 10.4012C23.2835 10.3748 23.1737 10.3615 22.9893 10.3615C22.8057 10.3615 22.6963 10.3748 22.6611 10.4012C22.6537 10.407 22.65 10.4434 22.65 10.5103V10.5476C22.65 10.6137 22.6537 10.6497 22.6611 10.6555C22.6963 10.6828 22.8057 10.6964 22.9893 10.6964C23.2236 10.6964 23.3785 10.725 23.4539 10.782C23.5219 10.8333 23.556 10.93 23.556 11.0723V11.1119C23.556 11.1806 23.5514 11.2319 23.5424 11.2658C23.5285 11.322 23.499 11.3675 23.4539 11.4022C23.3785 11.4593 23.2236 11.4878 22.9893 11.4878C22.7557 11.4878 22.6012 11.4589 22.5259 11.401C22.4587 11.3497 22.4246 11.253 22.4238 11.1108H22.65V11.1107Z" fill="#2B53A1"/>
<path d="M24.5196 11.3101C24.4687 11.234 24.4434 11.0806 24.4434 10.8499V10.1577H24.6695V10.8499C24.6695 11.0343 24.6819 11.1455 24.7064 11.1835C24.74 11.234 24.8408 11.2592 25.0088 11.2592C25.1776 11.2592 25.2784 11.234 25.3112 11.1835C25.3366 11.1455 25.3493 11.0335 25.3493 10.8474V10.1577H25.5755V10.8474C25.5755 11.079 25.5501 11.2332 25.4992 11.3101C25.4214 11.4284 25.2579 11.4875 25.0088 11.4875C24.7605 11.4875 24.5974 11.4283 24.5196 11.3101Z" fill="#2B53A1"/>
<path d="M26.9397 11.463H26.7135V10.7733C26.7135 10.5873 26.7008 10.4752 26.6754 10.4372C26.6426 10.3868 26.5418 10.3615 26.373 10.3615C26.205 10.3615 26.1042 10.3863 26.0707 10.436C26.0461 10.474 26.0338 10.5857 26.0338 10.7709V11.463H25.8076V10.7709C25.8076 10.5393 25.833 10.3855 25.8838 10.3094C25.9617 10.192 26.1248 10.1333 26.373 10.1333C26.6222 10.1333 26.7857 10.1924 26.8635 10.3107C26.9143 10.3868 26.9397 10.541 26.9397 10.7733V11.463Z" fill="#2B53A1"/>
<path d="M28.3035 10.9493H28.3022C28.3006 11.1172 28.2756 11.2376 28.2273 11.3103C28.1494 11.4286 27.9859 11.4877 27.7368 11.4877C27.4885 11.4877 27.3254 11.4285 27.2476 11.3103C27.1968 11.2342 27.1714 11.0808 27.1714 10.8501V10.7707C27.1714 10.5392 27.1968 10.3854 27.2476 10.3093C27.3246 10.1919 27.4877 10.1331 27.7368 10.1331C27.8925 10.1331 28.006 10.1703 28.0773 10.2448V9.61963H28.3035V10.9493H28.3035ZM27.4344 10.4359C27.4098 10.4739 27.3976 10.5855 27.3976 10.7708V10.8502C27.3976 11.0346 27.4099 11.1458 27.4344 11.1838C27.468 11.2343 27.5688 11.2595 27.7368 11.2595C27.9056 11.2595 28.0064 11.2343 28.0392 11.1838C28.0646 11.1458 28.0773 11.0433 28.0773 10.8762V10.7435C28.0773 10.5765 28.0646 10.4743 28.0392 10.4371C28.0064 10.3867 27.9056 10.3615 27.7368 10.3615C27.5688 10.3614 27.468 10.3862 27.4344 10.4359Z" fill="#2B53A1"/>
<path d="M30.2972 11.4629L29.8879 10.6281H29.4171V11.4629H29.1909V9.61963H30.1091C30.2837 9.61963 30.4001 9.67422 30.4582 9.78339C30.491 9.8446 30.5074 9.95454 30.5074 10.1133V10.1344C30.5074 10.2932 30.491 10.4032 30.4582 10.4644C30.4025 10.5694 30.2964 10.624 30.1399 10.6281L30.5505 11.4629H30.2972ZM30.1091 10.3999C30.1935 10.3999 30.2439 10.385 30.2603 10.3552C30.2751 10.3279 30.2824 10.2543 30.2824 10.1344V10.1133C30.2824 9.99343 30.2751 9.91984 30.2603 9.89253C30.2439 9.86279 30.1935 9.8479 30.1091 9.8479H29.4171V10.3999H30.1091V10.3999Z" fill="#2B53A1"/>
<path d="M30.7798 11.3105C30.729 11.2344 30.7036 11.081 30.7036 10.8503V10.7709C30.7036 10.5393 30.729 10.3855 30.7798 10.3094C30.8569 10.192 31.0199 10.1333 31.269 10.1333C31.5182 10.1333 31.6817 10.1924 31.7595 10.3107C31.8103 10.3868 31.8357 10.541 31.8357 10.7733V10.8974H30.9298C30.9323 11.0537 30.9445 11.1492 30.9667 11.1839C31.0002 11.2344 31.101 11.2596 31.269 11.2596C31.4026 11.2596 31.4928 11.2443 31.5395 11.2137C31.5681 11.1955 31.587 11.1616 31.596 11.112L31.8185 11.1542C31.7939 11.2873 31.7271 11.3795 31.6182 11.4307C31.5378 11.4688 31.4215 11.4878 31.269 11.4878C31.0208 11.4879 30.8577 11.4287 30.7798 11.3105ZM31.6084 10.6965C31.6067 10.5584 31.5944 10.472 31.5715 10.4372C31.5387 10.3868 31.4379 10.3616 31.2691 10.3616C31.1011 10.3616 31.0003 10.3863 30.9667 10.436C30.9438 10.4716 30.9315 10.5584 30.9299 10.6965H31.6084Z" fill="#2B53A1"/>
<path d="M32.2936 11.4629H32.0674V9.61963H32.2936V10.2448C32.3648 10.1703 32.478 10.1331 32.6328 10.1331C32.8819 10.1331 33.0454 10.1923 33.1233 10.3105C33.1741 10.3866 33.1995 10.5408 33.1995 10.7732V11.4629H32.9733V10.7732C32.9733 10.5871 32.9606 10.4751 32.9352 10.437C32.9024 10.3866 32.8016 10.3614 32.6328 10.3614C32.4648 10.3614 32.364 10.3866 32.3304 10.437C32.3058 10.4742 32.2936 10.5764 32.2936 10.7434V11.4629Z" fill="#2B53A1"/>
<path d="M34.5638 11.463H34.3376V11.3228C34.2761 11.4328 34.1626 11.4878 33.9971 11.4878C33.7479 11.4878 33.5845 11.4287 33.5066 11.3105C33.4566 11.2336 33.4316 11.0793 33.4316 10.8478V10.7733C33.4316 10.541 33.4566 10.3868 33.5066 10.3107C33.5845 10.1924 33.7479 10.1333 33.9971 10.1333C34.2462 10.1333 34.4097 10.192 34.4875 10.3094C34.5359 10.3822 34.5609 10.5029 34.5625 10.6716H34.5637L34.5638 11.463ZM34.3376 10.7274C34.3368 10.5703 34.3241 10.4731 34.2995 10.4359C34.2667 10.3863 34.1659 10.3615 33.9971 10.3615C33.8291 10.3615 33.7287 10.3867 33.696 10.4371C33.6705 10.4752 33.6579 10.5872 33.6579 10.7733V10.8477C33.6579 11.0338 33.6705 11.1459 33.696 11.1839C33.7287 11.2343 33.8291 11.2595 33.9971 11.2595C34.1659 11.2595 34.2667 11.2219 34.2995 11.1467C34.3241 11.1095 34.3368 11.0123 34.3376 10.8552V10.7274Z" fill="#2B53A1"/>
<path d="M34.7954 9.61963H35.0216V10.2448C35.0929 10.1703 35.206 10.1331 35.3608 10.1331C35.61 10.1331 35.7735 10.1923 35.8513 10.3105C35.9021 10.3866 35.9275 10.5408 35.9275 10.7732V10.8476C35.9275 11.0792 35.9021 11.2334 35.8513 11.3103C35.7735 11.4286 35.61 11.4877 35.3608 11.4877C35.1117 11.4877 34.9482 11.4285 34.8704 11.3103C34.8229 11.2375 34.7979 11.1172 34.7954 10.9493V9.61963ZM35.0585 10.4371C35.0339 10.4743 35.0216 10.5764 35.0216 10.7435V10.8762C35.0216 11.0433 35.0343 11.1458 35.0597 11.1838C35.0925 11.2343 35.1929 11.2595 35.3609 11.2595C35.5297 11.2595 35.6305 11.2343 35.6633 11.1838C35.6887 11.1458 35.7014 11.0337 35.7014 10.8477V10.7732C35.7014 10.5872 35.6887 10.4751 35.6633 10.4371C35.6305 10.3866 35.5297 10.3614 35.3609 10.3614C35.1929 10.3614 35.0921 10.3866 35.0585 10.4371Z" fill="#2B53A1"/>
<path d="M36.4347 9.84786H36.2085V9.61963H36.4347V9.84786ZM36.4347 11.4629H36.2085V10.158H36.4347V11.4629Z" fill="#2B53A1"/>
<path d="M37.3179 11.4629C37.0687 11.4629 36.9053 11.4038 36.8274 11.2855C36.7774 11.2086 36.7524 11.0544 36.7524 10.8228V9.61963H36.9786V10.8228C36.9786 11.0088 36.9913 11.121 37.0167 11.159C37.0495 11.2094 37.1499 11.2346 37.3179 11.2346V11.4629Z" fill="#2B53A1"/>
<path d="M37.7135 9.84786H37.4873V9.61963H37.7135V9.84786ZM37.7135 11.4629H37.4873V10.158H37.7135V11.4629Z" fill="#2B53A1"/>
<path d="M38.653 10.3862H38.2203V10.8253C38.2203 11.0097 38.2326 11.1209 38.2572 11.159C38.2908 11.2094 38.3916 11.2346 38.5596 11.2346H38.6727V11.4629H38.5596C38.3113 11.4629 38.1482 11.4038 38.0703 11.2855C38.0196 11.2094 37.9941 11.056 37.9941 10.8253V9.61963H38.2204V10.158H38.653L38.653 10.3862Z" fill="#2B53A1"/>
<path d="M39.9212 11.463H39.6951V11.3228C39.6336 11.4328 39.5201 11.4878 39.3545 11.4878C39.1054 11.4878 38.9419 11.4287 38.8641 11.3105C38.8141 11.2336 38.7891 11.0793 38.7891 10.8478V10.7733C38.7891 10.541 38.8141 10.3868 38.8641 10.3107C38.9419 10.1924 39.1054 10.1333 39.3545 10.1333C39.6037 10.1333 39.7671 10.192 39.845 10.3094C39.8934 10.3822 39.9184 10.5029 39.92 10.6716H39.9212V11.463ZM39.695 10.7274C39.6942 10.5703 39.6815 10.4731 39.6569 10.4359C39.6241 10.3863 39.5233 10.3615 39.3545 10.3615C39.1865 10.3615 39.0861 10.3867 39.0534 10.4371C39.028 10.4752 39.0153 10.5872 39.0153 10.7733V10.8477C39.0153 11.0338 39.028 11.1459 39.0534 11.1839C39.0861 11.2343 39.1865 11.2595 39.3545 11.2595C39.5234 11.2595 39.6241 11.2219 39.6569 11.1467C39.6815 11.1095 39.6942 11.0123 39.695 10.8552V10.7274Z" fill="#2B53A1"/>
<path d="M40.8117 10.3862H40.379V10.8253C40.379 11.0097 40.3913 11.1209 40.4159 11.159C40.4495 11.2094 40.5502 11.2346 40.7183 11.2346H40.8314V11.4629H40.7183C40.47 11.4629 40.3069 11.4038 40.229 11.2855C40.1782 11.2094 40.1528 11.056 40.1528 10.8253V9.61963H40.379V10.158H40.8117L40.8117 10.3862Z" fill="#2B53A1"/>
<path d="M41.2232 9.84786H40.9971V9.61963H41.2232V9.84786ZM41.2232 11.4629H40.9971V10.158H41.2232V11.4629Z" fill="#2B53A1"/>
<path d="M41.5789 11.3105C41.5289 11.2336 41.5039 11.0793 41.5039 10.8478V10.7733C41.5039 10.541 41.5289 10.3868 41.5789 10.3107C41.6567 10.1924 41.8202 10.1333 42.0694 10.1333C42.3185 10.1333 42.482 10.192 42.5599 10.3094C42.6107 10.3855 42.6361 10.5393 42.6361 10.7709V10.8503C42.6361 11.081 42.6106 11.2344 42.5599 11.3105C42.482 11.4287 42.3185 11.4878 42.0694 11.4878C41.8202 11.4878 41.6567 11.4287 41.5789 11.3105ZM41.7682 10.4372C41.7428 10.4753 41.7301 10.5873 41.7301 10.7734V10.8478C41.7301 11.0339 41.7428 11.1459 41.7682 11.1839C41.8009 11.2344 41.9013 11.2596 42.0693 11.2596C42.2382 11.2596 42.3389 11.2344 42.3717 11.1839C42.3971 11.1459 42.4098 11.0347 42.4098 10.8503V10.7709C42.4098 10.5857 42.3971 10.474 42.3717 10.436C42.3389 10.3863 42.2381 10.3615 42.0693 10.3615C41.9013 10.3616 41.8009 10.3868 41.7682 10.4372Z" fill="#2B53A1"/>
<path d="M43.9998 11.463H43.7736V10.7733C43.7736 10.5873 43.7609 10.4752 43.7355 10.4372C43.7027 10.3868 43.602 10.3615 43.4331 10.3615C43.2651 10.3615 43.1643 10.3863 43.1308 10.436C43.1062 10.474 43.0939 10.5857 43.0939 10.7709V11.463H42.8677V10.7709C42.8677 10.5393 42.8931 10.3855 42.9439 10.3094C43.0217 10.192 43.1848 10.1333 43.4331 10.1333C43.6822 10.1333 43.8457 10.1924 43.9236 10.3107C43.9744 10.3868 43.9998 10.541 43.9998 10.7733V11.463Z" fill="#2B53A1"/>
<path d="M3.79736 0.0258789L6.56493 4.84714L9.34338 0.0258789H3.79736Z" fill="#004A9B"/>
<path d="M0 5.30315H5.5461L2.77821 0.481934L0 5.30315Z" fill="#004A9B"/>
<path d="M13.1409 5.30279H7.59424L10.3734 0.481934L13.1409 5.30279Z" fill="#004A9B"/>
<path d="M9.34338 11.4627H3.79736L6.57545 6.6416L9.34338 11.4627Z" fill="#B9AEBB"/>
<path d="M7.59424 6.18555H13.1409L10.3618 11.0067L7.59424 6.18555Z" fill="#004A9B"/>
<path d="M0 6.18555L2.76749 11.0067L5.54613 6.18555H0Z" fill="#004A9B"/>
<path d="M15.3871 6.45762H15.0103V8.86569H15.3871V6.45762ZM17.7481 8.86569V6.45762H17.3695V8.09396L16.1828 6.45762H15.8959V8.86569H16.2729V7.22665L17.4629 8.86569H17.7481ZM19.037 8.89716C19.4275 8.89716 19.6864 8.84213 19.8144 8.73194C19.885 8.67142 19.9311 8.5911 19.9529 8.49185C19.9665 8.43181 19.9734 8.33898 19.9734 8.2135V8.15548C19.9734 8.02973 19.9666 7.93693 19.9529 7.87686C19.9311 7.77736 19.885 7.69752 19.8144 7.63648C19.6864 7.52686 19.4275 7.47175 19.037 7.47175C18.7391 7.47175 18.562 7.4475 18.5059 7.39933C18.487 7.38347 18.4778 7.30649 18.4778 7.16819V7.11158C18.4778 6.97336 18.487 6.89622 18.5059 6.8806C18.562 6.83251 18.7391 6.80818 19.037 6.80818C19.3349 6.80818 19.5121 6.83251 19.5681 6.8806C19.5861 6.89622 19.5947 6.97336 19.5947 7.11158V7.12425H19.9734V7.11158C19.9734 6.9851 19.9666 6.8915 19.9529 6.83174C19.9311 6.73205 19.8851 6.652 19.8144 6.59148C19.6865 6.48138 19.4275 6.42627 19.037 6.42627C18.6466 6.42627 18.3876 6.48138 18.2598 6.59148C18.1892 6.652 18.1431 6.73205 18.1214 6.83174C18.1078 6.89145 18.1009 6.9851 18.1009 7.11158V7.16819C18.1009 7.29366 18.1078 7.3869 18.1214 7.44629C18.1431 7.5457 18.1892 7.62659 18.2598 7.68864C18.3876 7.7975 18.6466 7.85188 19.037 7.85188C19.335 7.85188 19.5121 7.8769 19.5681 7.9258C19.5861 7.94173 19.5947 8.01807 19.5947 8.15552V8.21354C19.5947 8.35051 19.5861 8.42737 19.5681 8.44303C19.5122 8.49193 19.335 8.51694 19.037 8.51694C18.7391 8.51694 18.562 8.49193 18.5059 8.44303C18.487 8.42737 18.4778 8.35051 18.4778 8.21354V8.16767H18.1009V8.21185C18.1009 8.33865 18.1077 8.43185 18.1214 8.49189C18.1431 8.59114 18.1892 8.67146 18.2598 8.73198C18.3876 8.84213 18.6466 8.89716 19.037 8.89716ZM22.0366 6.45762H20.1859V6.83973H20.9227V8.86569H21.2999V6.83973H22.0366V6.45762ZM22.7819 6.45762H22.4049V8.86569H22.7819V6.45762ZM25.0009 6.45762H23.1505V6.83973H23.8872V8.86569H24.2644V6.83973H25.001L25.0009 6.45762ZM26.1965 8.89716C26.395 8.89716 26.5555 8.87884 26.678 8.84213C26.8462 8.79052 26.9695 8.70023 27.0489 8.57028C27.1338 8.43181 27.1762 8.14903 27.1762 7.72157V6.45766H26.7994V7.72157C26.7994 8.07657 26.7753 8.2929 26.7277 8.36879C26.6687 8.4676 26.4915 8.5169 26.1965 8.5169C25.9008 8.5169 25.7226 8.4676 25.6624 8.36879C25.6146 8.29137 25.5907 8.07459 25.5907 7.71834V6.45766H25.2137V7.71685C25.2137 8.14628 25.2565 8.4304 25.3417 8.56878C25.4753 8.78754 25.7605 8.89716 26.1965 8.89716ZM29.2397 6.45762H27.389V6.83973H28.1259V8.86569H28.5029V6.83973H29.2397V6.45762Z" fill="#B9AEBB"/>
<path d="M15.0103 5.69632V3.24512H16.231C16.473 3.24512 16.6357 3.32351 16.7196 3.48001C16.7658 3.5655 16.7892 3.7145 16.7892 3.92664V3.95072C16.7892 4.05001 16.7751 4.14414 16.7464 4.23375C16.7091 4.34474 16.6598 4.4061 16.5974 4.41784C16.6762 4.43624 16.7364 4.50822 16.7765 4.63381C16.808 4.7308 16.8239 4.83889 16.8239 4.95698V4.98272C16.8239 5.2066 16.8003 5.36282 16.7526 5.4515C16.6651 5.61482 16.4942 5.69636 16.2405 5.69636H15.0103V5.69632ZM15.3938 4.24178H16.231C16.321 4.24178 16.3712 4.23149 16.382 4.21139C16.3964 4.18368 16.4039 4.0973 16.4039 3.95213V3.92522C16.4039 3.77986 16.3964 3.69352 16.382 3.66596C16.3712 3.64442 16.321 3.63361 16.231 3.63361H15.3938V4.24178ZM15.3938 5.30912H16.2405C16.3421 5.30912 16.4001 5.295 16.4151 5.26748C16.4319 5.23537 16.4401 5.14043 16.4401 4.98264V4.9569C16.4401 4.79911 16.4319 4.70406 16.4151 4.67234C16.4001 4.64455 16.3421 4.63047 16.2405 4.63047H15.3938V5.30912Z" fill="#B9AEBB"/>
<path d="M17.2347 5.39527C17.148 5.25458 17.105 4.96655 17.105 4.53126V4.41148C17.105 3.97611 17.148 3.68808 17.2347 3.5474C17.3162 3.41389 17.4428 3.32174 17.6138 3.27063C17.7372 3.23238 17.9005 3.21289 18.1037 3.21289C18.5467 3.21289 18.8362 3.32428 18.9725 3.54744C19.0591 3.68812 19.1026 3.97712 19.1026 4.41446V4.52638C19.1026 4.96397 19.0591 5.25301 18.9725 5.39369C18.8913 5.52695 18.765 5.61979 18.5935 5.67196C18.4699 5.70907 18.3066 5.7282 18.1037 5.7282C17.661 5.7282 17.3712 5.61717 17.2347 5.39527ZM17.5614 3.75054C17.5126 3.82848 17.4886 4.04849 17.4886 4.41152V4.5313C17.4886 4.89288 17.5126 5.11244 17.5614 5.19031C17.6228 5.29097 17.8036 5.34092 18.1037 5.34092C18.404 5.34092 18.5846 5.29097 18.646 5.19031C18.6946 5.11156 18.7188 4.89038 18.7188 4.52638V4.41446C18.7188 4.05087 18.6946 3.82973 18.646 3.75187C18.5846 3.65177 18.404 3.6017 18.1037 3.6017C17.8036 3.60166 17.6229 3.65145 17.5614 3.75054Z" fill="#B9AEBB"/>
<path d="M21.0622 5.69632H19.4199V3.24512H19.8035V5.30912H21.0622V5.69632Z" fill="#B9AEBB"/>
<path d="M22.6095 3.63385H21.8596V5.69632H21.4759V3.63385H20.7261V3.24512H22.6095V3.63385Z" fill="#B9AEBB"/>
<path d="M24.7338 5.69632H22.9806L22.833 5.37759L24.1759 3.63361H22.8901V3.24512H24.5881L24.7355 3.56514L23.3926 5.30912H24.7338V5.69632Z" fill="#B9AEBB"/>
<path d="M25.4374 5.69632H25.0537V3.24512H25.393L26.2682 5.18558L27.1451 3.24512H27.4843V5.69632H27.0991V4.19526L26.4286 5.69632H26.1096L25.4374 4.19526V5.69632Z" fill="#B9AEBB"/>
<path d="M29.3478 4.80646H28.2334V5.6962H27.8496V4.27366C27.8496 3.8907 27.8914 3.63575 27.9749 3.50887C28.1049 3.31178 28.3771 3.21289 28.7911 3.21289C29.2048 3.21289 29.4763 3.31178 29.6063 3.50887C29.6898 3.63575 29.7314 3.8907 29.7314 4.27366V5.6962H29.3478V4.80646ZM28.2334 4.41769H29.3478V4.27366C29.3478 3.96864 29.3274 3.78495 29.286 3.72318C29.2324 3.64245 29.0672 3.6017 28.7911 3.6017C28.5146 3.6017 28.3492 3.64245 28.2952 3.72318C28.2537 3.78495 28.2334 3.96864 28.2334 4.27366V4.41769Z" fill="#B9AEBB"/>
<path d="M31.6437 5.69632L30.4324 4.02746V5.69632H30.0488V3.24512H30.3405L31.5488 4.91058V3.24512H31.9339V5.69632H31.6437Z" fill="#B9AEBB"/>
<path d="M33.8463 5.69632L32.6346 4.02746V5.69632H32.251V3.24512H32.543L33.7511 4.91058V3.24512H34.1365V5.69632H33.8463Z" fill="#B9AEBB"/>
<path d="M15.0103 0.0322266V2.48322H16.653V2.09627H15.3938V0.0322266H15.0103Z" fill="#B9AEBB"/>
<path d="M16.9714 2.18087C16.8843 2.04023 16.8413 1.75119 16.8413 1.31368V0.0322266H17.2251V1.31518C17.2251 1.67784 17.2493 1.89878 17.2979 1.97765C17.3593 2.07787 17.5406 2.12822 17.8414 2.12822C18.1418 2.12822 18.3222 2.07783 18.3825 1.97765C18.431 1.89974 18.4552 1.68006 18.4552 1.31836V0.0322266H18.8389V1.31836C18.8389 1.7539 18.7956 2.0414 18.709 2.18233C18.6287 2.31438 18.5029 2.40697 18.3315 2.45918C18.2072 2.49638 18.0436 2.51498 17.8415 2.51498C17.3977 2.51498 17.1076 2.40378 16.9714 2.18087Z" fill="#B9AEBB"/>
<path d="M19.1562 2.48322V0.0322266H20.0903C20.5091 0.0322266 20.7859 0.158629 20.9212 0.411193C20.9993 0.557285 21.0386 0.8322 21.0386 1.23541V1.27987C21.0386 1.68297 20.9993 1.95837 20.9212 2.10571C20.7859 2.35743 20.5091 2.48326 20.0903 2.48326L19.1562 2.48322ZM19.54 2.09627H20.0902C20.3567 2.09627 20.5208 2.0372 20.5835 1.91996C20.631 1.83156 20.6549 1.61829 20.6549 1.27983V1.23537C20.6549 0.898286 20.631 0.684656 20.5835 0.595088C20.5208 0.478893 20.3567 0.420795 20.0902 0.420795H19.54V2.09627Z" fill="#B9AEBB"/>
<path d="M24.0837 0.0322266L23.5634 1.84294L23.0068 0.135915H22.6423L22.0858 1.84294L21.5658 0.0322266H21.1646L21.8781 2.48322H22.2809L22.8246 0.816263L23.3684 2.48322H23.7714L24.4846 0.0322266H24.0837Z" fill="#B9AEBB"/>
<path d="M25.2014 0.0317383H24.8179V2.48302H25.2014V0.0317383Z" fill="#B9AEBB"/>
<path d="M25.6503 2.13759C25.5722 1.99037 25.5327 1.71513 25.5327 1.312V1.20323C25.5327 0.799852 25.5722 0.525421 25.6503 0.379088C25.7856 0.126524 26.0626 0 26.481 0C26.7462 0 26.9475 0.0351007 27.0851 0.105827C27.2701 0.200841 27.3795 0.371139 27.4132 0.617248L27.0328 0.670222C27.0189 0.568994 26.9884 0.501779 26.9409 0.468776C26.866 0.415439 26.7125 0.388932 26.481 0.388932C26.216 0.388932 26.0516 0.446747 25.988 0.563346C25.9405 0.652631 25.9165 0.865979 25.9165 1.20327V1.31204C25.9165 1.65006 25.9406 1.8634 25.988 1.95208C26.0502 2.06917 26.2146 2.12775 26.481 2.12775C26.7074 2.12775 26.858 2.10233 26.9346 2.05117C26.9853 2.01813 27.0174 1.95349 27.0313 1.85743V1.45099H26.4747V1.06404H27.4147L27.4132 1.89745C27.3795 2.14381 27.2701 2.31435 27.085 2.40956C26.9474 2.47992 26.7462 2.51486 26.4809 2.51486C26.0626 2.5149 25.7856 2.38931 25.6503 2.13759Z" fill="#B9AEBB"/>
<path d="M16.1798 10.7657H15.2345V11.4628H15.0083V10.3874C15.0083 10.0946 15.039 9.90196 15.1005 9.80932C15.1947 9.66626 15.3971 9.59473 15.7078 9.59473C16.0183 9.59473 16.2203 9.66626 16.3138 9.80932C16.3753 9.90196 16.406 10.0946 16.406 10.3874V11.4628H16.1798V10.7657ZM15.2345 10.5374H16.1798V10.3874C16.1806 10.141 16.1626 9.9904 16.1257 9.93585C16.0765 9.8606 15.9372 9.82296 15.7078 9.82296C15.4775 9.82296 15.3378 9.8606 15.2886 9.93585C15.2525 9.99044 15.2345 10.141 15.2345 10.3874V10.5374Z" fill="#004A9B"/>
<path d="M16.8639 11.4626H16.6377V10.7978C16.6377 10.5654 16.6627 10.4112 16.7127 10.3351C16.7905 10.2168 16.954 10.1577 17.2031 10.1577H17.39V10.386H17.2031C17.0351 10.386 16.9347 10.4112 16.902 10.4616C16.8765 10.4996 16.8639 10.6117 16.8639 10.7978V11.4626Z" fill="#004A9B"/>
<path d="M18.1564 10.3862H17.7237V10.8253C17.7237 11.0097 17.7361 11.1209 17.7606 11.159C17.7942 11.2094 17.895 11.2346 18.063 11.2346H18.1761V11.4629H18.063C17.8147 11.4629 17.6516 11.4038 17.5738 11.2855C17.5229 11.2094 17.4976 11.056 17.4976 10.8253V9.61963H17.7237V10.158H18.1564V10.3862Z" fill="#004A9B"/>
<path d="M18.5187 11.4629H18.2925V9.61963H18.5187V10.2448C18.5899 10.1703 18.7031 10.1331 18.8579 10.1331C19.107 10.1331 19.2705 10.1923 19.3484 10.3105C19.3992 10.3866 19.4246 10.5408 19.4246 10.7732V11.4629H19.1984V10.7732C19.1984 10.5871 19.1857 10.4751 19.1603 10.437C19.1275 10.3866 19.0267 10.3614 18.8579 10.3614C18.6899 10.3614 18.5891 10.3866 18.5555 10.437C18.5309 10.4742 18.5187 10.5764 18.5187 10.7434V11.4629Z" fill="#004A9B"/>
<path d="M19.8824 11.4626H19.6562V10.7978C19.6562 10.5654 19.6812 10.4112 19.7312 10.3351C19.8091 10.2168 19.9725 10.1577 20.2217 10.1577H20.4085V10.386H20.2217C20.0537 10.386 19.9533 10.4112 19.9205 10.4616C19.8951 10.4996 19.8824 10.6117 19.8824 10.7978V11.4626Z" fill="#004A9B"/>
<path d="M20.7916 9.84786H20.5654V9.61963H20.7916V9.84786ZM20.7916 11.4629H20.5654V10.158H20.7916V11.4629Z" fill="#004A9B"/>
<path d="M21.7316 10.3862H21.2989V10.8253C21.2989 11.0097 21.3112 11.1209 21.3358 11.159C21.3694 11.2094 21.4702 11.2346 21.6382 11.2346H21.7513V11.4629H21.6382C21.3899 11.4629 21.2268 11.4038 21.149 11.2855C21.0981 11.2094 21.0728 11.056 21.0728 10.8253V9.61963H21.2989V10.158H21.7316V10.3862Z" fill="#004A9B"/>
<path d="M22.1427 9.84786H21.9165V9.61963H22.1427V9.84786ZM22.1427 11.4629H21.9165V10.158H22.1427V11.4629Z" fill="#004A9B"/>
<path d="M22.65 11.1107C22.65 11.1769 22.6537 11.2128 22.6611 11.2186C22.6963 11.246 22.8057 11.2596 22.9893 11.2596C23.1728 11.2596 23.2826 11.246 23.3187 11.2186C23.3261 11.2128 23.3298 11.1773 23.3298 11.1119V11.0723C23.3298 11.0061 23.3261 10.9701 23.3187 10.9643C23.2835 10.9379 23.1737 10.9247 22.9893 10.9247C22.7557 10.9247 22.6012 10.8957 22.5259 10.8379C22.4587 10.7866 22.4246 10.6898 22.4238 10.5476V10.5104C22.4238 10.4409 22.4279 10.3897 22.4361 10.3566C22.4509 10.2987 22.4808 10.2528 22.5259 10.2189C22.6012 10.1618 22.7557 10.1333 22.9893 10.1333C23.2236 10.1333 23.3785 10.1618 23.4539 10.2189C23.5219 10.2702 23.556 10.3669 23.556 10.5091H23.3298C23.3298 10.443 23.3261 10.407 23.3187 10.4012C23.2835 10.3748 23.1737 10.3615 22.9893 10.3615C22.8057 10.3615 22.6963 10.3748 22.6611 10.4012C22.6537 10.407 22.65 10.4434 22.65 10.5103V10.5476C22.65 10.6137 22.6537 10.6497 22.6611 10.6555C22.6963 10.6828 22.8057 10.6964 22.9893 10.6964C23.2236 10.6964 23.3785 10.725 23.4539 10.782C23.5219 10.8333 23.556 10.93 23.556 11.0723V11.1119C23.556 11.1806 23.5514 11.2319 23.5424 11.2658C23.5285 11.322 23.499 11.3675 23.4539 11.4022C23.3785 11.4593 23.2236 11.4878 22.9893 11.4878C22.7557 11.4878 22.6012 11.4589 22.5259 11.401C22.4587 11.3497 22.4246 11.253 22.4238 11.1108H22.65V11.1107Z" fill="#004A9B"/>
<path d="M24.5196 11.3101C24.4687 11.234 24.4434 11.0806 24.4434 10.8499V10.1577H24.6695V10.8499C24.6695 11.0343 24.6819 11.1455 24.7064 11.1835C24.74 11.234 24.8408 11.2592 25.0088 11.2592C25.1776 11.2592 25.2784 11.234 25.3112 11.1835C25.3366 11.1455 25.3493 11.0335 25.3493 10.8474V10.1577H25.5755V10.8474C25.5755 11.079 25.5501 11.2332 25.4992 11.3101C25.4214 11.4284 25.2579 11.4875 25.0088 11.4875C24.7605 11.4875 24.5974 11.4283 24.5196 11.3101Z" fill="#004A9B"/>
<path d="M26.9397 11.463H26.7135V10.7733C26.7135 10.5873 26.7008 10.4752 26.6754 10.4372C26.6426 10.3868 26.5418 10.3615 26.373 10.3615C26.205 10.3615 26.1042 10.3863 26.0707 10.436C26.0461 10.474 26.0338 10.5857 26.0338 10.7709V11.463H25.8076V10.7709C25.8076 10.5393 25.833 10.3855 25.8838 10.3094C25.9617 10.192 26.1248 10.1333 26.373 10.1333C26.6222 10.1333 26.7857 10.1924 26.8635 10.3107C26.9143 10.3868 26.9397 10.541 26.9397 10.7733V11.463Z" fill="#004A9B"/>
<path d="M28.3035 10.9493H28.3022C28.3006 11.1172 28.2756 11.2376 28.2273 11.3103C28.1494 11.4286 27.9859 11.4877 27.7368 11.4877C27.4885 11.4877 27.3254 11.4285 27.2476 11.3103C27.1968 11.2342 27.1714 11.0808 27.1714 10.8501V10.7707C27.1714 10.5392 27.1968 10.3854 27.2476 10.3093C27.3246 10.1919 27.4877 10.1331 27.7368 10.1331C27.8925 10.1331 28.006 10.1703 28.0773 10.2448V9.61963H28.3035V10.9493H28.3035ZM27.4344 10.4359C27.4098 10.4739 27.3976 10.5855 27.3976 10.7708V10.8502C27.3976 11.0346 27.4099 11.1458 27.4344 11.1838C27.468 11.2343 27.5688 11.2595 27.7368 11.2595C27.9056 11.2595 28.0064 11.2343 28.0392 11.1838C28.0646 11.1458 28.0773 11.0433 28.0773 10.8762V10.7435C28.0773 10.5765 28.0646 10.4743 28.0392 10.4371C28.0064 10.3867 27.9056 10.3615 27.7368 10.3615C27.5688 10.3614 27.468 10.3862 27.4344 10.4359Z" fill="#004A9B"/>
<path d="M30.2972 11.4629L29.8879 10.6281H29.4171V11.4629H29.1909V9.61963H30.1091C30.2837 9.61963 30.4001 9.67422 30.4582 9.78339C30.491 9.8446 30.5074 9.95454 30.5074 10.1133V10.1344C30.5074 10.2932 30.491 10.4032 30.4582 10.4644C30.4025 10.5694 30.2964 10.624 30.1399 10.6281L30.5505 11.4629H30.2972ZM30.1091 10.3999C30.1935 10.3999 30.2439 10.385 30.2603 10.3552C30.2751 10.3279 30.2824 10.2543 30.2824 10.1344V10.1133C30.2824 9.99343 30.2751 9.91984 30.2603 9.89253C30.2439 9.86279 30.1935 9.8479 30.1091 9.8479H29.4171V10.3999H30.1091V10.3999Z" fill="#004A9B"/>
<path d="M30.7798 11.3105C30.729 11.2344 30.7036 11.081 30.7036 10.8503V10.7709C30.7036 10.5393 30.729 10.3855 30.7798 10.3094C30.8569 10.192 31.0199 10.1333 31.269 10.1333C31.5182 10.1333 31.6817 10.1924 31.7595 10.3107C31.8103 10.3868 31.8357 10.541 31.8357 10.7733V10.8974H30.9298C30.9323 11.0537 30.9445 11.1492 30.9667 11.1839C31.0002 11.2344 31.101 11.2596 31.269 11.2596C31.4026 11.2596 31.4928 11.2443 31.5395 11.2137C31.5681 11.1955 31.587 11.1616 31.596 11.112L31.8185 11.1542C31.7939 11.2873 31.7271 11.3795 31.6182 11.4307C31.5378 11.4688 31.4215 11.4878 31.269 11.4878C31.0208 11.4879 30.8577 11.4287 30.7798 11.3105ZM31.6084 10.6965C31.6067 10.5584 31.5944 10.472 31.5715 10.4372C31.5387 10.3868 31.4379 10.3616 31.2691 10.3616C31.1011 10.3616 31.0003 10.3863 30.9667 10.436C30.9438 10.4716 30.9315 10.5584 30.9299 10.6965H31.6084Z" fill="#004A9B"/>
<path d="M32.2936 11.4629H32.0674V9.61963H32.2936V10.2448C32.3648 10.1703 32.478 10.1331 32.6328 10.1331C32.8819 10.1331 33.0454 10.1923 33.1233 10.3105C33.1741 10.3866 33.1995 10.5408 33.1995 10.7732V11.4629H32.9733V10.7732C32.9733 10.5871 32.9606 10.4751 32.9352 10.437C32.9024 10.3866 32.8016 10.3614 32.6328 10.3614C32.4648 10.3614 32.364 10.3866 32.3304 10.437C32.3058 10.4742 32.2936 10.5764 32.2936 10.7434V11.4629Z" fill="#004A9B"/>
<path d="M34.5638 11.463H34.3376V11.3228C34.2761 11.4328 34.1626 11.4878 33.9971 11.4878C33.7479 11.4878 33.5845 11.4287 33.5066 11.3105C33.4566 11.2336 33.4316 11.0793 33.4316 10.8478V10.7733C33.4316 10.541 33.4566 10.3868 33.5066 10.3107C33.5845 10.1924 33.7479 10.1333 33.9971 10.1333C34.2462 10.1333 34.4097 10.192 34.4875 10.3094C34.5359 10.3822 34.5609 10.5029 34.5625 10.6716H34.5637L34.5638 11.463ZM34.3376 10.7274C34.3368 10.5703 34.3241 10.4731 34.2995 10.4359C34.2667 10.3863 34.1659 10.3615 33.9971 10.3615C33.8291 10.3615 33.7287 10.3867 33.696 10.4371C33.6705 10.4752 33.6579 10.5872 33.6579 10.7733V10.8477C33.6579 11.0338 33.6705 11.1459 33.696 11.1839C33.7287 11.2343 33.8291 11.2595 33.9971 11.2595C34.1659 11.2595 34.2667 11.2219 34.2995 11.1467C34.3241 11.1095 34.3368 11.0123 34.3376 10.8552V10.7274Z" fill="#004A9B"/>
<path d="M34.7954 9.61963H35.0216V10.2448C35.0929 10.1703 35.206 10.1331 35.3608 10.1331C35.61 10.1331 35.7735 10.1923 35.8513 10.3105C35.9021 10.3866 35.9275 10.5408 35.9275 10.7732V10.8476C35.9275 11.0792 35.9021 11.2334 35.8513 11.3103C35.7735 11.4286 35.61 11.4877 35.3608 11.4877C35.1117 11.4877 34.9482 11.4285 34.8704 11.3103C34.8229 11.2375 34.7979 11.1172 34.7954 10.9493V9.61963ZM35.0585 10.4371C35.0339 10.4743 35.0216 10.5764 35.0216 10.7435V10.8762C35.0216 11.0433 35.0343 11.1458 35.0597 11.1838C35.0925 11.2343 35.1929 11.2595 35.3609 11.2595C35.5297 11.2595 35.6305 11.2343 35.6633 11.1838C35.6887 11.1458 35.7014 11.0337 35.7014 10.8477V10.7732C35.7014 10.5872 35.6887 10.4751 35.6633 10.4371C35.6305 10.3866 35.5297 10.3614 35.3609 10.3614C35.1929 10.3614 35.0921 10.3866 35.0585 10.4371Z" fill="#004A9B"/>
<path d="M36.4347 9.84786H36.2085V9.61963H36.4347V9.84786ZM36.4347 11.4629H36.2085V10.158H36.4347V11.4629Z" fill="#004A9B"/>
<path d="M37.3179 11.4629C37.0687 11.4629 36.9053 11.4038 36.8274 11.2855C36.7774 11.2086 36.7524 11.0544 36.7524 10.8228V9.61963H36.9786V10.8228C36.9786 11.0088 36.9913 11.121 37.0167 11.159C37.0495 11.2094 37.1499 11.2346 37.3179 11.2346V11.4629Z" fill="#004A9B"/>
<path d="M37.7135 9.84786H37.4873V9.61963H37.7135V9.84786ZM37.7135 11.4629H37.4873V10.158H37.7135V11.4629Z" fill="#004A9B"/>
<path d="M38.653 10.3862H38.2203V10.8253C38.2203 11.0097 38.2326 11.1209 38.2572 11.159C38.2908 11.2094 38.3916 11.2346 38.5596 11.2346H38.6727V11.4629H38.5596C38.3113 11.4629 38.1482 11.4038 38.0703 11.2855C38.0196 11.2094 37.9941 11.056 37.9941 10.8253V9.61963H38.2204V10.158H38.653L38.653 10.3862Z" fill="#004A9B"/>
<path d="M39.9212 11.463H39.6951V11.3228C39.6336 11.4328 39.5201 11.4878 39.3545 11.4878C39.1054 11.4878 38.9419 11.4287 38.8641 11.3105C38.8141 11.2336 38.7891 11.0793 38.7891 10.8478V10.7733C38.7891 10.541 38.8141 10.3868 38.8641 10.3107C38.9419 10.1924 39.1054 10.1333 39.3545 10.1333C39.6037 10.1333 39.7671 10.192 39.845 10.3094C39.8934 10.3822 39.9184 10.5029 39.92 10.6716H39.9212V11.463ZM39.695 10.7274C39.6942 10.5703 39.6815 10.4731 39.6569 10.4359C39.6241 10.3863 39.5233 10.3615 39.3545 10.3615C39.1865 10.3615 39.0861 10.3867 39.0534 10.4371C39.028 10.4752 39.0153 10.5872 39.0153 10.7733V10.8477C39.0153 11.0338 39.028 11.1459 39.0534 11.1839C39.0861 11.2343 39.1865 11.2595 39.3545 11.2595C39.5234 11.2595 39.6241 11.2219 39.6569 11.1467C39.6815 11.1095 39.6942 11.0123 39.695 10.8552V10.7274Z" fill="#004A9B"/>
<path d="M40.8117 10.3862H40.379V10.8253C40.379 11.0097 40.3913 11.1209 40.4159 11.159C40.4495 11.2094 40.5502 11.2346 40.7183 11.2346H40.8314V11.4629H40.7183C40.47 11.4629 40.3069 11.4038 40.229 11.2855C40.1782 11.2094 40.1528 11.056 40.1528 10.8253V9.61963H40.379V10.158H40.8117L40.8117 10.3862Z" fill="#004A9B"/>
<path d="M41.2232 9.84786H40.9971V9.61963H41.2232V9.84786ZM41.2232 11.4629H40.9971V10.158H41.2232V11.4629Z" fill="#004A9B"/>
<path d="M41.5789 11.3105C41.5289 11.2336 41.5039 11.0793 41.5039 10.8478V10.7733C41.5039 10.541 41.5289 10.3868 41.5789 10.3107C41.6567 10.1924 41.8202 10.1333 42.0694 10.1333C42.3185 10.1333 42.482 10.192 42.5599 10.3094C42.6107 10.3855 42.6361 10.5393 42.6361 10.7709V10.8503C42.6361 11.081 42.6106 11.2344 42.5599 11.3105C42.482 11.4287 42.3185 11.4878 42.0694 11.4878C41.8202 11.4878 41.6567 11.4287 41.5789 11.3105ZM41.7682 10.4372C41.7428 10.4753 41.7301 10.5873 41.7301 10.7734V10.8478C41.7301 11.0339 41.7428 11.1459 41.7682 11.1839C41.8009 11.2344 41.9013 11.2596 42.0693 11.2596C42.2382 11.2596 42.3389 11.2344 42.3717 11.1839C42.3971 11.1459 42.4098 11.0347 42.4098 10.8503V10.7709C42.4098 10.5857 42.3971 10.474 42.3717 10.436C42.3389 10.3863 42.2381 10.3615 42.0693 10.3615C41.9013 10.3616 41.8009 10.3868 41.7682 10.4372Z" fill="#004A9B"/>
<path d="M43.9998 11.463H43.7736V10.7733C43.7736 10.5873 43.7609 10.4752 43.7355 10.4372C43.7027 10.3868 43.602 10.3615 43.4331 10.3615C43.2651 10.3615 43.1643 10.3863 43.1308 10.436C43.1062 10.474 43.0939 10.5857 43.0939 10.7709V11.463H42.8677V10.7709C42.8677 10.5393 42.8931 10.3855 42.9439 10.3094C43.0217 10.192 43.1848 10.1333 43.4331 10.1333C43.6822 10.1333 43.8457 10.1924 43.9236 10.3107C43.9744 10.3868 43.9998 10.541 43.9998 10.7733V11.463Z" fill="#004A9B"/>
</g>
<defs>
<clipPath id="clip0_41_7013">
<rect width="44" height="12" fill="white"/>
</clipPath>
</defs>
</svg>
