<svg width="42" height="12" viewBox="0 0 42 12" fill="none" xmlns="http://www.w3.org/2000/svg">
<g clip-path="url(#clip0_41_5849)">
<path d="M3.88818 0.0258789L6.72192 4.84776L9.56679 0.0258789H3.88818Z" fill="#2B53A1"/>
<path d="M0 5.30377H5.67869L2.84463 0.481934L0 5.30377Z" fill="#2B53A1"/>
<path d="M13.4552 5.30341H7.77588L10.6215 0.481934L13.4552 5.30341Z" fill="#2B53A1"/>
<path d="M9.56679 11.4643H3.88818L6.73269 6.64258L9.56679 11.4643Z" fill="#2B53A1"/>
<path d="M7.77588 6.18652H13.4552L10.6096 11.0083L7.77588 6.18652Z" fill="#2B53A1"/>
<path d="M0 6.18652L2.83365 11.0083L5.67873 6.18652H0Z" fill="#2B53A1"/>
<path d="M31.6432 8.86638H30.1567V6.45801H31.6432V6.84005H30.5427V7.4374H31.5747V7.81944H30.5427V8.48596H31.6432V8.86638Z" fill="#2B53A1"/>
<path d="M15.755 6.45811H15.3691V8.86649H15.755V6.45811ZM18.1725 8.86649V6.45811H17.7848V8.09466L16.5697 6.45811H16.2759V8.86649H16.662V7.22724L17.8804 8.86649H18.1725ZM19.4921 8.89796C19.892 8.89796 20.1571 8.84292 20.2881 8.73272C20.3605 8.6722 20.4076 8.59186 20.43 8.4926C20.4439 8.43256 20.4509 8.33971 20.4509 8.21422V8.15619C20.4509 8.03042 20.444 7.93761 20.43 7.87753C20.4076 7.77803 20.3605 7.69817 20.2881 7.63712C20.1571 7.52749 19.892 7.47237 19.4921 7.47237C19.1871 7.47237 19.0058 7.44812 18.9484 7.39994C18.929 7.38408 18.9196 7.30709 18.9196 7.16877V7.11216C18.9196 6.97391 18.929 6.89676 18.9484 6.88115C19.0058 6.83305 19.1871 6.80872 19.4921 6.80872C19.7972 6.80872 19.9786 6.83305 20.036 6.88115C20.0543 6.89676 20.0632 6.97391 20.0632 7.11216V7.12483H20.451V7.11216C20.451 6.98566 20.444 6.89204 20.43 6.83228C20.4077 6.73258 20.3605 6.65252 20.2881 6.59199C20.1571 6.48188 19.892 6.42676 19.4922 6.42676C19.0925 6.42676 18.8272 6.48188 18.6964 6.59199C18.6241 6.65252 18.5769 6.73258 18.5547 6.83228C18.5407 6.892 18.5337 6.98566 18.5337 7.11216V7.16877C18.5337 7.29426 18.5407 7.38751 18.5547 7.44691C18.5769 7.54633 18.6241 7.62723 18.6964 7.68929C18.8272 7.79816 19.0925 7.85255 19.4922 7.85255C19.7973 7.85255 19.9786 7.87757 20.036 7.92648C20.0544 7.94241 20.0632 8.01876 20.0632 8.15623V8.21426C20.0632 8.35125 20.0544 8.42812 20.036 8.44377C19.9787 8.49268 19.7973 8.5177 19.4922 8.5177C19.1872 8.5177 19.0058 8.49268 18.9484 8.44377C18.929 8.42812 18.9196 8.35125 18.9196 8.21426V8.16838H18.5337V8.21256C18.5337 8.33939 18.5407 8.4326 18.5546 8.49264C18.5768 8.5919 18.6241 8.67224 18.6964 8.73276C18.8272 8.84292 19.0924 8.89796 19.4921 8.89796ZM22.5634 6.45811H20.6685V6.84027H21.423V8.86649H21.8091V6.84027H22.5634V6.45811ZM23.3266 6.45811H22.9406V8.86649H23.3266V6.45811ZM25.5987 6.45811H23.704V6.84027H24.4583V8.86649H24.8446V6.84027H25.5987L25.5987 6.45811ZM26.8228 8.89796C27.026 8.89796 27.1904 8.87964 27.3158 8.84292C27.488 8.79131 27.6143 8.70101 27.6956 8.57104C27.7826 8.43256 27.826 8.14974 27.826 7.72222V6.45815H27.4401V7.72222C27.4401 8.07727 27.4155 8.29363 27.3667 8.36953C27.3063 8.46835 27.1249 8.51766 26.8228 8.51766C26.5201 8.51766 26.3376 8.46835 26.276 8.36953C26.227 8.29209 26.2025 8.07529 26.2025 7.71899V6.45815H25.8165V7.7175C25.8165 8.14699 25.8604 8.43114 25.9475 8.56955C26.0844 8.78833 26.3764 8.89796 26.8228 8.89796ZM29.9388 6.45811H28.0439V6.84027H28.7984V8.86649H29.1843V6.84027H29.9388V6.45811Z" fill="#2B53A1"/>
<path d="M15.3691 5.69712V3.24561H16.619C16.8668 3.24561 17.0335 3.32401 17.1194 3.48053C17.1667 3.56603 17.1906 3.71505 17.1906 3.92721V3.9513C17.1906 4.0506 17.1761 4.14474 17.1468 4.23436C17.1086 4.34537 17.0582 4.40674 16.9942 4.41848C17.0749 4.43688 17.1365 4.50887 17.1776 4.63448C17.2099 4.73148 17.2261 4.83958 17.2261 4.95769V4.98343C17.2261 5.20734 17.202 5.36358 17.1531 5.45227C17.0635 5.61561 16.8886 5.69716 16.6288 5.69716H15.3691V5.69712ZM15.7619 4.24239H16.619C16.7112 4.24239 16.7626 4.2321 16.7736 4.21201C16.7885 4.18429 16.7961 4.09789 16.7961 3.95271V3.9258C16.7961 3.78041 16.7885 3.69406 16.7736 3.6665C16.7626 3.64496 16.7112 3.63414 16.619 3.63414H15.7619V4.24239ZM15.7619 5.30987H16.6288C16.7328 5.30987 16.7922 5.29575 16.8075 5.26823C16.8248 5.23611 16.8332 5.14116 16.8332 4.98335V4.95761C16.8332 4.7998 16.8248 4.70473 16.8075 4.67301C16.7922 4.64521 16.7328 4.63113 16.6288 4.63113H15.7619V5.30987Z" fill="#2B53A1"/>
<path d="M17.6465 5.39603C17.5577 5.25533 17.5137 4.96727 17.5137 4.53192V4.41212C17.5137 3.97669 17.5577 3.68863 17.6465 3.54793C17.73 3.41441 17.8596 3.32225 18.0347 3.27112C18.161 3.23287 18.3282 3.21338 18.5363 3.21338C18.9899 3.21338 19.2863 3.32479 19.4258 3.54797C19.5145 3.68867 19.559 3.9777 19.559 4.41511V4.52704C19.559 4.96468 19.5145 5.25376 19.4258 5.39446C19.3427 5.52774 19.2134 5.62059 19.0378 5.67276C18.9112 5.70988 18.7441 5.72901 18.5363 5.72901C18.083 5.72901 17.7862 5.61796 17.6465 5.39603ZM17.981 3.75109C17.931 3.82905 17.9064 4.04908 17.9064 4.41216V4.53196C17.9064 4.89359 17.931 5.11317 17.981 5.19105C18.0439 5.29173 18.2289 5.34168 18.5363 5.34168C18.8438 5.34168 19.0287 5.29173 19.0915 5.19105C19.1412 5.11229 19.1661 4.89108 19.1661 4.52704V4.41511C19.1661 4.05146 19.1412 3.8303 19.0915 3.75242C19.0287 3.65231 18.8438 3.60224 18.5363 3.60224C18.229 3.6022 18.0439 3.65199 17.981 3.75109Z" fill="#2B53A1"/>
<path d="M21.5658 5.69712H19.8843V3.24561H20.277V5.30987H21.5658V5.69712Z" fill="#2B53A1"/>
<path d="M23.1501 3.63439H22.3823V5.69712H21.9894V3.63439H21.2217V3.24561H23.1501V3.63439Z" fill="#2B53A1"/>
<path d="M25.3251 5.69712H23.53L23.3789 5.37835L24.7539 3.63414H23.4373V3.24561H25.176L25.3269 3.56567L23.9519 5.30987H25.3251V5.69712Z" fill="#2B53A1"/>
<path d="M26.0457 5.69712H25.6528V3.24561H26.0002L26.8964 5.18632L27.7943 3.24561H28.1416V5.69712H27.7471V4.19587L27.0606 5.69712H26.734L26.0457 4.19587V5.69712Z" fill="#2B53A1"/>
<path d="M30.0497 4.80715H28.9085V5.69701H28.5156V4.27428C28.5156 3.89127 28.5584 3.6363 28.6439 3.50939C28.777 3.31228 29.0557 3.21338 29.4797 3.21338C29.9032 3.21338 30.1812 3.31228 30.3144 3.50939C30.3998 3.6363 30.4424 3.89127 30.4424 4.27428V5.69701H30.0497V4.80715ZM28.9085 4.41833H30.0497V4.27428C30.0497 3.96923 30.0288 3.78551 29.9864 3.72374C29.9315 3.64299 29.7624 3.60224 29.4796 3.60224C29.1965 3.60224 29.0272 3.64299 28.9718 3.72374C28.9294 3.78551 28.9085 3.96923 28.9085 4.27428V4.41833Z" fill="#2B53A1"/>
<path d="M32.4006 5.69712L31.1603 4.02805V5.69712H30.7676V3.24561H31.0662L32.3034 4.91129V3.24561H32.6977V5.69712H32.4006Z" fill="#2B53A1"/>
<path d="M34.6554 5.69712L33.4147 4.02805V5.69712H33.022V3.24561H33.321L34.558 4.91129V3.24561H34.9526V5.69712H34.6554Z" fill="#2B53A1"/>
<path d="M15.3691 0.0322266V2.48354H17.0512V2.09653H15.7619V0.0322266H15.3691Z" fill="#2B53A1"/>
<path d="M17.3773 2.18115C17.2882 2.04049 17.2441 1.75141 17.2441 1.31385V0.0322266H17.6371V1.31534C17.6371 1.67805 17.6619 1.89902 17.7117 1.9779C17.7745 2.07813 17.9601 2.12849 18.2682 2.12849C18.5757 2.12849 18.7604 2.07809 18.8222 1.9779C18.8718 1.89998 18.8966 1.68027 18.8966 1.31853V0.0322266H19.2895V1.31853C19.2895 1.75412 19.2451 2.04166 19.1565 2.1826C19.0743 2.31467 18.9454 2.40727 18.77 2.45949C18.6427 2.49669 18.4751 2.51529 18.2682 2.51529C17.8138 2.51529 17.5168 2.40409 17.3773 2.18115Z" fill="#2B53A1"/>
<path d="M19.6143 2.48354V0.0322266H20.5706C20.9995 0.0322266 21.2829 0.158646 21.4214 0.411242C21.5013 0.557352 21.5416 0.832302 21.5416 1.23557V1.28003C21.5416 1.68318 21.5014 1.95861 21.4214 2.10597C21.2829 2.35772 20.9994 2.48358 20.5706 2.48358L19.6143 2.48354ZM20.0072 2.09653H20.5706C20.8434 2.09653 21.0115 2.03746 21.0756 1.9202C21.1242 1.83179 21.1487 1.6185 21.1487 1.27999V1.23553C21.1487 0.898397 21.1242 0.684739 21.0756 0.59516C21.0115 0.47895 20.8434 0.420845 20.5706 0.420845H20.0072V2.09653Z" fill="#2B53A1"/>
<path d="M24.6594 0.0322266L24.1266 1.84317L23.5567 0.135928H23.1835L22.6137 1.84317L22.0812 0.0322266H21.6704L22.401 2.48354H22.8135L23.3702 0.816363L23.9269 2.48354H24.3396L25.0699 0.0322266H24.6594Z" fill="#2B53A1"/>
<path d="M25.8038 0.0317383H25.4111V2.48333H25.8038V0.0317383Z" fill="#2B53A1"/>
<path d="M26.2634 2.13787C26.1835 1.99063 26.1431 1.71535 26.1431 1.31217V1.20338C26.1431 0.799954 26.1835 0.525488 26.2634 0.379136C26.402 0.12654 26.6856 0 27.114 0C27.3856 0 27.5917 0.0351052 27.7325 0.10584C27.9219 0.200866 28.034 0.371187 28.0685 0.617327L27.679 0.670307C27.6648 0.569067 27.6336 0.501843 27.5849 0.468836C27.5083 0.415492 27.3511 0.388982 27.114 0.388982C26.8427 0.388982 26.6744 0.446804 26.6093 0.563418C26.5606 0.652714 26.5361 0.866089 26.5361 1.20342V1.31221C26.5361 1.65027 26.5607 1.86364 26.6093 1.95233C26.673 2.06943 26.8413 2.12802 27.114 2.12802C27.3458 2.12802 27.5 2.1026 27.5784 2.05143C27.6303 2.01839 27.6633 1.95374 27.6775 1.85767V1.45118H27.1076V1.06417H28.0701L28.0685 1.8977C28.034 2.14408 27.922 2.31464 27.7325 2.40987C27.5916 2.48024 27.3855 2.51519 27.114 2.51519C26.6856 2.51523 26.402 2.38961 26.2634 2.13787Z" fill="#2B53A1"/>
<path d="M16.4999 11.4646L16.0808 10.6297H15.5988V11.4646H15.3672V9.62109H16.3074C16.4861 9.62109 16.6052 9.67569 16.6648 9.78488C16.6984 9.84609 16.7152 9.95605 16.7152 10.1149V10.1359C16.7152 10.2948 16.6984 10.4047 16.6648 10.466C16.6077 10.571 16.4991 10.6256 16.3389 10.6297L16.7592 11.4646H16.4999ZM16.3074 10.4014C16.3938 10.4014 16.4454 10.3865 16.4622 10.3568C16.4773 10.3295 16.4848 10.2559 16.4848 10.1359V10.1149C16.4848 9.99494 16.4773 9.92134 16.4622 9.89403C16.4454 9.86429 16.3938 9.8494 16.3074 9.8494H15.5988V10.4015H16.3074V10.4014Z" fill="#2B53A1"/>
<path d="M16.994 11.3121C16.942 11.236 16.916 11.0826 16.916 10.8518V10.7724C16.916 10.5409 16.942 10.387 16.994 10.3109C17.0729 10.1935 17.2399 10.1348 17.495 10.1348C17.75 10.1348 17.9174 10.1939 17.9972 10.3121C18.0492 10.3882 18.0752 10.5425 18.0752 10.7749V10.8989H17.1476C17.1501 11.0552 17.1627 11.1508 17.1853 11.1855C17.2197 11.236 17.3229 11.2612 17.4949 11.2612C17.6317 11.2612 17.724 11.2459 17.7718 11.2153C17.8012 11.1971 17.8205 11.1632 17.8297 11.1136L18.0575 11.1558C18.0324 11.2889 17.9639 11.3811 17.8524 11.4324C17.7701 11.4704 17.651 11.4895 17.4949 11.4895C17.2408 11.4895 17.0738 11.4303 16.994 11.3121ZM17.8424 10.698C17.8406 10.5599 17.8281 10.4735 17.8046 10.4387C17.771 10.3883 17.6678 10.3631 17.495 10.3631C17.323 10.3631 17.2198 10.3878 17.1854 10.4375C17.1619 10.4731 17.1493 10.5599 17.1476 10.698H17.8424Z" fill="#2B53A1"/>
<path d="M18.5441 11.4646H18.3125V9.62109H18.5441V10.2463C18.6171 10.1719 18.7329 10.1347 18.8914 10.1347C19.1465 10.1347 19.3139 10.1938 19.3936 10.3121C19.4457 10.3882 19.4717 10.5424 19.4717 10.7748V11.4646H19.2401V10.7748C19.2401 10.5887 19.2271 10.4767 19.2011 10.4386C19.1675 10.3882 19.0643 10.3629 18.8914 10.3629C18.7194 10.3629 18.6162 10.3882 18.5818 10.4386C18.5567 10.4758 18.5441 10.578 18.5441 10.745V11.4646Z" fill="#2B53A1"/>
<path d="M20.8682 11.4646H20.6366V11.3244C20.5737 11.4345 20.4575 11.4895 20.2879 11.4895C20.0328 11.4895 19.8654 11.4303 19.7857 11.3121C19.7346 11.2352 19.709 11.0809 19.709 10.8493V10.7749C19.709 10.5425 19.7346 10.3882 19.7857 10.3121C19.8654 10.1939 20.0328 10.1348 20.2879 10.1348C20.543 10.1348 20.7104 10.1935 20.7901 10.3109C20.8396 10.3837 20.8652 10.5045 20.8669 10.6732H20.8681V11.4646H20.8682ZM20.6366 10.729C20.6357 10.5718 20.6228 10.4746 20.5976 10.4374C20.564 10.3878 20.4608 10.363 20.288 10.363C20.1159 10.363 20.0132 10.3882 19.9796 10.4386C19.9536 10.4767 19.9406 10.5888 19.9406 10.7749V10.8493C19.9406 11.0354 19.9536 11.1474 19.9796 11.1855C20.0132 11.2359 20.116 11.2612 20.288 11.2612C20.4608 11.2612 20.564 11.2235 20.5976 11.1483C20.6228 11.1111 20.6357 11.0139 20.6366 10.8567V10.729Z" fill="#2B53A1"/>
<path d="M21.1055 9.62109H21.3371V10.2463C21.41 10.1719 21.5259 10.1347 21.6844 10.1347C21.9395 10.1347 22.1069 10.1938 22.1866 10.3121C22.2386 10.3882 22.2646 10.5424 22.2646 10.7748V10.8493C22.2646 11.0808 22.2386 11.2351 22.1866 11.312C22.1069 11.4303 21.9395 11.4894 21.6844 11.4894C21.4293 11.4894 21.2619 11.4302 21.1822 11.312C21.1336 11.2392 21.108 11.1189 21.1055 10.951V9.62109ZM21.3748 10.4386C21.3496 10.4758 21.3371 10.578 21.3371 10.7451V10.8778C21.3371 11.0449 21.35 11.1474 21.3761 11.1855C21.4096 11.2359 21.5124 11.2612 21.6844 11.2612C21.8573 11.2612 21.9605 11.2359 21.994 11.1855C22.02 11.1474 22.033 11.0353 22.033 10.8493V10.7748C22.033 10.5887 22.02 10.4767 21.994 10.4386C21.9605 10.3882 21.8573 10.363 21.6844 10.363C21.5124 10.363 21.4092 10.3882 21.3748 10.4386Z" fill="#2B53A1"/>
<path d="M22.7838 9.84936H22.5522V9.62109H22.7838V9.84936ZM22.7838 11.4646H22.5522V10.1595H22.7838V11.4646Z" fill="#2B53A1"/>
<path d="M23.6883 11.4646C23.4332 11.4646 23.2658 11.4054 23.1861 11.2872C23.135 11.2103 23.1094 11.056 23.1094 10.8244V9.62109H23.341V10.8244C23.341 11.0105 23.3539 11.1226 23.38 11.1606C23.4135 11.2111 23.5163 11.2363 23.6883 11.2363V11.4646Z" fill="#2B53A1"/>
<path d="M24.0929 9.84936H23.8613V9.62109H24.0929V9.84936ZM24.0929 11.4646H23.8613V10.1595H24.0929V11.4646Z" fill="#2B53A1"/>
<path d="M25.0555 10.3877H24.6124V10.8269C24.6124 11.0113 24.6251 11.1226 24.6502 11.1606C24.6846 11.2111 24.7878 11.2363 24.9598 11.2363H25.0756V11.4646H24.9598C24.7056 11.4646 24.5386 11.4054 24.4589 11.2872C24.4069 11.2111 24.3809 11.0577 24.3809 10.8269V9.62109H24.6124V10.1595H25.0555V10.3877Z" fill="#2B53A1"/>
<path d="M26.354 11.4646H26.1224V11.3244C26.0595 11.4345 25.9433 11.4895 25.7738 11.4895C25.5187 11.4895 25.3513 11.4303 25.2716 11.3121C25.2204 11.2352 25.1948 11.0809 25.1948 10.8493V10.7749C25.1948 10.5425 25.2204 10.3882 25.2716 10.3121C25.3513 10.1939 25.5187 10.1348 25.7738 10.1348C26.0289 10.1348 26.1963 10.1935 26.276 10.3109C26.3255 10.3837 26.351 10.5045 26.3527 10.6732H26.354L26.354 11.4646ZM26.1224 10.729C26.1216 10.5718 26.1086 10.4746 26.0834 10.4374C26.0499 10.3878 25.9467 10.363 25.7738 10.363C25.6018 10.363 25.499 10.3882 25.4655 10.4386C25.4394 10.4767 25.4265 10.5888 25.4265 10.7749V10.8493C25.4265 11.0354 25.4394 11.1474 25.4655 11.1855C25.499 11.2359 25.6018 11.2612 25.7738 11.2612C25.9467 11.2612 26.0499 11.2235 26.0834 11.1483C26.1086 11.1111 26.1216 11.0139 26.1224 10.8567V10.729Z" fill="#2B53A1"/>
<path d="M27.2659 10.3877H26.8229V10.8269C26.8229 11.0113 26.8355 11.1226 26.8606 11.1606C26.895 11.2111 26.9982 11.2363 27.1703 11.2363H27.2861V11.4646H27.1703C26.916 11.4646 26.749 11.4054 26.6693 11.2872C26.6173 11.2111 26.5913 11.0577 26.5913 10.8269V9.62109H26.8229V10.1595H27.2659V10.3877Z" fill="#2B53A1"/>
<path d="M27.6867 9.84936H27.4551V9.62109H27.6867V9.84936ZM27.6867 11.4646H27.4551V10.1595H27.6867V11.4646Z" fill="#2B53A1"/>
<path d="M28.0514 11.3121C28.0002 11.2352 27.9746 11.0809 27.9746 10.8493V10.7749C27.9746 10.5425 28.0002 10.3882 28.0514 10.3121C28.1311 10.1939 28.2985 10.1348 28.5536 10.1348C28.8086 10.1348 28.976 10.1935 29.0557 10.3109C29.1078 10.387 29.1338 10.5408 29.1338 10.7724V10.8518C29.1338 11.0826 29.1078 11.236 29.0557 11.3121C28.976 11.4303 28.8086 11.4895 28.5536 11.4895C28.2985 11.4895 28.1311 11.4303 28.0514 11.3121ZM28.2452 10.4387C28.2192 10.4768 28.2062 10.5888 28.2062 10.7749V10.8494C28.2062 11.0354 28.2192 11.1475 28.2452 11.1855C28.2787 11.236 28.3816 11.2612 28.5536 11.2612C28.7264 11.2612 28.8296 11.236 28.8632 11.1855C28.8892 11.1475 28.9022 11.0363 28.9022 10.8518V10.7724C28.9022 10.5872 28.8892 10.4755 28.8632 10.4375C28.8296 10.3878 28.7264 10.363 28.5536 10.363C28.3816 10.3631 28.2788 10.3883 28.2452 10.4387Z" fill="#2B53A1"/>
<path d="M30.5303 11.4646H30.2987V10.7749C30.2987 10.5888 30.2857 10.4767 30.2597 10.4387C30.2261 10.3882 30.1229 10.363 29.95 10.363C29.778 10.363 29.6748 10.3878 29.6404 10.4375C29.6152 10.4755 29.6027 10.5872 29.6027 10.7724V11.4646H29.3711V10.7724C29.3711 10.5409 29.3971 10.387 29.4491 10.3109C29.5288 10.1935 29.6958 10.1348 29.95 10.1348C30.2051 10.1348 30.3725 10.1939 30.4522 10.3121C30.5043 10.3882 30.5303 10.5425 30.5303 10.7749V11.4646Z" fill="#2B53A1"/>
<path d="M32.5717 11.4646L32.1526 10.6297H31.6706V11.4646H31.439V9.62109H32.3791C32.5579 9.62109 32.677 9.67569 32.7366 9.78488C32.7702 9.84609 32.7869 9.95605 32.7869 10.1149V10.1359C32.7869 10.2948 32.7702 10.4047 32.7366 10.466C32.6795 10.571 32.5709 10.6256 32.4106 10.6297L32.831 11.4646H32.5717ZM32.3791 10.4014C32.4656 10.4014 32.5172 10.3865 32.534 10.3568C32.5491 10.3295 32.5566 10.2559 32.5566 10.1359V10.1149C32.5566 9.99494 32.5491 9.92134 32.534 9.89403C32.5172 9.86429 32.4656 9.8494 32.3791 9.8494H31.6706V10.4015H32.3791V10.4014Z" fill="#2B53A1"/>
<path d="M33.0658 11.3121C33.0138 11.236 32.9878 11.0826 32.9878 10.8518V10.7724C32.9878 10.5409 33.0138 10.387 33.0658 10.3109C33.1447 10.1935 33.3117 10.1348 33.5667 10.1348C33.8218 10.1348 33.9892 10.1939 34.0689 10.3121C34.121 10.3882 34.147 10.5425 34.147 10.7749V10.8989H33.2193C33.2219 11.0552 33.2344 11.1508 33.2571 11.1855C33.2915 11.236 33.3947 11.2612 33.5667 11.2612C33.7035 11.2612 33.7958 11.2459 33.8436 11.2153C33.873 11.1971 33.8922 11.1632 33.9015 11.1136L34.1293 11.1558C34.1041 11.2889 34.0357 11.3811 33.9242 11.4324C33.8419 11.4704 33.7228 11.4895 33.5667 11.4895C33.3125 11.4895 33.1455 11.4303 33.0658 11.3121ZM33.9141 10.698C33.9124 10.5599 33.8999 10.4735 33.8764 10.4387C33.8428 10.3883 33.7396 10.3631 33.5668 10.3631C33.3948 10.3631 33.2916 10.3878 33.2572 10.4375C33.2337 10.4731 33.2211 10.5599 33.2194 10.698H33.9141Z" fill="#2B53A1"/>
<path d="M34.6159 11.1123C34.6159 11.1785 34.6196 11.2144 34.6272 11.2202C34.6633 11.2476 34.7753 11.2612 34.9632 11.2612C35.1512 11.2612 35.2636 11.2476 35.3006 11.2202C35.3081 11.2144 35.3119 11.1789 35.3119 11.1135V11.0738C35.3119 11.0077 35.3081 10.9717 35.3006 10.9659C35.2645 10.9395 35.152 10.9262 34.9632 10.9262C34.7241 10.9262 34.5659 10.8973 34.4888 10.8394C34.4199 10.7881 34.3851 10.6914 34.3843 10.5491V10.5119C34.3843 10.4424 34.3885 10.3912 34.3968 10.3581C34.412 10.3002 34.4426 10.2543 34.4888 10.2203C34.5659 10.1633 34.7241 10.1348 34.9632 10.1348C35.2032 10.1348 35.3618 10.1633 35.439 10.2203C35.5086 10.2716 35.5435 10.3684 35.5435 10.5106H35.3119C35.3119 10.4445 35.3081 10.4085 35.3006 10.4027C35.2645 10.3763 35.152 10.363 34.9632 10.363C34.7753 10.363 34.6632 10.3763 34.6272 10.4027C34.6196 10.4085 34.6159 10.4449 34.6159 10.5118V10.5491C34.6159 10.6153 34.6196 10.6512 34.6272 10.657C34.6633 10.6843 34.7753 10.698 34.9632 10.698C35.2032 10.698 35.3618 10.7265 35.439 10.7836C35.5086 10.8349 35.5435 10.9316 35.5435 11.0738V11.1135C35.5435 11.1822 35.5389 11.2335 35.5296 11.2674C35.5154 11.3237 35.4851 11.3691 35.439 11.4038C35.3618 11.4609 35.2032 11.4895 34.9632 11.4895C34.7241 11.4895 34.5659 11.4605 34.4888 11.4026C34.4199 11.3513 34.3851 11.2546 34.3843 11.1123H34.6159V11.1123Z" fill="#2B53A1"/>
<path d="M35.8588 11.3121C35.8068 11.236 35.7808 11.0826 35.7808 10.8518V10.7724C35.7808 10.5409 35.8068 10.387 35.8588 10.3109C35.9377 10.1935 36.1046 10.1348 36.3597 10.1348C36.6148 10.1348 36.7822 10.1939 36.8619 10.3121C36.9139 10.3882 36.9399 10.5425 36.9399 10.7749V10.8989H36.0123C36.0149 11.0552 36.0275 11.1508 36.0501 11.1855C36.0845 11.236 36.1877 11.2612 36.3597 11.2612C36.4965 11.2612 36.5888 11.2459 36.6366 11.2153C36.666 11.1971 36.6852 11.1632 36.6945 11.1136L36.9223 11.1558C36.8971 11.2889 36.8287 11.3811 36.7172 11.4324C36.6349 11.4704 36.5158 11.4895 36.3597 11.4895C36.1055 11.4895 35.9385 11.4303 35.8588 11.3121ZM36.7071 10.698C36.7054 10.5599 36.6928 10.4735 36.6694 10.4387C36.6358 10.3883 36.5326 10.3631 36.3597 10.3631C36.1877 10.3631 36.0845 10.3878 36.0501 10.4375C36.0266 10.4731 36.0141 10.5599 36.0124 10.698H36.7071Z" fill="#2B53A1"/>
<path d="M38.3365 11.4646H38.1049V11.3244C38.0419 11.4345 37.9257 11.4895 37.7562 11.4895C37.5011 11.4895 37.3337 11.4303 37.254 11.3121C37.2028 11.2352 37.1772 11.0809 37.1772 10.8493V10.7749C37.1772 10.5425 37.2028 10.3882 37.254 10.3121C37.3337 10.1939 37.5011 10.1348 37.7562 10.1348C38.0113 10.1348 38.1787 10.1935 38.2584 10.3109C38.3079 10.3837 38.3335 10.5045 38.3351 10.6732H38.3364V11.4646H38.3365ZM38.1049 10.729C38.104 10.5718 38.091 10.4746 38.0658 10.4374C38.0323 10.3878 37.9291 10.363 37.7562 10.363C37.5842 10.363 37.4814 10.3882 37.4479 10.4386C37.4219 10.4767 37.4089 10.5888 37.4089 10.7749V10.8493C37.4089 11.0354 37.4219 11.1474 37.4479 11.1855C37.4814 11.2359 37.5843 11.2612 37.7562 11.2612C37.9291 11.2612 38.0323 11.2235 38.0658 11.1483C38.091 11.1111 38.104 11.0139 38.1049 10.8567V10.729Z" fill="#2B53A1"/>
<path d="M38.8058 11.4647H38.5742V10.7998C38.5742 10.5674 38.5998 10.4132 38.651 10.337C38.7307 10.2188 38.8981 10.1597 39.1532 10.1597H39.3445V10.3879H39.1532C38.9811 10.3879 38.8784 10.4132 38.8448 10.4636C38.8188 10.5016 38.8058 10.6137 38.8058 10.7998L38.8058 11.4647Z" fill="#2B53A1"/>
<path d="M39.5314 11.3121C39.4802 11.2352 39.4546 11.0809 39.4546 10.8493V10.7749C39.4546 10.5425 39.4802 10.3882 39.5314 10.3121C39.6111 10.1939 39.7785 10.1348 40.0336 10.1348C40.1964 10.1348 40.3197 10.1558 40.4036 10.198C40.5169 10.2551 40.5836 10.3572 40.6038 10.5045L40.3747 10.5342C40.3663 10.4738 40.3474 10.4333 40.318 10.4126C40.2711 10.3796 40.1762 10.363 40.0336 10.363C39.8616 10.363 39.7588 10.3882 39.7252 10.4387C39.6992 10.4767 39.6862 10.5888 39.6862 10.7749V10.8493C39.6862 11.0354 39.6992 11.1475 39.7252 11.1855C39.7588 11.236 39.8616 11.2612 40.0336 11.2612C40.1762 11.2612 40.2711 11.2443 40.318 11.2103C40.3474 11.1897 40.3663 11.1491 40.3747 11.0887L40.6038 11.1185C40.5836 11.2666 40.5169 11.3691 40.4036 11.4262C40.3197 11.4683 40.1963 11.4894 40.0336 11.4894C39.7785 11.4895 39.6111 11.4303 39.5314 11.3121Z" fill="#2B53A1"/>
<path d="M41.0724 11.4646H40.8408V9.62109H41.0724V10.2463C41.1454 10.1719 41.2612 10.1347 41.4198 10.1347C41.6748 10.1347 41.8422 10.1938 41.922 10.3121C41.974 10.3882 42 10.5424 42 10.7748V11.4646H41.7684V10.7748C41.7684 10.5887 41.7554 10.4767 41.7294 10.4386C41.6959 10.3882 41.5926 10.3629 41.4198 10.3629C41.2478 10.3629 41.1446 10.3882 41.1102 10.4386C41.085 10.4758 41.0724 10.578 41.0724 10.745V11.4646Z" fill="#2B53A1"/>
<path d="M3.88818 0.0258789L6.72192 4.84776L9.56679 0.0258789H3.88818Z" fill="#004A9B"/>
<path d="M0 5.30377H5.67869L2.84463 0.481934L0 5.30377Z" fill="#004A9B"/>
<path d="M13.4552 5.30341H7.77588L10.6215 0.481934L13.4552 5.30341Z" fill="#004A9B"/>
<path d="M9.56679 11.4643H3.88818L6.73269 6.64258L9.56679 11.4643Z" fill="#B9AEBB"/>
<path d="M7.77588 6.18652H13.4552L10.6096 11.0083L7.77588 6.18652Z" fill="#004A9B"/>
<path d="M0 6.18652L2.83365 11.0083L5.67873 6.18652H0Z" fill="#004A9B"/>
<path d="M31.6432 8.86638H30.1567V6.45801H31.6432V6.84005H30.5427V7.4374H31.5747V7.81944H30.5427V8.48596H31.6432V8.86638Z" fill="#B9AEBB"/>
<path d="M15.755 6.45811H15.3691V8.86649H15.755V6.45811ZM18.1725 8.86649V6.45811H17.7848V8.09466L16.5697 6.45811H16.2759V8.86649H16.662V7.22724L17.8804 8.86649H18.1725ZM19.4921 8.89796C19.892 8.89796 20.1571 8.84292 20.2881 8.73272C20.3605 8.6722 20.4076 8.59186 20.43 8.4926C20.4439 8.43256 20.4509 8.33971 20.4509 8.21422V8.15619C20.4509 8.03042 20.444 7.93761 20.43 7.87753C20.4076 7.77803 20.3605 7.69817 20.2881 7.63712C20.1571 7.52749 19.892 7.47237 19.4921 7.47237C19.1871 7.47237 19.0058 7.44812 18.9484 7.39994C18.929 7.38408 18.9196 7.30709 18.9196 7.16877V7.11216C18.9196 6.97391 18.929 6.89676 18.9484 6.88115C19.0058 6.83305 19.1871 6.80872 19.4921 6.80872C19.7972 6.80872 19.9786 6.83305 20.036 6.88115C20.0543 6.89676 20.0632 6.97391 20.0632 7.11216V7.12483H20.451V7.11216C20.451 6.98566 20.444 6.89204 20.43 6.83228C20.4077 6.73258 20.3605 6.65252 20.2881 6.59199C20.1571 6.48188 19.892 6.42676 19.4922 6.42676C19.0925 6.42676 18.8272 6.48188 18.6964 6.59199C18.6241 6.65252 18.5769 6.73258 18.5547 6.83228C18.5407 6.892 18.5337 6.98566 18.5337 7.11216V7.16877C18.5337 7.29426 18.5407 7.38751 18.5547 7.44691C18.5769 7.54633 18.6241 7.62723 18.6964 7.68929C18.8272 7.79816 19.0925 7.85255 19.4922 7.85255C19.7973 7.85255 19.9786 7.87757 20.036 7.92648C20.0544 7.94241 20.0632 8.01876 20.0632 8.15623V8.21426C20.0632 8.35125 20.0544 8.42812 20.036 8.44377C19.9787 8.49268 19.7973 8.5177 19.4922 8.5177C19.1872 8.5177 19.0058 8.49268 18.9484 8.44377C18.929 8.42812 18.9196 8.35125 18.9196 8.21426V8.16838H18.5337V8.21256C18.5337 8.33939 18.5407 8.4326 18.5546 8.49264C18.5768 8.5919 18.6241 8.67224 18.6964 8.73276C18.8272 8.84292 19.0924 8.89796 19.4921 8.89796ZM22.5634 6.45811H20.6685V6.84027H21.423V8.86649H21.8091V6.84027H22.5634V6.45811ZM23.3266 6.45811H22.9406V8.86649H23.3266V6.45811ZM25.5987 6.45811H23.704V6.84027H24.4583V8.86649H24.8446V6.84027H25.5987L25.5987 6.45811ZM26.8228 8.89796C27.026 8.89796 27.1904 8.87964 27.3158 8.84292C27.488 8.79131 27.6143 8.70101 27.6956 8.57104C27.7826 8.43256 27.826 8.14974 27.826 7.72222V6.45815H27.4401V7.72222C27.4401 8.07727 27.4155 8.29363 27.3667 8.36953C27.3063 8.46835 27.1249 8.51766 26.8228 8.51766C26.5201 8.51766 26.3376 8.46835 26.276 8.36953C26.227 8.29209 26.2025 8.07529 26.2025 7.71899V6.45815H25.8165V7.7175C25.8165 8.14699 25.8604 8.43114 25.9475 8.56955C26.0844 8.78833 26.3764 8.89796 26.8228 8.89796ZM29.9388 6.45811H28.0439V6.84027H28.7984V8.86649H29.1843V6.84027H29.9388V6.45811Z" fill="#B9AEBB"/>
<path d="M15.3691 5.69712V3.24561H16.619C16.8668 3.24561 17.0335 3.32401 17.1194 3.48053C17.1667 3.56603 17.1906 3.71505 17.1906 3.92721V3.9513C17.1906 4.0506 17.1761 4.14474 17.1468 4.23436C17.1086 4.34537 17.0582 4.40674 16.9942 4.41848C17.0749 4.43688 17.1365 4.50887 17.1776 4.63448C17.2099 4.73148 17.2261 4.83958 17.2261 4.95769V4.98343C17.2261 5.20734 17.202 5.36358 17.1531 5.45227C17.0635 5.61561 16.8886 5.69716 16.6288 5.69716H15.3691V5.69712ZM15.7619 4.24239H16.619C16.7112 4.24239 16.7626 4.2321 16.7736 4.21201C16.7885 4.18429 16.7961 4.09789 16.7961 3.95271V3.9258C16.7961 3.78041 16.7885 3.69406 16.7736 3.6665C16.7626 3.64496 16.7112 3.63414 16.619 3.63414H15.7619V4.24239ZM15.7619 5.30987H16.6288C16.7328 5.30987 16.7922 5.29575 16.8075 5.26823C16.8248 5.23611 16.8332 5.14116 16.8332 4.98335V4.95761C16.8332 4.7998 16.8248 4.70473 16.8075 4.67301C16.7922 4.64521 16.7328 4.63113 16.6288 4.63113H15.7619V5.30987Z" fill="#B9AEBB"/>
<path d="M17.6465 5.39603C17.5577 5.25533 17.5137 4.96727 17.5137 4.53192V4.41212C17.5137 3.97669 17.5577 3.68863 17.6465 3.54793C17.73 3.41441 17.8596 3.32225 18.0347 3.27112C18.161 3.23287 18.3282 3.21338 18.5363 3.21338C18.9899 3.21338 19.2863 3.32479 19.4258 3.54797C19.5145 3.68867 19.559 3.9777 19.559 4.41511V4.52704C19.559 4.96468 19.5145 5.25376 19.4258 5.39446C19.3427 5.52774 19.2134 5.62059 19.0378 5.67276C18.9112 5.70988 18.7441 5.72901 18.5363 5.72901C18.083 5.72901 17.7862 5.61796 17.6465 5.39603ZM17.981 3.75109C17.931 3.82905 17.9064 4.04908 17.9064 4.41216V4.53196C17.9064 4.89359 17.931 5.11317 17.981 5.19105C18.0439 5.29173 18.2289 5.34168 18.5363 5.34168C18.8438 5.34168 19.0287 5.29173 19.0915 5.19105C19.1412 5.11229 19.1661 4.89108 19.1661 4.52704V4.41511C19.1661 4.05146 19.1412 3.8303 19.0915 3.75242C19.0287 3.65231 18.8438 3.60224 18.5363 3.60224C18.229 3.6022 18.0439 3.65199 17.981 3.75109Z" fill="#B9AEBB"/>
<path d="M21.5658 5.69712H19.8843V3.24561H20.277V5.30987H21.5658V5.69712Z" fill="#B9AEBB"/>
<path d="M23.1501 3.63439H22.3823V5.69712H21.9894V3.63439H21.2217V3.24561H23.1501V3.63439Z" fill="#B9AEBB"/>
<path d="M25.3251 5.69712H23.53L23.3789 5.37835L24.7539 3.63414H23.4373V3.24561H25.176L25.3269 3.56567L23.9519 5.30987H25.3251V5.69712Z" fill="#B9AEBB"/>
<path d="M26.0457 5.69712H25.6528V3.24561H26.0002L26.8964 5.18632L27.7943 3.24561H28.1416V5.69712H27.7471V4.19587L27.0606 5.69712H26.734L26.0457 4.19587V5.69712Z" fill="#B9AEBB"/>
<path d="M30.0497 4.80715H28.9085V5.69701H28.5156V4.27428C28.5156 3.89127 28.5584 3.6363 28.6439 3.50939C28.777 3.31228 29.0557 3.21338 29.4797 3.21338C29.9032 3.21338 30.1812 3.31228 30.3144 3.50939C30.3998 3.6363 30.4424 3.89127 30.4424 4.27428V5.69701H30.0497V4.80715ZM28.9085 4.41833H30.0497V4.27428C30.0497 3.96923 30.0288 3.78551 29.9864 3.72374C29.9315 3.64299 29.7624 3.60224 29.4796 3.60224C29.1965 3.60224 29.0272 3.64299 28.9718 3.72374C28.9294 3.78551 28.9085 3.96923 28.9085 4.27428V4.41833Z" fill="#B9AEBB"/>
<path d="M32.4006 5.69712L31.1603 4.02805V5.69712H30.7676V3.24561H31.0662L32.3034 4.91129V3.24561H32.6977V5.69712H32.4006Z" fill="#B9AEBB"/>
<path d="M34.6554 5.69712L33.4147 4.02805V5.69712H33.022V3.24561H33.321L34.558 4.91129V3.24561H34.9526V5.69712H34.6554Z" fill="#B9AEBB"/>
<path d="M15.3691 0.0322266V2.48354H17.0512V2.09653H15.7619V0.0322266H15.3691Z" fill="#B9AEBB"/>
<path d="M17.3773 2.18115C17.2882 2.04049 17.2441 1.75141 17.2441 1.31385V0.0322266H17.6371V1.31534C17.6371 1.67805 17.6619 1.89902 17.7117 1.9779C17.7745 2.07813 17.9601 2.12849 18.2682 2.12849C18.5757 2.12849 18.7604 2.07809 18.8222 1.9779C18.8718 1.89998 18.8966 1.68027 18.8966 1.31853V0.0322266H19.2895V1.31853C19.2895 1.75412 19.2451 2.04166 19.1565 2.1826C19.0743 2.31467 18.9454 2.40727 18.77 2.45949C18.6427 2.49669 18.4751 2.51529 18.2682 2.51529C17.8138 2.51529 17.5168 2.40409 17.3773 2.18115Z" fill="#B9AEBB"/>
<path d="M19.6143 2.48354V0.0322266H20.5706C20.9995 0.0322266 21.2829 0.158646 21.4214 0.411242C21.5013 0.557352 21.5416 0.832302 21.5416 1.23557V1.28003C21.5416 1.68318 21.5014 1.95861 21.4214 2.10597C21.2829 2.35772 20.9994 2.48358 20.5706 2.48358L19.6143 2.48354ZM20.0072 2.09653H20.5706C20.8434 2.09653 21.0115 2.03746 21.0756 1.9202C21.1242 1.83179 21.1487 1.6185 21.1487 1.27999V1.23553C21.1487 0.898397 21.1242 0.684739 21.0756 0.59516C21.0115 0.47895 20.8434 0.420845 20.5706 0.420845H20.0072V2.09653Z" fill="#B9AEBB"/>
<path d="M24.6594 0.0322266L24.1266 1.84317L23.5567 0.135928H23.1835L22.6137 1.84317L22.0812 0.0322266H21.6704L22.401 2.48354H22.8135L23.3702 0.816363L23.9269 2.48354H24.3396L25.0699 0.0322266H24.6594Z" fill="#B9AEBB"/>
<path d="M25.8038 0.0317383H25.4111V2.48333H25.8038V0.0317383Z" fill="#B9AEBB"/>
<path d="M26.2634 2.13787C26.1835 1.99063 26.1431 1.71535 26.1431 1.31217V1.20338C26.1431 0.799954 26.1835 0.525488 26.2634 0.379136C26.402 0.12654 26.6856 0 27.114 0C27.3856 0 27.5917 0.0351052 27.7325 0.10584C27.9219 0.200866 28.034 0.371187 28.0685 0.617327L27.679 0.670307C27.6648 0.569067 27.6336 0.501843 27.5849 0.468836C27.5083 0.415492 27.3511 0.388982 27.114 0.388982C26.8427 0.388982 26.6744 0.446804 26.6093 0.563418C26.5606 0.652714 26.5361 0.866089 26.5361 1.20342V1.31221C26.5361 1.65027 26.5607 1.86364 26.6093 1.95233C26.673 2.06943 26.8413 2.12802 27.114 2.12802C27.3458 2.12802 27.5 2.1026 27.5784 2.05143C27.6303 2.01839 27.6633 1.95374 27.6775 1.85767V1.45118H27.1076V1.06417H28.0701L28.0685 1.8977C28.034 2.14408 27.922 2.31464 27.7325 2.40987C27.5916 2.48024 27.3855 2.51519 27.114 2.51519C26.6856 2.51523 26.402 2.38961 26.2634 2.13787Z" fill="#B9AEBB"/>
<path d="M16.4999 11.4646L16.0808 10.6297H15.5988V11.4646H15.3672V9.62109H16.3074C16.4861 9.62109 16.6052 9.67569 16.6648 9.78488C16.6984 9.84609 16.7152 9.95605 16.7152 10.1149V10.1359C16.7152 10.2948 16.6984 10.4047 16.6648 10.466C16.6077 10.571 16.4991 10.6256 16.3389 10.6297L16.7592 11.4646H16.4999ZM16.3074 10.4014C16.3938 10.4014 16.4454 10.3865 16.4622 10.3568C16.4773 10.3295 16.4848 10.2559 16.4848 10.1359V10.1149C16.4848 9.99494 16.4773 9.92134 16.4622 9.89403C16.4454 9.86429 16.3938 9.8494 16.3074 9.8494H15.5988V10.4015H16.3074V10.4014Z" fill="#004A9B"/>
<path d="M16.994 11.3121C16.942 11.236 16.916 11.0826 16.916 10.8518V10.7724C16.916 10.5409 16.942 10.387 16.994 10.3109C17.0729 10.1935 17.2399 10.1348 17.495 10.1348C17.75 10.1348 17.9174 10.1939 17.9972 10.3121C18.0492 10.3882 18.0752 10.5425 18.0752 10.7749V10.8989H17.1476C17.1501 11.0552 17.1627 11.1508 17.1853 11.1855C17.2197 11.236 17.3229 11.2612 17.4949 11.2612C17.6317 11.2612 17.724 11.2459 17.7718 11.2153C17.8012 11.1971 17.8205 11.1632 17.8297 11.1136L18.0575 11.1558C18.0324 11.2889 17.9639 11.3811 17.8524 11.4324C17.7701 11.4704 17.651 11.4895 17.4949 11.4895C17.2408 11.4895 17.0738 11.4303 16.994 11.3121ZM17.8424 10.698C17.8406 10.5599 17.8281 10.4735 17.8046 10.4387C17.771 10.3883 17.6678 10.3631 17.495 10.3631C17.323 10.3631 17.2198 10.3878 17.1854 10.4375C17.1619 10.4731 17.1493 10.5599 17.1476 10.698H17.8424Z" fill="#004A9B"/>
<path d="M18.5441 11.4646H18.3125V9.62109H18.5441V10.2463C18.6171 10.1719 18.7329 10.1347 18.8914 10.1347C19.1465 10.1347 19.3139 10.1938 19.3936 10.3121C19.4457 10.3882 19.4717 10.5424 19.4717 10.7748V11.4646H19.2401V10.7748C19.2401 10.5887 19.2271 10.4767 19.2011 10.4386C19.1675 10.3882 19.0643 10.3629 18.8914 10.3629C18.7194 10.3629 18.6162 10.3882 18.5818 10.4386C18.5567 10.4758 18.5441 10.578 18.5441 10.745V11.4646Z" fill="#004A9B"/>
<path d="M20.8682 11.4646H20.6366V11.3244C20.5737 11.4345 20.4575 11.4895 20.2879 11.4895C20.0328 11.4895 19.8654 11.4303 19.7857 11.3121C19.7346 11.2352 19.709 11.0809 19.709 10.8493V10.7749C19.709 10.5425 19.7346 10.3882 19.7857 10.3121C19.8654 10.1939 20.0328 10.1348 20.2879 10.1348C20.543 10.1348 20.7104 10.1935 20.7901 10.3109C20.8396 10.3837 20.8652 10.5045 20.8669 10.6732H20.8681V11.4646H20.8682ZM20.6366 10.729C20.6357 10.5718 20.6228 10.4746 20.5976 10.4374C20.564 10.3878 20.4608 10.363 20.288 10.363C20.1159 10.363 20.0132 10.3882 19.9796 10.4386C19.9536 10.4767 19.9406 10.5888 19.9406 10.7749V10.8493C19.9406 11.0354 19.9536 11.1474 19.9796 11.1855C20.0132 11.2359 20.116 11.2612 20.288 11.2612C20.4608 11.2612 20.564 11.2235 20.5976 11.1483C20.6228 11.1111 20.6357 11.0139 20.6366 10.8567V10.729Z" fill="#004A9B"/>
<path d="M21.1055 9.62109H21.3371V10.2463C21.41 10.1719 21.5259 10.1347 21.6844 10.1347C21.9395 10.1347 22.1069 10.1938 22.1866 10.3121C22.2386 10.3882 22.2646 10.5424 22.2646 10.7748V10.8493C22.2646 11.0808 22.2386 11.2351 22.1866 11.312C22.1069 11.4303 21.9395 11.4894 21.6844 11.4894C21.4293 11.4894 21.2619 11.4302 21.1822 11.312C21.1336 11.2392 21.108 11.1189 21.1055 10.951V9.62109ZM21.3748 10.4386C21.3496 10.4758 21.3371 10.578 21.3371 10.7451V10.8778C21.3371 11.0449 21.35 11.1474 21.3761 11.1855C21.4096 11.2359 21.5124 11.2612 21.6844 11.2612C21.8573 11.2612 21.9605 11.2359 21.994 11.1855C22.02 11.1474 22.033 11.0353 22.033 10.8493V10.7748C22.033 10.5887 22.02 10.4767 21.994 10.4386C21.9605 10.3882 21.8573 10.363 21.6844 10.363C21.5124 10.363 21.4092 10.3882 21.3748 10.4386Z" fill="#004A9B"/>
<path d="M22.7838 9.84936H22.5522V9.62109H22.7838V9.84936ZM22.7838 11.4646H22.5522V10.1595H22.7838V11.4646Z" fill="#004A9B"/>
<path d="M23.6883 11.4646C23.4332 11.4646 23.2658 11.4054 23.1861 11.2872C23.135 11.2103 23.1094 11.056 23.1094 10.8244V9.62109H23.341V10.8244C23.341 11.0105 23.3539 11.1226 23.38 11.1606C23.4135 11.2111 23.5163 11.2363 23.6883 11.2363V11.4646Z" fill="#004A9B"/>
<path d="M24.0929 9.84936H23.8613V9.62109H24.0929V9.84936ZM24.0929 11.4646H23.8613V10.1595H24.0929V11.4646Z" fill="#004A9B"/>
<path d="M25.0555 10.3877H24.6124V10.8269C24.6124 11.0113 24.6251 11.1226 24.6502 11.1606C24.6846 11.2111 24.7878 11.2363 24.9598 11.2363H25.0756V11.4646H24.9598C24.7056 11.4646 24.5386 11.4054 24.4589 11.2872C24.4069 11.2111 24.3809 11.0577 24.3809 10.8269V9.62109H24.6124V10.1595H25.0555V10.3877Z" fill="#004A9B"/>
<path d="M26.354 11.4646H26.1224V11.3244C26.0595 11.4345 25.9433 11.4895 25.7738 11.4895C25.5187 11.4895 25.3513 11.4303 25.2716 11.3121C25.2204 11.2352 25.1948 11.0809 25.1948 10.8493V10.7749C25.1948 10.5425 25.2204 10.3882 25.2716 10.3121C25.3513 10.1939 25.5187 10.1348 25.7738 10.1348C26.0289 10.1348 26.1963 10.1935 26.276 10.3109C26.3255 10.3837 26.351 10.5045 26.3527 10.6732H26.354L26.354 11.4646ZM26.1224 10.729C26.1216 10.5718 26.1086 10.4746 26.0834 10.4374C26.0499 10.3878 25.9467 10.363 25.7738 10.363C25.6018 10.363 25.499 10.3882 25.4655 10.4386C25.4394 10.4767 25.4265 10.5888 25.4265 10.7749V10.8493C25.4265 11.0354 25.4394 11.1474 25.4655 11.1855C25.499 11.2359 25.6018 11.2612 25.7738 11.2612C25.9467 11.2612 26.0499 11.2235 26.0834 11.1483C26.1086 11.1111 26.1216 11.0139 26.1224 10.8567V10.729Z" fill="#004A9B"/>
<path d="M27.2659 10.3877H26.8229V10.8269C26.8229 11.0113 26.8355 11.1226 26.8606 11.1606C26.895 11.2111 26.9982 11.2363 27.1703 11.2363H27.2861V11.4646H27.1703C26.916 11.4646 26.749 11.4054 26.6693 11.2872C26.6173 11.2111 26.5913 11.0577 26.5913 10.8269V9.62109H26.8229V10.1595H27.2659V10.3877Z" fill="#004A9B"/>
<path d="M27.6867 9.84936H27.4551V9.62109H27.6867V9.84936ZM27.6867 11.4646H27.4551V10.1595H27.6867V11.4646Z" fill="#004A9B"/>
<path d="M28.0514 11.3121C28.0002 11.2352 27.9746 11.0809 27.9746 10.8493V10.7749C27.9746 10.5425 28.0002 10.3882 28.0514 10.3121C28.1311 10.1939 28.2985 10.1348 28.5536 10.1348C28.8086 10.1348 28.976 10.1935 29.0557 10.3109C29.1078 10.387 29.1338 10.5408 29.1338 10.7724V10.8518C29.1338 11.0826 29.1078 11.236 29.0557 11.3121C28.976 11.4303 28.8086 11.4895 28.5536 11.4895C28.2985 11.4895 28.1311 11.4303 28.0514 11.3121ZM28.2452 10.4387C28.2192 10.4768 28.2062 10.5888 28.2062 10.7749V10.8494C28.2062 11.0354 28.2192 11.1475 28.2452 11.1855C28.2787 11.236 28.3816 11.2612 28.5536 11.2612C28.7264 11.2612 28.8296 11.236 28.8632 11.1855C28.8892 11.1475 28.9022 11.0363 28.9022 10.8518V10.7724C28.9022 10.5872 28.8892 10.4755 28.8632 10.4375C28.8296 10.3878 28.7264 10.363 28.5536 10.363C28.3816 10.3631 28.2788 10.3883 28.2452 10.4387Z" fill="#004A9B"/>
<path d="M30.5303 11.4646H30.2987V10.7749C30.2987 10.5888 30.2857 10.4767 30.2597 10.4387C30.2261 10.3882 30.1229 10.363 29.95 10.363C29.778 10.363 29.6748 10.3878 29.6404 10.4375C29.6152 10.4755 29.6027 10.5872 29.6027 10.7724V11.4646H29.3711V10.7724C29.3711 10.5409 29.3971 10.387 29.4491 10.3109C29.5288 10.1935 29.6958 10.1348 29.95 10.1348C30.2051 10.1348 30.3725 10.1939 30.4522 10.3121C30.5043 10.3882 30.5303 10.5425 30.5303 10.7749V11.4646Z" fill="#004A9B"/>
<path d="M32.5717 11.4646L32.1526 10.6297H31.6706V11.4646H31.439V9.62109H32.3791C32.5579 9.62109 32.677 9.67569 32.7366 9.78488C32.7702 9.84609 32.7869 9.95605 32.7869 10.1149V10.1359C32.7869 10.2948 32.7702 10.4047 32.7366 10.466C32.6795 10.571 32.5709 10.6256 32.4106 10.6297L32.831 11.4646H32.5717ZM32.3791 10.4014C32.4656 10.4014 32.5172 10.3865 32.534 10.3568C32.5491 10.3295 32.5566 10.2559 32.5566 10.1359V10.1149C32.5566 9.99494 32.5491 9.92134 32.534 9.89403C32.5172 9.86429 32.4656 9.8494 32.3791 9.8494H31.6706V10.4015H32.3791V10.4014Z" fill="#004A9B"/>
<path d="M33.0658 11.3121C33.0138 11.236 32.9878 11.0826 32.9878 10.8518V10.7724C32.9878 10.5409 33.0138 10.387 33.0658 10.3109C33.1447 10.1935 33.3117 10.1348 33.5667 10.1348C33.8218 10.1348 33.9892 10.1939 34.0689 10.3121C34.121 10.3882 34.147 10.5425 34.147 10.7749V10.8989H33.2193C33.2219 11.0552 33.2344 11.1508 33.2571 11.1855C33.2915 11.236 33.3947 11.2612 33.5667 11.2612C33.7035 11.2612 33.7958 11.2459 33.8436 11.2153C33.873 11.1971 33.8922 11.1632 33.9015 11.1136L34.1293 11.1558C34.1041 11.2889 34.0357 11.3811 33.9242 11.4324C33.8419 11.4704 33.7228 11.4895 33.5667 11.4895C33.3125 11.4895 33.1455 11.4303 33.0658 11.3121ZM33.9141 10.698C33.9124 10.5599 33.8999 10.4735 33.8764 10.4387C33.8428 10.3883 33.7396 10.3631 33.5668 10.3631C33.3948 10.3631 33.2916 10.3878 33.2572 10.4375C33.2337 10.4731 33.2211 10.5599 33.2194 10.698H33.9141Z" fill="#004A9B"/>
<path d="M34.6159 11.1123C34.6159 11.1785 34.6196 11.2144 34.6272 11.2202C34.6633 11.2476 34.7753 11.2612 34.9632 11.2612C35.1512 11.2612 35.2636 11.2476 35.3006 11.2202C35.3081 11.2144 35.3119 11.1789 35.3119 11.1135V11.0738C35.3119 11.0077 35.3081 10.9717 35.3006 10.9659C35.2645 10.9395 35.152 10.9262 34.9632 10.9262C34.7241 10.9262 34.5659 10.8973 34.4888 10.8394C34.4199 10.7881 34.3851 10.6914 34.3843 10.5491V10.5119C34.3843 10.4424 34.3885 10.3912 34.3968 10.3581C34.412 10.3002 34.4426 10.2543 34.4888 10.2203C34.5659 10.1633 34.7241 10.1348 34.9632 10.1348C35.2032 10.1348 35.3618 10.1633 35.439 10.2203C35.5086 10.2716 35.5435 10.3684 35.5435 10.5106H35.3119C35.3119 10.4445 35.3081 10.4085 35.3006 10.4027C35.2645 10.3763 35.152 10.363 34.9632 10.363C34.7753 10.363 34.6632 10.3763 34.6272 10.4027C34.6196 10.4085 34.6159 10.4449 34.6159 10.5118V10.5491C34.6159 10.6153 34.6196 10.6512 34.6272 10.657C34.6633 10.6843 34.7753 10.698 34.9632 10.698C35.2032 10.698 35.3618 10.7265 35.439 10.7836C35.5086 10.8349 35.5435 10.9316 35.5435 11.0738V11.1135C35.5435 11.1822 35.5389 11.2335 35.5296 11.2674C35.5154 11.3237 35.4851 11.3691 35.439 11.4038C35.3618 11.4609 35.2032 11.4895 34.9632 11.4895C34.7241 11.4895 34.5659 11.4605 34.4888 11.4026C34.4199 11.3513 34.3851 11.2546 34.3843 11.1123H34.6159V11.1123Z" fill="#004A9B"/>
<path d="M35.8588 11.3121C35.8068 11.236 35.7808 11.0826 35.7808 10.8518V10.7724C35.7808 10.5409 35.8068 10.387 35.8588 10.3109C35.9377 10.1935 36.1046 10.1348 36.3597 10.1348C36.6148 10.1348 36.7822 10.1939 36.8619 10.3121C36.9139 10.3882 36.9399 10.5425 36.9399 10.7749V10.8989H36.0123C36.0149 11.0552 36.0275 11.1508 36.0501 11.1855C36.0845 11.236 36.1877 11.2612 36.3597 11.2612C36.4965 11.2612 36.5888 11.2459 36.6366 11.2153C36.666 11.1971 36.6852 11.1632 36.6945 11.1136L36.9223 11.1558C36.8971 11.2889 36.8287 11.3811 36.7172 11.4324C36.6349 11.4704 36.5158 11.4895 36.3597 11.4895C36.1055 11.4895 35.9385 11.4303 35.8588 11.3121ZM36.7071 10.698C36.7054 10.5599 36.6928 10.4735 36.6694 10.4387C36.6358 10.3883 36.5326 10.3631 36.3597 10.3631C36.1877 10.3631 36.0845 10.3878 36.0501 10.4375C36.0266 10.4731 36.0141 10.5599 36.0124 10.698H36.7071Z" fill="#004A9B"/>
<path d="M38.3365 11.4646H38.1049V11.3244C38.0419 11.4345 37.9257 11.4895 37.7562 11.4895C37.5011 11.4895 37.3337 11.4303 37.254 11.3121C37.2028 11.2352 37.1772 11.0809 37.1772 10.8493V10.7749C37.1772 10.5425 37.2028 10.3882 37.254 10.3121C37.3337 10.1939 37.5011 10.1348 37.7562 10.1348C38.0113 10.1348 38.1787 10.1935 38.2584 10.3109C38.3079 10.3837 38.3335 10.5045 38.3351 10.6732H38.3364V11.4646H38.3365ZM38.1049 10.729C38.104 10.5718 38.091 10.4746 38.0658 10.4374C38.0323 10.3878 37.9291 10.363 37.7562 10.363C37.5842 10.363 37.4814 10.3882 37.4479 10.4386C37.4219 10.4767 37.4089 10.5888 37.4089 10.7749V10.8493C37.4089 11.0354 37.4219 11.1474 37.4479 11.1855C37.4814 11.2359 37.5843 11.2612 37.7562 11.2612C37.9291 11.2612 38.0323 11.2235 38.0658 11.1483C38.091 11.1111 38.104 11.0139 38.1049 10.8567V10.729Z" fill="#004A9B"/>
<path d="M38.8058 11.4647H38.5742V10.7998C38.5742 10.5674 38.5998 10.4132 38.651 10.337C38.7307 10.2188 38.8981 10.1597 39.1532 10.1597H39.3445V10.3879H39.1532C38.9811 10.3879 38.8784 10.4132 38.8448 10.4636C38.8188 10.5016 38.8058 10.6137 38.8058 10.7998L38.8058 11.4647Z" fill="#004A9B"/>
<path d="M39.5314 11.3121C39.4802 11.2352 39.4546 11.0809 39.4546 10.8493V10.7749C39.4546 10.5425 39.4802 10.3882 39.5314 10.3121C39.6111 10.1939 39.7785 10.1348 40.0336 10.1348C40.1964 10.1348 40.3197 10.1558 40.4036 10.198C40.5169 10.2551 40.5836 10.3572 40.6038 10.5045L40.3747 10.5342C40.3663 10.4738 40.3474 10.4333 40.318 10.4126C40.2711 10.3796 40.1762 10.363 40.0336 10.363C39.8616 10.363 39.7588 10.3882 39.7252 10.4387C39.6992 10.4767 39.6862 10.5888 39.6862 10.7749V10.8493C39.6862 11.0354 39.6992 11.1475 39.7252 11.1855C39.7588 11.236 39.8616 11.2612 40.0336 11.2612C40.1762 11.2612 40.2711 11.2443 40.318 11.2103C40.3474 11.1897 40.3663 11.1491 40.3747 11.0887L40.6038 11.1185C40.5836 11.2666 40.5169 11.3691 40.4036 11.4262C40.3197 11.4683 40.1963 11.4894 40.0336 11.4894C39.7785 11.4895 39.6111 11.4303 39.5314 11.3121Z" fill="#004A9B"/>
<path d="M41.0724 11.4646H40.8408V9.62109H41.0724V10.2463C41.1454 10.1719 41.2612 10.1347 41.4198 10.1347C41.6748 10.1347 41.8422 10.1938 41.922 10.3121C41.974 10.3882 42 10.5424 42 10.7748V11.4646H41.7684V10.7748C41.7684 10.5887 41.7554 10.4767 41.7294 10.4386C41.6959 10.3882 41.5926 10.3629 41.4198 10.3629C41.2478 10.3629 41.1446 10.3882 41.1102 10.4386C41.085 10.4758 41.0724 10.578 41.0724 10.745V11.4646Z" fill="#004A9B"/>
</g>
<defs>
<clipPath id="clip0_41_5849">
<rect width="42" height="12" fill="white"/>
</clipPath>
</defs>
</svg>
