<svg width="39" height="10" viewBox="0 0 39 10" fill="none" xmlns="http://www.w3.org/2000/svg">
<g clip-path="url(#clip0_41_5815)">
<path d="M15.3552 3.85394C14.9887 3.85394 14.694 3.56465 14.694 3.20507C14.694 2.81028 14.5704 2.43127 14.3394 2.10676C13.977 1.60254 13.3835 1.30155 12.7542 1.30155C12.1088 1.30155 11.5194 1.65338 11.2167 2.2162C11.0492 2.53282 10.6471 2.65789 10.3243 2.48986C10.0017 2.32563 9.87423 1.93085 10.0456 1.61423C10.5754 0.617606 11.615 0 12.7542 0C13.8096 0 14.8095 0.504225 15.419 1.35239C15.8093 1.89577 16.0164 2.53676 16.0164 3.20127C16.0203 3.56085 15.7217 3.85394 15.3552 3.85394Z" fill="url(#paint0_linear_41_5815)"/>
<path d="M5.52103 0.312487C5.42152 0.375022 5.32589 0.492346 5.23828 0.652487L3.53346 3.8108C3.50565 3.86939 3.4817 3.93587 3.46177 4.01009C3.44586 3.93587 3.42191 3.86939 3.3941 3.80685L1.68527 0.648684C1.59766 0.484459 1.50202 0.371078 1.40252 0.308543C1.30287 0.246008 1.15948 0.210938 0.98427 0.210938H0.00439453V6.43742H1.27103V2.41925C1.27103 2.36066 1.26702 2.29812 1.25512 2.23164L2.90416 5.38995C3.0236 5.61657 3.21085 5.72995 3.46177 5.72995C3.71269 5.72995 3.89594 5.61657 4.01552 5.38981L5.66843 2.2277C5.65653 2.29812 5.65251 2.3646 5.65251 2.41925V6.44136H6.91915V0.21474H5.94731C5.76406 0.21474 5.62068 0.249952 5.52103 0.312487Z" fill="#D8E9EC"/>
<path d="M28.3046 3.98681C28.3046 4.37372 28.1812 4.68639 27.9341 4.92484C27.6872 5.16329 27.3566 5.28442 26.9543 5.28442C26.5481 5.28442 26.2214 5.16329 25.9744 4.92484C25.7315 4.68639 25.604 4.37372 25.604 3.98681V0.812872C25.604 0.484562 25.3332 0.214844 24.9945 0.214844H24.3374V3.98287C24.3374 4.73329 24.5803 5.3509 25.0583 5.81611C25.5362 6.28118 26.1736 6.51963 26.9503 6.51963C27.7271 6.51963 28.3643 6.28118 28.8423 5.81611C29.3242 5.3509 29.5673 4.73329 29.5673 3.98287V0.214844H28.91C28.5755 0.214844 28.3006 0.480759 28.3006 0.812872V3.98681H28.3046Z" fill="#D8E9EC"/>
<path d="M37.8965 0.21474C37.7171 0.21474 37.5737 0.246008 37.4742 0.312487C37.3745 0.375022 37.279 0.492346 37.1913 0.652487L35.4865 3.8108C35.4587 3.86939 35.4347 3.93587 35.4148 4.01009C35.3989 3.93587 35.3751 3.86939 35.3471 3.80685L33.6383 0.648684C33.5507 0.484459 33.4552 0.371078 33.3555 0.308543C33.256 0.246008 33.1125 0.210938 32.9373 0.210938H31.9614V6.43742H33.2202V2.41925C33.2202 2.36066 33.2162 2.29812 33.2041 2.23164L34.8532 5.38995C34.9727 5.61657 35.16 5.72995 35.4109 5.72995C35.6618 5.72995 35.8451 5.61657 35.9645 5.38981L37.6176 2.2277C37.6057 2.29812 37.6017 2.3646 37.6017 2.41925V6.44136H38.8683V0.21474H37.8965Z" fill="#D8E9EC"/>
<path d="M21.9753 1.4071V0.214844H17.0601V1.40315H18.8845V6.42583H20.1511V2.05583C20.1511 1.87217 20.0873 1.69231 19.9519 1.56724C19.924 1.53991 19.8962 1.52034 19.8682 1.5009C19.7687 1.43836 19.6253 1.40315 19.45 1.40315H21.9753V1.4071Z" fill="#D8E9EC"/>
<path d="M10.4123 0.253906C10.241 0.253906 10.0737 0.316441 9.94217 0.445456C9.24519 1.1256 8.86279 2.0363 8.86279 2.99785C8.86279 4.99123 10.5158 6.6094 12.5433 6.6094C13.8896 6.6094 15.1285 5.83546 15.694 4.6356C15.9052 4.18602 16.0127 3.70137 16.0127 3.20489C16.0127 2.53658 15.8055 1.8994 15.4152 1.35616C15.2878 1.1763 15.0806 1.0825 14.8735 1.0825C14.742 1.0825 14.6065 1.12165 14.4911 1.20377C14.1923 1.41081 14.1206 1.81743 14.3318 2.11053C14.5628 2.43109 14.6863 2.81405 14.6863 3.20884C14.6863 3.51771 14.6186 3.81475 14.4871 4.09616C14.1365 4.83884 13.3719 5.31954 12.5393 5.31954C11.2408 5.31954 10.1812 4.28376 10.1812 3.0056C10.1812 2.38799 10.4282 1.8056 10.8703 1.37179C11.1292 1.11771 11.1292 0.707287 10.8703 0.453202C10.7509 0.316441 10.5835 0.253906 10.4123 0.253906Z" fill="#00A3B4"/>
<path d="M0.728956 9.04102V9.90087H0.589445V9.53341H0.139368V9.90087H0V9.04102H0.139368V9.40834H0.593459V9.04102H0.728956Z" fill="#D8E9EC"/>
<path d="M1.9996 9.7758C2.13094 9.7758 2.21869 9.68975 2.21869 9.56468V9.04102H2.35806V9.56468C2.35806 9.77186 2.21468 9.91256 1.9996 9.91256C1.7884 9.91256 1.64502 9.77186 1.64502 9.56468V9.04102H1.78439V9.56468C1.78439 9.68975 1.86812 9.7758 1.9996 9.7758Z" fill="#D8E9EC"/>
<path d="M4.20613 9.04102V9.90482H4.06676V9.29116C4.06676 9.27933 4.07063 9.25989 4.07465 9.24426L3.79978 9.76017C3.78788 9.78749 3.76795 9.79918 3.73612 9.79918C3.70816 9.79918 3.68823 9.78749 3.67232 9.76017L3.39759 9.24426C3.40147 9.25989 3.40548 9.27933 3.40548 9.29116V9.90482H3.26611V9.04102H3.36964C3.41738 9.04102 3.43731 9.05271 3.45724 9.09566L3.72021 9.57651C3.72408 9.58425 3.72809 9.59989 3.73211 9.62341C3.73211 9.60383 3.74014 9.5882 3.74401 9.57651L4.00697 9.09566C4.03091 9.05665 4.05084 9.04102 4.09458 9.04102H4.20613Z" fill="#D8E9EC"/>
<path d="M5.9112 9.90091H5.81557C5.77972 9.90091 5.74789 9.88133 5.73585 9.85007L5.6762 9.71331H5.25795L5.19816 9.85007C5.18225 9.88133 5.15429 9.90091 5.11844 9.90091H5.02295L5.40535 9.03711H5.5288L5.9112 9.90091ZM5.62444 9.58824L5.49697 9.29894C5.47704 9.25204 5.47303 9.23641 5.47303 9.20908H5.465C5.465 9.23246 5.46113 9.25204 5.4412 9.29894L5.31373 9.58824H5.62444Z" fill="#D8E9EC"/>
<path d="M7.4566 9.04105V9.90486H7.34907C7.33301 9.90486 7.31308 9.89302 7.30118 9.87359L6.8511 9.21683H6.84709C6.85913 9.2481 6.863 9.27936 6.863 9.30683V9.90091H6.72363V9.03711H6.83117C6.86702 9.03711 6.89096 9.04486 6.91089 9.08007L7.33301 9.68978H7.33702C7.32111 9.65077 7.31322 9.6195 7.31322 9.59598V9.04105H7.4566Z" fill="#D8E9EC"/>
<path d="M8.3208 9.47461C8.3208 9.4394 8.34862 9.41602 8.38059 9.41602C8.41644 9.41602 8.44024 9.4394 8.44024 9.47461C8.44024 9.50982 8.41242 9.5332 8.38059 9.5332C8.34475 9.5332 8.3208 9.50982 8.3208 9.47461Z" fill="#D8E9EC"/>
<path d="M9.30078 9.04102H9.64332C9.81466 9.04102 9.9341 9.15425 9.9341 9.31059C9.9341 9.46707 9.81065 9.58031 9.64332 9.58031H9.44015V9.90087H9.30078V9.04102ZM9.64332 9.44749C9.73093 9.44749 9.79473 9.3889 9.79473 9.31059C9.79473 9.22862 9.73093 9.17383 9.64332 9.17383H9.44015V9.45144L9.64332 9.4513V9.44749Z" fill="#D8E9EC"/>
<path d="M10.7627 9.90091V9.03711H11.3164V9.16993H10.9022V9.39274H11.2407V9.52176H10.9022V9.76415H11.3164V9.89697H10.7627V9.90091Z" fill="#D8E9EC"/>
<path d="M12.2007 9.90091V9.03711H12.5194C12.6707 9.03711 12.7903 9.14655 12.7903 9.29894C12.7903 9.4357 12.6747 9.5295 12.5831 9.53345H12.5672C12.603 9.53739 12.6229 9.54908 12.6389 9.5726L12.8858 9.90091H12.7782C12.7464 9.90091 12.7146 9.89302 12.6906 9.85795L12.4675 9.56077H12.3401V9.90091H12.2007ZM12.3401 9.42795H12.5154C12.595 9.42795 12.6548 9.37317 12.6548 9.29894C12.6548 9.22472 12.595 9.16993 12.5154 9.16993H12.3401V9.42795Z" fill="#D8E9EC"/>
<path d="M13.7061 9.04102H14.2637V9.17383H13.8454V9.41623H14.192V9.54904H13.8454V9.90087H13.7061V9.04102Z" fill="#D8E9EC"/>
<path d="M15.4907 9.02881C15.7456 9.02881 15.9448 9.22036 15.9448 9.4705C15.9448 9.72064 15.7456 9.91219 15.4907 9.91219C15.2358 9.91219 15.0366 9.72064 15.0366 9.4705C15.0366 9.22036 15.2358 9.02881 15.4907 9.02881ZM15.4907 9.77937C15.6659 9.77937 15.8053 9.64247 15.8053 9.4705C15.8053 9.29853 15.6659 9.16177 15.4907 9.16177C15.3154 9.16177 15.176 9.29853 15.176 9.4705C15.176 9.64247 15.3154 9.77937 15.4907 9.77937Z" fill="#D8E9EC"/>
<path d="M16.8169 9.90091V9.03711H17.1356C17.2869 9.03711 17.4065 9.14655 17.4065 9.29894C17.4065 9.4357 17.2909 9.5295 17.1993 9.53345H17.1834C17.2192 9.53739 17.2392 9.54908 17.2551 9.5726L17.5021 9.90091H17.3946C17.3626 9.90091 17.3308 9.89302 17.3068 9.85795L17.0839 9.56077H16.9564V9.90091H16.8169ZM16.9564 9.42795H17.1316C17.2113 9.42795 17.271 9.37317 17.271 9.29894C17.271 9.22472 17.2113 9.16993 17.1316 9.16993H16.9564V9.42795Z" fill="#D8E9EC"/>
<path d="M19.2667 9.04102V9.90482H19.1273V9.29116C19.1273 9.27933 19.1313 9.25989 19.1353 9.24426L18.8605 9.76017C18.8484 9.78749 18.8286 9.79918 18.7967 9.79918C18.7689 9.79918 18.7489 9.78749 18.733 9.76017L18.4581 9.24426C18.4622 9.25989 18.466 9.27933 18.466 9.29116V9.90482H18.3267V9.04102H18.4302C18.4781 9.04102 18.498 9.05271 18.5179 9.09566L18.7808 9.57651C18.7848 9.58425 18.7888 9.59989 18.7927 9.62341C18.7927 9.60383 18.8007 9.5882 18.8047 9.57651L19.0675 9.09566C19.0915 9.05665 19.1114 9.04102 19.1551 9.04102H19.2667Z" fill="#D8E9EC"/>
<path d="M20.9714 9.90091H20.8757C20.8399 9.90091 20.8081 9.88133 20.7962 9.85007L20.7364 9.71331H20.3141L20.2545 9.85007C20.2385 9.88133 20.2106 9.90091 20.1747 9.90091H20.0791L20.4615 9.03711H20.585L20.9714 9.90091ZM20.6806 9.58824L20.5531 9.29894C20.5332 9.25204 20.5293 9.23641 20.5293 9.20908H20.5213C20.5213 9.23246 20.5173 9.25204 20.4973 9.29894L20.3699 9.58824H20.6806Z" fill="#D8E9EC"/>
<path d="M22.517 9.04102V9.90482H22.4135C22.3975 9.90482 22.3777 9.89299 22.3656 9.87355L21.9115 9.22073H21.9075C21.9196 9.252 21.9236 9.28327 21.9236 9.31059V9.90482H21.7881V9.04102H21.8956C21.9315 9.04102 21.9554 9.04876 21.9753 9.08397L22.3975 9.69369H22.4015C22.3856 9.65468 22.3777 9.62341 22.3777 9.59989V9.04482H22.517V9.04102Z" fill="#D8E9EC"/>
<path d="M23.3892 9.4705C23.3892 9.22036 23.5843 9.02881 23.8433 9.02881C23.9627 9.02881 24.0861 9.0836 24.1618 9.16571L24.13 9.20078C24.1021 9.23205 24.0543 9.23994 24.0185 9.22036C23.9667 9.18515 23.9069 9.16571 23.8392 9.16571C23.664 9.16571 23.5245 9.29853 23.5245 9.47444C23.5245 9.65036 23.66 9.78317 23.8392 9.78317C23.9029 9.78317 23.9667 9.76374 24.0185 9.72458C24.0543 9.7012 24.1021 9.71289 24.13 9.74022L24.1618 9.77543C24.0861 9.85754 23.9627 9.91613 23.8392 9.91613C23.5883 9.91219 23.3892 9.72064 23.3892 9.4705Z" fill="#D8E9EC"/>
<path d="M25.0186 9.90091V9.03711H25.5722V9.16993H25.1579V9.39274H25.4964V9.52176H25.1579V9.76415H25.5722V9.89697H25.0186V9.90091Z" fill="#D8E9EC"/>
<path d="M26.353 9.47461C26.353 9.4394 26.381 9.41602 26.4128 9.41602C26.4487 9.41602 26.4726 9.4394 26.4726 9.47461C26.4726 9.50982 26.4446 9.5332 26.4128 9.5332C26.377 9.5332 26.353 9.50982 26.353 9.47461Z" fill="#D8E9EC"/>
<path d="M27.4719 9.04102H27.3325V9.90087H27.4719V9.04102Z" fill="#D8E9EC"/>
<path d="M29.1293 9.04102V9.90482H29.0258C29.0099 9.90482 28.99 9.89299 28.9779 9.87355L28.5238 9.22073H28.52C28.5319 9.252 28.5359 9.28327 28.5359 9.31059V9.90482H28.4004V9.04102H28.5079C28.5438 9.04102 28.5677 9.04876 28.5876 9.08397L29.0099 9.69369H29.0138C28.9979 9.65468 28.99 9.62341 28.99 9.59989V9.04482H29.1293V9.04102Z" fill="#D8E9EC"/>
<path d="M29.9897 9.78317L30.0216 9.73247C30.0415 9.7012 30.0852 9.69331 30.1211 9.71684C30.165 9.7481 30.2326 9.77543 30.2765 9.77937C30.372 9.77937 30.4398 9.73627 30.4398 9.65036C30.4398 9.59162 30.3919 9.55261 30.2804 9.50965C30.1092 9.45092 30.0335 9.37275 30.0335 9.26332C30.0335 9.12656 30.141 9.02881 30.3003 9.02881C30.38 9.02881 30.4757 9.06008 30.5353 9.12261L30.5115 9.16571C30.4876 9.20472 30.4517 9.21641 30.4159 9.19698C30.376 9.17346 30.3323 9.16177 30.3003 9.16177C30.2247 9.16177 30.1728 9.20078 30.1728 9.26332C30.1728 9.31022 30.2207 9.34543 30.3202 9.38064C30.4956 9.43529 30.5792 9.52529 30.5792 9.65036C30.5792 9.8067 30.4557 9.91219 30.2765 9.91219C30.1609 9.91219 30.0574 9.8536 29.9897 9.78317Z" fill="#D8E9EC"/>
<path d="M31.3477 9.04102H32.0208V9.17383H31.7539V9.90087H31.6145V9.17383H31.3477V9.04102Z" fill="#D8E9EC"/>
<path d="M32.9851 9.04102H32.8457V9.90087H32.9851V9.04102Z" fill="#D8E9EC"/>
<path d="M33.8096 9.04102H34.4828V9.17383H34.2158V9.90087H34.0764V9.17383H33.8096V9.04102Z" fill="#D8E9EC"/>
<path d="M35.6494 9.7758C35.7808 9.7758 35.8685 9.68975 35.8685 9.56468V9.04102H36.008V9.56468C36.008 9.77186 35.8646 9.91256 35.6494 9.91256C35.4383 9.91256 35.2949 9.77186 35.2949 9.56468V9.04102H35.4343V9.56468C35.4303 9.68975 35.518 9.7758 35.6494 9.7758Z" fill="#D8E9EC"/>
<path d="M36.8169 9.04102H37.4901V9.17383H37.2232V9.90087H37.0837V9.17383H36.8169V9.04102Z" fill="#D8E9EC"/>
<path d="M38.3145 9.90091V9.03711H38.8682V9.16993H38.454V9.39274H38.7925V9.52176H38.454V9.76415H38.8682V9.89697H38.3145V9.90091Z" fill="#D8E9EC"/>
</g>
<defs>
<linearGradient id="paint0_linear_41_5815" x1="9.96945" y1="1.92685" x2="16.0187" y2="1.92685" gradientUnits="userSpaceOnUse">
<stop stop-color="white"/>
<stop offset="0.65" stop-color="#00A3B4"/>
<stop offset="1" stop-color="#00A3B4"/>
</linearGradient>
<clipPath id="clip0_41_5815">
<rect width="39" height="10" fill="white"/>
</clipPath>
</defs>
</svg>
