<svg width="41" height="11" viewBox="0 0 41 11" fill="none" xmlns="http://www.w3.org/2000/svg">
<g clip-path="url(#clip0_41_7242)">
<path d="M14.5551 0.297363H13.6256C13.5816 0.297363 13.5493 0.327781 13.5493 0.374789V2.57866C13.5493 2.62567 13.5803 2.65609 13.6256 2.65609H14.0729C14.1168 2.65609 14.1453 2.62567 14.1453 2.57866V1.94819H14.5551C15.1355 1.94819 15.4974 1.65232 15.4974 1.12278C15.4974 0.593241 15.1355 0.297363 14.5551 0.297363ZM14.5072 1.43386H14.1453V0.813075H14.5072C14.7399 0.813075 14.8976 0.920918 14.8976 1.12278C14.8976 1.32464 14.7399 1.43248 14.5072 1.43248V1.43386Z" fill="#262E61"/>
<path d="M15.8023 2.5619L16.7098 0.35112C16.7253 0.31379 16.7537 0.294434 16.7951 0.294434H17.2398C17.2812 0.294434 17.3096 0.311025 17.3251 0.35112L18.2287 2.5619C18.2507 2.61583 18.2262 2.65316 18.1719 2.65316H17.6936C17.6522 2.65316 17.6237 2.63242 17.6082 2.59232L17.4725 2.23838H16.5624L16.4267 2.59232C16.4112 2.63242 16.3827 2.65316 16.3414 2.65316H15.8592C15.8049 2.65316 15.7842 2.61583 15.8023 2.5619ZM17.2889 1.7434L17.0149 1.01892L16.7408 1.7434H17.2889Z" fill="#262E61"/>
<path d="M20.8386 2.65177H20.3034C20.2659 2.65177 20.2375 2.63518 20.2155 2.60062L19.7553 1.94665H19.4218V2.57297C19.4218 2.61997 19.3934 2.65039 19.3494 2.65039H18.9021C18.8582 2.65039 18.8271 2.61997 18.8271 2.57297V0.371859C18.8271 0.324851 18.8582 0.294434 18.9021 0.294434H19.8316C20.4107 0.294434 20.774 0.590311 20.774 1.11985C20.774 1.4738 20.6266 1.70884 20.3616 1.83742L20.8903 2.5619C20.9252 2.61306 20.9033 2.65316 20.8399 2.65316L20.8386 2.65177ZM19.4205 1.42817H19.767C20.01 1.42817 20.1729 1.32724 20.1729 1.11847C20.1729 0.909693 20.0152 0.808762 19.7825 0.808762H19.4205V1.42817Z" fill="#262E61"/>
<path d="M21.3843 2.5619L22.2918 0.35112C22.3073 0.31379 22.3358 0.294434 22.3771 0.294434H22.8218C22.8632 0.294434 22.8916 0.311025 22.9072 0.35112L23.8108 2.5619C23.8327 2.61583 23.8082 2.65316 23.7539 2.65316H23.2756C23.2342 2.65316 23.2058 2.63242 23.1903 2.59232L23.0545 2.23838H22.1445L22.0087 2.59232C21.9932 2.63242 21.9648 2.65316 21.9234 2.65316H21.4412C21.3869 2.65316 21.3662 2.61583 21.3843 2.5619ZM22.871 1.7434L22.5969 1.01892L22.3228 1.7434H22.871Z" fill="#262E61"/>
<path d="M24.1768 1.48482C24.1768 0.740984 24.6551 0.244629 25.3764 0.244629C25.9879 0.244629 26.4261 0.601341 26.5295 1.17789C26.536 1.22904 26.5075 1.25808 26.4597 1.25808H25.9904C25.9491 1.25808 25.9206 1.23734 25.909 1.19448C25.8301 0.945609 25.644 0.803201 25.3829 0.803201C25.0209 0.803201 24.7818 1.07557 24.7818 1.48344C24.7818 1.89131 25.0209 2.16092 25.3829 2.16092C25.6414 2.16092 25.8301 2.01989 25.909 1.77379C25.9219 1.72955 25.9504 1.70604 25.9904 1.70604H26.4597C26.5075 1.70604 26.5347 1.73646 26.5295 1.78623C26.4261 2.36554 25.9879 2.71949 25.3764 2.71949C24.6551 2.71949 24.1768 2.22452 24.1768 1.48344V1.48482Z" fill="#262E61"/>
<path d="M28.9299 0.814462H27.8647V1.24169H28.7592C28.8071 1.24169 28.8342 1.26796 28.8342 1.31635V1.66615C28.8342 1.71316 28.8058 1.74081 28.7592 1.74081H27.8647V2.15559H28.9299C28.9738 2.15559 29.0023 2.18324 29.0023 2.23025V2.58696C29.0023 2.63397 28.9738 2.66439 28.9299 2.66439H27.345C27.301 2.66439 27.27 2.63397 27.27 2.58696V0.38309C27.27 0.336081 27.301 0.305664 27.345 0.305664H28.9299C28.9738 0.305664 29.0023 0.336081 29.0023 0.38309V0.739802C29.0023 0.78681 28.9738 0.814462 28.9299 0.814462Z" fill="#262E61"/>
<path d="M31.4327 2.14176C31.4805 2.14176 31.5051 2.16941 31.5051 2.21919V2.58696C31.5051 2.63397 31.4792 2.66439 31.4327 2.66439H29.8762C29.8323 2.66439 29.8013 2.63397 29.8013 2.58696V0.38309C29.8013 0.336081 29.8323 0.305664 29.8762 0.305664H30.3235C30.3675 0.305664 30.3959 0.336081 30.3959 0.38309V2.14176H31.4327Z" fill="#262E61"/>
<path d="M31.8231 1.98956C31.8166 1.9384 31.845 1.90937 31.8929 1.90937H32.3466C32.3906 1.90937 32.4126 1.93011 32.4319 1.9702C32.4824 2.12229 32.6427 2.21907 32.8637 2.21907C33.0524 2.21907 33.1688 2.14164 33.1688 2.01721C33.1688 1.57616 31.9058 1.9702 31.9058 0.996848C31.9058 0.548884 32.2742 0.246094 32.8223 0.246094C33.2981 0.246094 33.7143 0.492197 33.7919 0.926335C33.8048 0.977491 33.7725 1.00653 33.7221 1.00653H33.2657C33.2244 1.00653 33.1998 0.989935 33.174 0.949839C33.13 0.815727 33.0098 0.741066 32.8521 0.741066C32.6814 0.741066 32.5586 0.821257 32.5586 0.956752C32.5586 1.41163 33.8152 1.02727 33.8152 1.9702C33.8152 2.42093 33.4338 2.72096 32.8611 2.72096C32.2884 2.72096 31.8903 2.43061 31.8218 1.98956H31.8231Z" fill="#262E61"/>
<path d="M34.5353 1.60946V0.38309C34.5353 0.336081 34.5637 0.305664 34.6103 0.305664H35.0601C35.1106 0.305664 35.1351 0.336081 35.1351 0.38309V1.62605C35.1351 1.95235 35.3174 2.1625 35.6044 2.1625C35.8914 2.1625 36.0775 1.95373 36.0775 1.62605V0.38309C36.0775 0.336081 36.1021 0.305664 36.1499 0.305664H36.6037C36.6515 0.305664 36.6786 0.336081 36.6786 0.38309V1.60946C36.6786 2.31044 36.2818 2.72522 35.6044 2.72522C34.927 2.72522 34.5327 2.31044 34.5327 1.60946H34.5353Z" fill="#262E61"/>
<path d="M37.3159 1.98956C37.3094 1.9384 37.3378 1.90937 37.3857 1.90937H37.8394C37.8834 1.90937 37.9053 1.93011 37.9247 1.9702C37.9751 2.12229 38.1354 2.21907 38.3565 2.21907C38.5452 2.21907 38.6616 2.14164 38.6616 2.01721C38.6616 1.57616 37.3986 1.9702 37.3986 0.996848C37.3986 0.548884 37.767 0.246094 38.3151 0.246094C38.7909 0.246094 39.2071 0.492197 39.286 0.926335C39.2989 0.977491 39.2666 1.00653 39.2162 1.00653H38.7598C38.7185 1.00653 38.6939 0.989935 38.668 0.949839C38.6241 0.815727 38.5039 0.741066 38.3462 0.741066C38.1755 0.741066 38.0527 0.821257 38.0527 0.956752C38.0527 1.41163 39.3092 1.02727 39.3092 1.9702C39.3092 2.42093 38.9279 2.72096 38.3552 2.72096C37.7825 2.72096 37.3844 2.43061 37.3159 1.98956Z" fill="#262E61"/>
<path d="M13.5441 9.69491V8.46854C13.5441 8.42153 13.5725 8.39111 13.6191 8.39111H14.0689C14.1194 8.39111 14.1439 8.42153 14.1439 8.46854V9.7115C14.1439 10.0378 14.3262 10.248 14.6132 10.248C14.9002 10.248 15.0863 10.0392 15.0863 9.7115V8.46854C15.0863 8.42153 15.1109 8.39111 15.1587 8.39111H15.6124C15.6603 8.39111 15.6874 8.42153 15.6874 8.46854V9.69491C15.6874 10.3959 15.2906 10.8107 14.6132 10.8107C13.9358 10.8107 13.5415 10.3959 13.5415 9.69491H13.5441Z" fill="#262E61"/>
<path d="M18.4665 8.39111H18.5893C18.6087 8.39111 18.6204 8.40494 18.6204 8.4243V10.7153C18.6204 10.736 18.6074 10.7485 18.5893 10.7485H18.4756C18.4601 10.7485 18.4471 10.7457 18.4381 10.7319L16.9075 8.7105V10.7153C16.9075 10.736 16.8946 10.7485 16.8765 10.7485H16.7537C16.7343 10.7485 16.7227 10.7346 16.7227 10.7153V8.4243C16.7227 8.40356 16.7356 8.39111 16.7537 8.39111H16.8636C16.8791 8.39111 16.892 8.39388 16.9011 8.4077L18.4355 10.4388V8.4243C18.4355 8.40356 18.451 8.39111 18.4665 8.39111Z" fill="#262E61"/>
<path d="M19.6665 10.7153V8.4243C19.6665 8.40356 19.6794 8.39111 19.6975 8.39111H19.8203C19.8397 8.39111 19.8514 8.40494 19.8514 8.4243V10.7153C19.8514 10.736 19.8384 10.7485 19.8203 10.7485H19.6975C19.6781 10.7485 19.6665 10.7346 19.6665 10.7153Z" fill="#262E61"/>
<path d="M21.6183 10.7249L20.5919 8.42698C20.5828 8.40347 20.5919 8.38965 20.6138 8.38965H20.7522C20.7677 8.38965 20.7806 8.39933 20.7871 8.41315L21.7191 10.5023L22.6447 8.41315C22.6512 8.39933 22.6641 8.38965 22.6796 8.38965H22.8153C22.8373 8.38965 22.8502 8.40347 22.8373 8.42698L21.8135 10.7249C21.807 10.7387 21.7941 10.7484 21.7786 10.7484H21.6532C21.6377 10.7484 21.6247 10.7387 21.6183 10.7249Z" fill="#262E61"/>
<path d="M25.0739 8.56247H23.7321V9.48882H24.942C24.9576 9.48882 24.9705 9.50265 24.9705 9.522V9.62708C24.9705 9.64782 24.9576 9.66026 24.942 9.66026H23.7321V10.5769H25.0739C25.0894 10.5769 25.1023 10.5908 25.1023 10.6101V10.7138C25.1023 10.7345 25.0894 10.747 25.0739 10.747H23.5769C23.5575 10.747 23.5459 10.7332 23.5459 10.7138V8.42283C23.5459 8.40209 23.5588 8.38965 23.5769 8.38965H25.0739C25.0894 8.38965 25.1023 8.40347 25.1023 8.42283V8.52791C25.1023 8.54865 25.0894 8.56109 25.0739 8.56109V8.56247Z" fill="#262E61"/>
<path d="M27.781 10.7484H27.6207C27.6078 10.7484 27.5948 10.7415 27.5858 10.7276L26.836 9.82479H26.2439V10.7138C26.2439 10.7345 26.231 10.747 26.2129 10.747H26.0901C26.0707 10.747 26.0591 10.7332 26.0591 10.7138V8.42283C26.0591 8.40209 26.072 8.38965 26.0901 8.38965H26.8903C27.4126 8.38965 27.737 8.68 27.737 9.10722C27.737 9.50541 27.4785 9.75704 27.0532 9.81097L27.8004 10.7069C27.8159 10.7276 27.8094 10.747 27.781 10.747V10.7484ZM26.2439 9.65335H26.8644C27.2174 9.65335 27.5483 9.48882 27.5483 9.10722C27.5483 8.72562 27.2303 8.56109 26.8748 8.56109H26.2452V9.65335H26.2439Z" fill="#262E61"/>
<path d="M28.5696 10.0517C28.567 10.0309 28.5825 10.0185 28.6006 10.0185H28.7209C28.7403 10.0185 28.7493 10.0282 28.7519 10.0489C28.8178 10.4029 29.0609 10.6282 29.5081 10.6282C29.9024 10.6282 30.1506 10.4222 30.1506 10.1263C30.1506 9.3576 28.6666 9.92033 28.6666 8.98707C28.6666 8.61653 28.9691 8.34277 29.4603 8.34277C29.9929 8.34277 30.267 8.62206 30.3303 8.95942C30.3368 8.98292 30.3213 8.99675 30.3019 8.99675H30.1765C30.1571 8.99675 30.148 8.98983 30.1454 8.97324C30.0886 8.69396 29.8559 8.50869 29.4719 8.50869C29.088 8.50869 28.8644 8.71746 28.8644 8.98015C28.8644 9.72399 30.3381 9.16819 30.3381 10.1125C30.3381 10.5301 29.9942 10.7927 29.503 10.7927C28.9238 10.7927 28.6278 10.4665 28.5709 10.0517H28.5696Z" fill="#262E61"/>
<path d="M31.3745 10.7153V8.4243C31.3745 8.40356 31.3874 8.39111 31.4055 8.39111H31.5283C31.5477 8.39111 31.5594 8.40494 31.5594 8.4243V10.7153C31.5594 10.736 31.5464 10.7485 31.5283 10.7485H31.4055C31.3861 10.7485 31.3745 10.7346 31.3745 10.7153Z" fill="#262E61"/>
<path d="M34.2433 8.4243V8.52937C34.2433 8.55011 34.2304 8.56256 34.2123 8.56256H33.3811V10.7153C33.3811 10.736 33.3682 10.7485 33.3501 10.7485H33.2273C33.2079 10.7485 33.1962 10.7346 33.1962 10.7153V8.56256H32.365C32.3456 8.56256 32.334 8.54873 32.334 8.52937V8.4243C32.334 8.40356 32.3469 8.39111 32.365 8.39111H34.2136C34.233 8.39111 34.2446 8.40494 34.2446 8.4243H34.2433Z" fill="#262E61"/>
<path d="M34.4761 10.7125L35.4973 8.41458C35.5038 8.40075 35.5128 8.39108 35.5322 8.39108H35.6576C35.6731 8.39108 35.6861 8.39799 35.6925 8.41458L36.7099 10.7125C36.7189 10.736 36.7099 10.7498 36.6853 10.7498H36.5535C36.5341 10.7498 36.525 10.7429 36.5186 10.7263L36.2031 10.0156H34.9841L34.6726 10.7263C34.6661 10.7429 34.6532 10.7498 34.6377 10.7498H34.5019C34.4761 10.7498 34.467 10.736 34.4761 10.7125ZM36.1333 9.84281L35.5943 8.61644L35.0552 9.84281H36.132H36.1333ZM35.1573 7.94588C35.1573 7.87122 35.2168 7.80762 35.2957 7.80762C35.3745 7.80762 35.4314 7.87122 35.4314 7.94588C35.4314 8.02054 35.3719 8.08414 35.2957 8.08414C35.2194 8.08414 35.1573 8.02054 35.1573 7.94588ZM35.7584 7.94588C35.7584 7.87122 35.8218 7.80762 35.8968 7.80762C35.9717 7.80762 36.0351 7.87122 36.0351 7.94588C36.0351 8.02054 35.9717 8.08414 35.8968 8.08414C35.8218 8.08414 35.7584 8.02054 35.7584 7.94588Z" fill="#262E61"/>
<path d="M38.8864 8.4243V8.52937C38.8864 8.55011 38.8735 8.56256 38.8554 8.56256H38.0242V10.7153C38.0242 10.736 38.0112 10.7485 37.9931 10.7485H37.8703C37.8509 10.7485 37.8393 10.7346 37.8393 10.7153V8.56256H37.0081C36.9887 8.56256 36.9771 8.54873 36.9771 8.52937V8.4243C36.9771 8.40356 36.99 8.39111 37.0081 8.39111H38.8567C38.8761 8.39111 38.8877 8.40494 38.8877 8.4243H38.8864Z" fill="#262E61"/>
<path d="M13.5444 6.61723V4.41336C13.5444 4.36635 13.5755 4.33594 13.6194 4.33594H13.9413C13.9827 4.33594 14.0072 4.35253 14.0292 4.38709L14.7816 5.53327L15.5313 4.38709C15.5559 4.35391 15.5818 4.33594 15.6231 4.33594H15.9515C15.9954 4.33594 16.0239 4.36635 16.0239 4.41336V6.61723C16.0239 6.66424 15.9954 6.69466 15.9515 6.69466H15.5042C15.4564 6.69466 15.4292 6.66424 15.4292 6.61723V5.48212L14.96 6.21628C14.938 6.24946 14.9121 6.26744 14.8721 6.26744H14.7014C14.6601 6.26744 14.6316 6.25084 14.6096 6.21628L14.1404 5.4752V6.61723C14.1404 6.66424 14.1119 6.69466 14.0654 6.69466H13.6207C13.5768 6.69466 13.5457 6.66424 13.5457 6.61723H13.5444Z" fill="#262E61"/>
<path d="M18.5715 4.50836H17.2296V5.4347H18.4396C18.4551 5.4347 18.468 5.44853 18.468 5.46788V5.57296C18.468 5.5937 18.4551 5.60614 18.4396 5.60614H17.2296V6.52281H18.5715C18.587 6.52281 18.5999 6.53664 18.5999 6.55599V6.65969C18.5999 6.68043 18.587 6.69287 18.5715 6.69287H17.0745C17.0551 6.69287 17.0435 6.67905 17.0435 6.65969V4.3701C17.0435 4.34936 17.0564 4.33691 17.0745 4.33691H18.5715C18.587 4.33691 18.5999 4.35074 18.5999 4.3701V4.47517C18.5999 4.49591 18.587 4.50836 18.5715 4.50836Z" fill="#262E61"/>
<path d="M21.4373 5.51489C21.4373 6.23246 20.9642 6.69425 20.2428 6.69425H19.5086C19.4892 6.69425 19.4775 6.68043 19.4775 6.66107V4.3701C19.4775 4.34936 19.4905 4.33691 19.5086 4.33691H20.2428C20.9642 4.33691 21.4373 4.7987 21.4373 5.51628V5.51489ZM21.2486 5.51489C21.2486 4.9024 20.8427 4.50697 20.2273 4.50697H19.6637V6.52143H20.2273C20.8414 6.52143 21.2486 6.12739 21.2486 5.51351V5.51489Z" fill="#262E61"/>
<path d="M22.2246 6.66107V4.3701C22.2246 4.34936 22.2375 4.33691 22.2556 4.33691H22.3784C22.3978 4.33691 22.4095 4.35074 22.4095 4.3701V6.66107C22.4095 6.68181 22.3965 6.69425 22.3784 6.69425H22.2556C22.2362 6.69425 22.2246 6.68043 22.2246 6.66107Z" fill="#262E61"/>
<path d="M23.2178 6.66107V6.61406C23.2178 6.60024 23.2204 6.58365 23.2307 6.57397L24.6889 4.50559H23.2837C23.2643 4.50559 23.2527 4.49177 23.2527 4.47517V4.3701C23.2527 4.34936 23.2656 4.33691 23.2837 4.33691H24.919C24.9384 4.33691 24.95 4.35074 24.95 4.3701V4.41711C24.95 4.43093 24.9436 4.44752 24.9371 4.4572L23.4944 6.52558H24.9216C24.941 6.52558 24.9526 6.5394 24.9526 6.55599V6.65969C24.9526 6.68043 24.9397 6.69287 24.9216 6.69287H23.2462C23.2307 6.69287 23.2178 6.67905 23.2178 6.65969V6.66107Z" fill="#262E61"/>
<path d="M25.8394 6.66107V4.3701C25.8394 4.34936 25.8523 4.33691 25.8704 4.33691H25.9932C26.0126 4.33691 26.0242 4.35074 26.0242 4.3701V6.66107C26.0242 6.68181 26.0113 6.69425 25.9932 6.69425H25.8704C25.851 6.69425 25.8394 6.68043 25.8394 6.66107Z" fill="#262E61"/>
<path d="M28.8152 4.33691H28.938C28.9574 4.33691 28.969 4.35074 28.969 4.3701V6.66107C28.969 6.68181 28.9561 6.69425 28.938 6.69425H28.8242C28.8087 6.69425 28.7958 6.69149 28.7867 6.67766L27.2561 4.6563V6.66107C27.2561 6.68181 27.2432 6.69425 27.2251 6.69425H27.1023C27.0829 6.69425 27.0713 6.68043 27.0713 6.66107V4.3701C27.0713 4.34936 27.0842 4.33691 27.1023 4.33691H27.2122C27.2277 4.33691 27.2406 4.33968 27.2497 4.35351L28.7841 6.38455V4.3701C28.7841 4.34936 28.7997 4.33691 28.8152 4.33691Z" fill="#262E61"/>
<path d="M30.0161 6.66107V4.3701C30.0161 4.34936 30.029 4.33691 30.0471 4.33691H30.1699C30.1893 4.33691 30.201 4.35074 30.201 4.3701V6.66107C30.201 6.68181 30.188 6.69425 30.1699 6.69425H30.0471C30.0277 6.69425 30.0161 6.68043 30.0161 6.66107Z" fill="#262E61"/>
<path d="M31.1184 5.99747C31.1159 5.97673 31.1314 5.96429 31.1495 5.96429H31.2697C31.2891 5.96429 31.2981 5.97397 31.3007 5.99471C31.3667 6.34865 31.6097 6.57402 32.057 6.57402C32.4512 6.57402 32.6994 6.36801 32.6994 6.07213C32.6994 5.30341 31.2154 5.86613 31.2154 4.93287C31.2154 4.56233 31.5179 4.28857 32.0091 4.28857C32.5417 4.28857 32.8158 4.56786 32.8791 4.90522C32.8856 4.92872 32.8701 4.94255 32.8507 4.94255H32.7253C32.7059 4.94255 32.6969 4.93563 32.6943 4.91904C32.6374 4.63976 32.4047 4.45449 32.0208 4.45449C31.6368 4.45449 31.4132 4.66326 31.4132 4.92595C31.4132 5.6698 32.8869 5.11399 32.8869 6.05831C32.8869 6.47585 32.543 6.73855 32.0518 6.73855C31.4727 6.73855 31.1766 6.41225 31.1197 5.99747H31.1184Z" fill="#262E61"/>
<path d="M33.5996 5.51494C33.5996 4.80014 34.0908 4.28857 34.7812 4.28857C35.2763 4.28857 35.7106 4.57892 35.8464 5.08081C35.8528 5.10155 35.8399 5.11399 35.8179 5.11399H35.6822C35.6667 5.11399 35.6563 5.10708 35.6512 5.09048C35.5439 4.71718 35.2129 4.47108 34.7812 4.47108C34.2046 4.47108 33.7883 4.90522 33.7883 5.51494C33.7883 6.12467 34.2046 6.55881 34.7812 6.55881C35.209 6.55881 35.5439 6.31685 35.6473 5.94217C35.6563 5.92143 35.6667 5.91175 35.6822 5.91175H35.8179C35.8399 5.91175 35.8489 5.92558 35.8464 5.94908C35.7145 6.45097 35.2763 6.73717 34.7812 6.73717C34.0908 6.73717 33.5996 6.2256 33.5996 5.51356V5.51494Z" fill="#262E61"/>
<path d="M36.5986 6.66107V4.3701C36.5986 4.34936 36.6116 4.33691 36.6297 4.33691H36.7525C36.7719 4.33691 36.7835 4.35074 36.7835 4.3701V5.43747H38.2352V4.3701C38.2352 4.34936 38.2507 4.33691 38.2662 4.33691H38.3891C38.4084 4.33691 38.4201 4.35074 38.4201 4.3701V6.66107C38.4201 6.68181 38.4072 6.69425 38.3891 6.69425H38.2662C38.2507 6.69425 38.2352 6.68043 38.2352 6.66107V5.61029H36.7835V6.66107C36.7835 6.68181 36.7706 6.69425 36.7525 6.69425H36.6297C36.6103 6.69425 36.5986 6.68043 36.5986 6.66107Z" fill="#262E61"/>
<path d="M40.9718 4.50836H39.63V5.4347H40.84C40.8555 5.4347 40.8684 5.44853 40.8684 5.46788V5.57296C40.8684 5.5937 40.8555 5.60614 40.84 5.60614H39.63V6.52281H40.9718C40.9874 6.52281 41.0003 6.53664 41.0003 6.55599V6.65969C41.0003 6.68043 40.9874 6.69287 40.9718 6.69287H39.4749C39.4555 6.69287 39.4438 6.67905 39.4438 6.65969V4.3701C39.4438 4.34936 39.4568 4.33691 39.4749 4.33691H40.9718C40.9874 4.33691 41.0003 4.35074 41.0003 4.3701V4.47517C41.0003 4.49591 40.9874 4.50836 40.9718 4.50836Z" fill="#262E61"/>
<path d="M5.64922 7.70792C5.63759 7.70792 5.62724 7.70792 5.6169 7.71207C5.58717 7.72175 5.56261 7.7494 5.55744 7.78535C5.55744 7.78673 5.5458 7.86001 5.50444 7.95264C5.49797 7.96647 5.49151 7.98168 5.48375 7.99689C5.43204 8.09505 5.34543 8.20566 5.20452 8.27203C5.16574 8.29 5.12308 8.30521 5.07525 8.31627C5.01191 8.3301 4.95115 8.33701 4.89686 8.33701C4.73656 8.33701 4.63314 8.27756 4.55428 8.20013C4.54136 8.18769 4.52972 8.17386 4.5168 8.16004C4.5168 8.16004 4.5168 8.16004 4.5155 8.15865C4.50387 8.14483 4.49223 8.131 4.48189 8.11717C4.4095 8.02454 4.28152 7.96232 4.16259 7.96232C4.06822 7.96232 3.98807 7.99827 3.92602 8.06602C3.91439 8.07846 3.90405 8.09229 3.8937 8.1075C3.89241 8.11026 3.88983 8.11303 3.88853 8.11579C3.87819 8.131 3.87043 8.14621 3.86139 8.1628C3.86009 8.16695 3.85751 8.16971 3.85621 8.17248C3.84199 8.20428 3.82907 8.23746 3.82002 8.27479C3.74116 8.57896 3.97773 8.80433 4.16 8.92876C4.18586 8.94674 4.21042 8.96195 4.23369 8.97577C4.22076 8.98683 4.20525 8.99789 4.18586 9.00896C4.12898 9.04076 4.04237 9.06841 3.91439 9.06841C3.91439 9.06841 3.90405 9.06841 3.89887 9.06841C3.89629 9.06841 3.8937 9.06841 3.88983 9.06841C3.88724 9.06841 3.88595 9.06841 3.88336 9.06841C3.58991 9.05873 3.22795 8.92738 3.01853 8.01624C2.97975 7.86969 2.95777 7.74249 2.94743 7.63603C2.92416 7.45629 2.92933 7.336 2.95777 7.25028C3.10643 6.73733 3.76185 6.49123 3.80709 6.46773C3.90146 6.42072 3.94153 6.36127 3.92731 6.29352C3.91439 6.22992 3.85621 6.19121 3.77219 6.19121C3.73728 6.19121 3.6998 6.19812 3.66618 6.21056L3.65972 6.21333C3.49296 6.27555 3.45935 6.34468 3.19693 6.34468C2.66174 6.34468 2.30753 6.05848 2.1886 5.46672L2.30883 5.27039C2.31787 5.25518 2.32304 5.23721 2.32304 5.21785C2.32304 5.21509 2.32304 5.21232 2.32304 5.20956C2.32304 5.20679 2.32304 5.20403 2.32304 5.20126C2.32304 5.19711 2.32304 5.19158 2.32304 5.18744C2.32304 5.18467 2.32304 5.18329 2.32304 5.1819C2.32304 5.07959 2.33339 4.8805 2.37088 4.76989C2.37346 4.76298 2.37475 4.75606 2.37475 4.74777C2.37475 4.74639 2.37475 4.74362 2.37475 4.74224C2.37475 4.73532 2.37475 4.72979 2.37475 4.72288C2.37475 4.72288 2.37475 4.7215 2.37475 4.72012C2.37475 4.7132 2.37088 4.70629 2.36829 4.69938C2.36829 4.69799 2.367 4.69661 2.3657 4.69385C2.36312 4.68832 2.35924 4.68279 2.35666 4.67864C2.35666 4.67864 2.35536 4.67587 2.35407 4.67587C2.3489 4.67034 2.34373 4.66481 2.33856 4.66066C2.33856 4.66066 2.33597 4.65928 2.33468 4.6579C2.32951 4.65375 2.32305 4.65099 2.31658 4.64822C2.31012 4.64545 2.30236 4.64407 2.29461 4.64407H2.29202C2.28556 4.64407 2.27909 4.64407 2.27263 4.64545C2.27263 4.64545 2.27134 4.64545 2.27004 4.64545L2.06579 4.69385L2.00762 4.70767C1.99469 4.64269 1.98177 4.54591 1.98564 4.44221C1.98564 4.37861 1.98952 4.31363 2.00116 4.25694C2.19377 4.31501 2.43939 4.43392 2.70828 4.61365C2.71086 4.61642 2.71474 4.6178 2.71733 4.61919C2.71733 4.61919 2.71733 4.61919 2.71862 4.61919C2.72379 4.62195 2.74835 4.63578 2.78196 4.6579C2.79101 4.66343 2.80006 4.67034 2.8104 4.67587C2.74447 4.92751 2.59969 5.02567 2.59452 5.02982C2.55961 5.05471 2.54152 5.08374 2.55832 5.12522C2.57513 5.1667 2.61649 5.16393 2.65657 5.1501C3.07282 5.00631 3.09222 4.73118 3.09092 4.71735C3.08704 4.67864 3.08446 4.65928 3.06636 4.63992C3.00302 4.58877 2.9345 4.53899 2.86082 4.49199C2.90218 4.31086 2.93321 3.85737 2.38897 3.3541C2.26358 3.23796 2.10716 3.11906 1.91325 3.00016C1.97013 2.9725 2.04769 2.94623 2.14723 2.94623C2.20541 2.94623 2.26617 2.95591 2.32822 2.9725C2.39414 2.99186 2.46137 3.01951 2.53117 3.05822C2.53634 3.06099 2.54152 3.06376 2.54669 3.06514C2.54798 3.06514 2.55056 3.06514 2.55186 3.06514C2.55574 3.06514 2.55961 3.06652 2.56349 3.0679C2.56608 3.0679 2.56737 3.0679 2.56995 3.0679C2.57383 3.0679 2.57642 3.0679 2.5803 3.0679C2.58288 3.0679 2.58417 3.0679 2.58676 3.0679C2.58935 3.0679 2.59322 3.0679 2.59581 3.06514C2.59839 3.06514 2.59969 3.06376 2.60227 3.06237C2.60486 3.06237 2.60744 3.05961 2.61003 3.05822C2.61261 3.05822 2.61391 3.05546 2.61649 3.05408C2.61908 3.05269 2.62166 3.05131 2.62425 3.04855C2.62683 3.04716 2.62813 3.0444 2.62942 3.04302C2.63201 3.04025 2.6333 3.03887 2.63588 3.0361C2.63718 3.03334 2.63847 3.03196 2.64105 3.02919C2.64235 3.02642 2.64493 3.02366 2.64623 3.02089C2.64752 3.01813 2.64881 3.01536 2.6501 3.0126C2.6501 3.00983 2.65269 3.00707 2.65269 3.0043C2.65269 3.00292 2.65269 3.00016 2.65398 2.99877C2.66174 2.96144 2.64623 2.92135 2.6152 2.89784C2.61261 2.89646 2.61003 2.89369 2.60744 2.89231C2.60357 2.88955 2.59969 2.88678 2.59581 2.88263C2.59322 2.87987 2.58935 2.8771 2.58676 2.87434C2.58288 2.87157 2.579 2.86743 2.57513 2.86466C2.57254 2.86189 2.56866 2.85913 2.56608 2.85636C2.5622 2.85222 2.55832 2.84945 2.55444 2.8453C2.55186 2.84254 2.54798 2.83839 2.54539 2.83563C2.54152 2.83148 2.53764 2.82733 2.53247 2.82318C2.52988 2.82042 2.526 2.81627 2.52342 2.8135C2.51954 2.80936 2.51566 2.80521 2.51049 2.79968C2.5079 2.79553 2.50403 2.79276 2.50015 2.78862C2.49627 2.78309 2.4911 2.77894 2.48722 2.77341C2.48464 2.76926 2.48076 2.76511 2.47817 2.76235C2.47429 2.75682 2.46912 2.75129 2.46524 2.74576C2.46266 2.74161 2.45878 2.73746 2.4549 2.73331C2.45102 2.72778 2.44585 2.72225 2.44198 2.71672C2.4381 2.71257 2.43551 2.70843 2.43163 2.7029C2.42776 2.69736 2.42258 2.69183 2.41871 2.68492C2.41612 2.68077 2.41224 2.67524 2.40966 2.6711C2.40578 2.66557 2.40061 2.65865 2.39673 2.65174C2.39285 2.64759 2.39027 2.64206 2.38639 2.63791C2.38251 2.631 2.37734 2.62547 2.37346 2.61856C2.36958 2.61303 2.367 2.60888 2.36312 2.60335C2.35924 2.59643 2.35407 2.58952 2.35019 2.58399C2.34761 2.57846 2.34373 2.57293 2.34114 2.56878C2.33727 2.56187 2.33339 2.55496 2.32822 2.54804C2.32563 2.54251 2.32175 2.53698 2.31917 2.53145C2.31529 2.52454 2.31141 2.51763 2.30624 2.50933C2.30365 2.5038 2.29978 2.49827 2.29719 2.49274C2.29331 2.48583 2.28943 2.47753 2.28556 2.47062C2.28297 2.46509 2.27909 2.45956 2.27651 2.45264C2.27263 2.44435 2.26875 2.43744 2.26487 2.42914C2.26229 2.42361 2.2597 2.41808 2.25582 2.41117C2.25195 2.40287 2.24807 2.39596 2.24419 2.38766C2.2416 2.38213 2.23902 2.37522 2.23514 2.36969C2.23126 2.36139 2.22738 2.3531 2.22351 2.34618C2.22092 2.34065 2.21833 2.33374 2.21575 2.32683C2.21187 2.31853 2.20799 2.31024 2.20541 2.30194C2.20282 2.29503 2.20024 2.2895 2.19765 2.28258C2.19377 2.27429 2.19119 2.26599 2.18731 2.2577C2.18472 2.25078 2.18214 2.24525 2.17955 2.23834C2.17567 2.23004 2.17309 2.22175 2.16921 2.21207C2.16663 2.20516 2.16404 2.19963 2.16275 2.19271C2.16016 2.18442 2.15628 2.17474 2.1537 2.16644C2.15111 2.15953 2.14982 2.154 2.14723 2.14709C2.14465 2.13741 2.14077 2.12911 2.13819 2.11944C2.1356 2.11252 2.13431 2.10561 2.13172 2.10008C2.12914 2.0904 2.12655 2.08211 2.12397 2.07243C2.12267 2.06551 2.12009 2.0586 2.11879 2.05307C2.11621 2.04339 2.11362 2.0351 2.11104 2.02542C2.10975 2.01851 2.10845 2.01298 2.10587 2.00606C2.10328 1.99638 2.1007 1.98671 2.0994 1.97703C2.09811 1.97011 2.09682 1.96458 2.09553 1.95767C2.09294 1.94799 2.09165 1.93831 2.08906 1.92725C2.08906 1.92172 2.08648 1.91481 2.08518 1.90928C2.08389 1.8996 2.08131 1.88854 2.08001 1.87886C2.08001 1.87333 2.07872 1.8678 2.07743 1.86227C2.07613 1.85121 2.07355 1.84015 2.07226 1.83047C2.07226 1.82632 2.07226 1.82218 2.07096 1.81941C2.06967 1.80697 2.06709 1.79452 2.06579 1.78208C2.06191 1.7489 2.05933 1.7171 2.05804 1.68392C2.05674 1.64106 2.05804 1.60096 2.05804 1.55948C2.05804 1.55672 2.05804 1.55395 2.05804 1.5498C2.05804 1.53459 2.06062 1.52077 2.06191 1.50556C2.06191 1.49865 2.06191 1.49173 2.06321 1.4862C2.0645 1.47238 2.06709 1.45993 2.06838 1.44749C2.06838 1.43919 2.07096 1.4309 2.07226 1.42399C2.07484 1.41154 2.07743 1.40048 2.07872 1.38804C2.08001 1.37974 2.08131 1.37145 2.08389 1.36315C2.08648 1.35071 2.09035 1.33965 2.09294 1.3272C2.09553 1.31891 2.09682 1.31061 2.0994 1.30232C2.10328 1.29126 2.10587 1.2802 2.10975 1.26775C2.11233 1.25946 2.11492 1.25116 2.1175 1.24425C2.12138 1.23319 2.12526 1.22213 2.12914 1.21245C2.13172 1.20415 2.1356 1.19586 2.13819 1.18894C2.14206 1.17788 2.14723 1.1682 2.15241 1.15853C2.15628 1.15023 2.15887 1.14193 2.16275 1.13502C2.16792 1.12534 2.17309 1.11567 2.17826 1.10599C2.18214 1.09769 2.18602 1.0894 2.19119 1.0811C2.19636 1.07142 2.20282 1.06313 2.20799 1.05345C2.21316 1.04515 2.21704 1.03686 2.22221 1.02994C2.22868 1.02027 2.23385 1.01197 2.24031 1.00367C2.24548 0.995379 2.25065 0.988466 2.25582 0.98017C2.26229 0.971874 2.26875 0.963579 2.27521 0.953901C2.28168 0.946988 2.28685 0.938692 2.29331 0.931779C2.29978 0.923483 2.30753 0.915188 2.314 0.906892C2.32046 0.899979 2.32692 0.891683 2.33339 0.88477C2.34114 0.876475 2.3489 0.869562 2.35666 0.861266C2.36312 0.854353 2.37088 0.84744 2.37734 0.839144C2.3851 0.830849 2.39414 0.823936 2.4019 0.817023C2.40836 0.81011 2.41612 0.804579 2.42258 0.797666C2.44585 0.77831 2.45878 0.747892 2.45749 0.717475C2.45749 0.706414 2.4549 0.696736 2.45102 0.685675C2.44844 0.680145 2.44585 0.674614 2.44198 0.669084C2.44198 0.667701 2.43939 0.666319 2.4381 0.664936C2.43551 0.660788 2.43293 0.658023 2.43034 0.655258C2.42905 0.653875 2.42646 0.652493 2.42517 0.65111C2.42258 0.648345 2.42 0.646962 2.41612 0.644197C2.41354 0.644197 2.41224 0.641432 2.40966 0.640049C2.40707 0.638667 2.40319 0.637284 2.40061 0.635902C2.39802 0.635902 2.39673 0.634519 2.39414 0.633136C2.39027 0.633136 2.38768 0.631754 2.3838 0.630371C2.38122 0.630371 2.37992 0.630371 2.37734 0.630371C2.37346 0.630371 2.37088 0.630371 2.367 0.630371C2.36441 0.630371 2.36312 0.630371 2.36053 0.630371C2.35666 0.630371 2.35278 0.631754 2.3489 0.633136C2.34761 0.633136 2.34502 0.633136 2.34373 0.634519C2.33856 0.635902 2.33339 0.638667 2.32692 0.642815C2.32692 0.642815 2.32692 0.642815 2.32434 0.642815C2.32434 0.642815 2.32434 0.642815 2.32175 0.642815C2.32175 0.642815 2.31917 0.644197 2.31787 0.64558C2.31787 0.64558 2.31787 0.64558 2.31658 0.64558C2.28556 0.666319 2.19377 0.732684 2.07872 0.854353C2.04899 0.886153 2.02055 0.920718 1.9934 0.955283C1.95203 1.00367 1.91325 1.05345 1.87835 1.10184C1.63661 1.44887 1.38711 2.01298 1.38453 2.8619C1.27852 3.00292 0.862268 3.63892 1.29145 4.33713C1.29145 4.33713 1.31343 4.36479 1.25655 4.42286C1.18933 4.4906 0.563649 5.29528 0.571405 5.45566C0.572698 5.49161 0.585625 5.5165 0.603723 5.5317C0.651554 5.57456 0.736874 5.55244 0.762728 5.49576C0.798924 5.41971 1.20613 4.68417 1.62368 4.35649C1.62368 4.35649 1.62368 4.35649 1.62627 4.35511C1.68056 4.44083 1.72968 4.50996 1.75812 4.54867L1.71805 4.80445C1.71546 4.82243 1.71805 4.8404 1.72451 4.85699L1.84862 5.1584L1.85896 5.18329C1.85249 5.19158 1.84603 5.20264 1.83827 5.21371C1.83569 5.21647 1.8344 5.22062 1.83181 5.22338C1.82922 5.22753 1.82664 5.23168 1.82405 5.23583C1.82147 5.23997 1.81888 5.24274 1.81759 5.24689C1.81371 5.25242 1.81113 5.25795 1.80725 5.26348C1.80337 5.27039 1.7982 5.27731 1.79432 5.28422C1.79174 5.28837 1.78915 5.2939 1.78527 5.29804C1.78269 5.30219 1.7801 5.30772 1.77622 5.31325C1.77364 5.31878 1.76976 5.32293 1.76717 5.32846C1.76459 5.33399 1.76071 5.33952 1.75812 5.34367C1.75554 5.3492 1.75166 5.35473 1.74908 5.35888C1.74649 5.36441 1.74261 5.36994 1.74003 5.37547C1.73744 5.381 1.73356 5.38653 1.73098 5.39206C1.7271 5.39759 1.72451 5.4045 1.72064 5.41004C1.71805 5.41557 1.71417 5.42248 1.71029 5.42801C1.70642 5.43354 1.70383 5.44045 1.69995 5.44737C1.69607 5.45428 1.69349 5.45981 1.68961 5.46672C1.68573 5.47363 1.68315 5.48055 1.67927 5.48608C1.67539 5.49299 1.67281 5.4999 1.66893 5.50682C1.66505 5.51373 1.66246 5.52064 1.65859 5.52756C1.65471 5.53447 1.65212 5.54138 1.64824 5.5483C1.64437 5.55521 1.64178 5.56212 1.6379 5.57042C1.63402 5.57733 1.63144 5.58563 1.62756 5.59254C1.62368 5.59945 1.6211 5.60775 1.61722 5.61466C1.61334 5.62296 1.61075 5.63125 1.60688 5.63955C1.60429 5.64646 1.60041 5.65476 1.59783 5.66167C1.59395 5.66996 1.59007 5.67964 1.58619 5.68932C1.58361 5.69623 1.58102 5.70315 1.57844 5.71006C1.57327 5.7225 1.56809 5.73633 1.56292 5.75016C1.56292 5.75292 1.56034 5.75707 1.55905 5.75983C1.54483 5.75707 1.52673 5.75292 1.50863 5.75016C1.41685 5.73356 1.28628 5.71421 1.15572 5.71421C0.99154 5.71421 0.863561 5.74463 0.775655 5.80546C0.752386 5.82067 0.711019 5.8497 0.678701 5.88842C0.64509 5.92851 0.620529 5.97829 0.636041 6.03635C0.655432 6.10548 0.723946 6.14558 0.824779 6.14558C0.831243 6.14558 0.837706 6.14558 0.845462 6.14558C0.85839 6.14558 0.873902 6.14282 0.88683 6.13867C0.889415 6.13867 0.895879 6.13728 0.903635 6.13452C0.925611 6.13037 0.965686 6.12622 1.01481 6.12622C1.18674 6.12622 1.40909 6.18153 1.49441 6.44837C1.50087 6.46773 1.51509 6.51335 1.54612 6.54515C1.56422 6.56313 1.58878 6.57695 1.6198 6.57695C1.64954 6.57695 1.67798 6.56313 1.69866 6.53824C1.72968 6.50229 1.74261 6.44561 1.74132 6.40689C1.7439 6.3903 1.78269 6.12622 1.9572 6.06815C2.00374 6.24928 2.13043 6.69862 2.3489 7.11755C2.39414 7.20327 2.43551 7.28485 2.47429 7.36227C2.62942 7.67474 2.72508 7.92638 2.72508 8.17801C2.72508 8.2499 2.71733 8.32318 2.70052 8.39646C2.69535 8.41858 2.68759 8.45038 2.67596 8.48218C2.67467 8.48633 2.67208 8.49048 2.67079 8.49601C2.66562 8.50983 2.65915 8.52366 2.65269 8.53749C2.64493 8.55408 2.63588 8.5679 2.62554 8.57896C2.62037 8.58449 2.61391 8.59003 2.60874 8.59279C2.59969 8.59832 2.59064 8.60109 2.58159 8.60109C2.55703 8.60109 2.48464 8.58449 2.35407 8.4255C2.29719 8.35775 2.23643 8.26097 2.17826 8.15727C2.16921 8.14206 2.16145 8.12685 2.15241 8.11164C2.14336 8.09367 2.13431 8.07708 2.12397 8.05911C2.03865 7.89458 1.96755 7.72728 1.93911 7.6305C1.93135 7.60146 1.9223 7.57658 1.91196 7.55584C1.91196 7.55584 1.91196 7.55584 1.91196 7.55445C1.90808 7.54616 1.9042 7.53925 1.90032 7.53095C1.88998 7.51298 1.88093 7.49915 1.87059 7.48671C1.83827 7.44938 1.80337 7.43832 1.77622 7.43832C1.76071 7.43832 1.74649 7.44246 1.73227 7.44799C1.71546 7.45491 1.69995 7.46735 1.68703 7.48256C1.65083 7.5268 1.6379 7.60008 1.64954 7.6858C1.65212 7.70792 1.65471 7.72728 1.65729 7.74525C1.61722 7.72728 1.56939 7.70516 1.51768 7.67474C1.47243 7.64985 1.42589 7.61944 1.37806 7.58487C1.16089 7.42311 1.03032 7.22263 0.988955 6.98759C0.985076 6.96823 0.982491 6.94749 0.979906 6.92675C0.988955 6.92399 0.999296 6.9226 1.00964 6.91984C1.03291 6.91569 1.05876 6.91154 1.08332 6.91154C1.10013 6.91154 1.11435 6.91293 1.12857 6.91569C1.13633 6.91569 1.14279 6.91846 1.14925 6.91984C1.1583 6.9226 1.16735 6.92399 1.17511 6.92399C1.19191 6.92399 1.20872 6.91846 1.22164 6.90878C1.24491 6.89219 1.26043 6.86453 1.26043 6.83135C1.26043 6.80923 1.25267 6.78849 1.23974 6.7719C1.20484 6.71798 1.03161 6.48017 0.691628 6.45528C0.475744 6.43869 0.332251 6.39583 0.249517 6.34606C0.215906 6.3267 0.191345 6.30596 0.175832 6.28522C0.168076 6.27555 0.161612 6.26448 0.157734 6.25481C0.143514 6.21609 0.106025 6.19397 0.0672432 6.19812C0.0284615 6.20365 -0.00127111 6.23545 -0.00773473 6.27555C-0.0284183 6.42348 0.0129488 6.73595 0.324495 6.86039C0.523574 6.9392 0.676116 6.95717 0.771777 6.95855C0.749801 7.15212 0.726532 7.5268 0.842877 7.74111C0.75885 7.86969 0.641212 8.18631 0.985076 8.72137C0.964393 8.78636 0.932075 8.91079 0.924319 9.0532C0.910099 9.34078 1.00705 9.562 1.20484 9.69334C1.35221 9.79289 1.5138 9.84267 1.68573 9.84267C1.84603 9.84267 1.9753 9.79842 2.0464 9.76801C2.14206 9.85511 2.37992 10.0279 2.76645 10.0279C2.80264 10.0279 2.84013 10.0266 2.87762 10.0238C2.98233 10.1455 3.35722 10.5602 3.93507 10.9805C3.94929 10.9916 3.9661 10.9971 3.9829 10.9971C3.99324 10.9971 4.00358 10.9944 4.01393 10.9902L4.47414 10.798C4.49611 10.7884 4.51292 10.7718 4.52197 10.7483C4.53102 10.7248 4.53102 10.6999 4.52197 10.6778C4.52197 10.6778 4.52067 10.6722 4.51809 10.6625C4.51809 10.6598 4.51809 10.6584 4.5168 10.6556V10.6529C4.5168 10.6501 4.5168 10.6487 4.5168 10.646C4.5168 10.6446 4.5168 10.6418 4.5168 10.6404C4.5168 10.6377 4.5168 10.6363 4.5168 10.6335C4.5168 10.6308 4.5168 10.628 4.5168 10.6238C4.5168 10.6225 4.5168 10.6197 4.5168 10.6183C4.5168 10.6142 4.5168 10.6086 4.5168 10.6045C4.5168 10.6045 4.5168 10.6031 4.5168 10.6017C4.5155 10.5837 4.5155 10.5616 4.5155 10.5353C4.5155 10.5353 4.5155 10.534 4.5155 10.5326C4.5155 10.5257 4.5155 10.5174 4.5155 10.5091C4.5155 10.5077 4.5155 10.5063 4.5155 10.5036C4.5155 10.4966 4.5155 10.4883 4.5168 10.48C4.5168 10.4773 4.5168 10.4759 4.5168 10.4731C4.5168 10.4648 4.51809 10.4579 4.51938 10.4496C4.51938 10.4469 4.51938 10.4441 4.51938 10.4413C4.51938 10.433 4.52197 10.4247 4.52326 10.4164C4.52326 10.4137 4.52326 10.4109 4.52326 10.4082C4.52455 10.3999 4.52585 10.3902 4.52714 10.3805C4.52714 10.3777 4.52714 10.375 4.52843 10.3708C4.52972 10.3611 4.53231 10.3515 4.53489 10.3418C4.53489 10.339 4.53489 10.3363 4.53619 10.3335C4.53877 10.3224 4.54136 10.3114 4.54394 10.3003C4.54394 10.2975 4.54394 10.2948 4.54524 10.292C4.54782 10.2796 4.5517 10.2671 4.55558 10.2533C4.55558 10.2519 4.55558 10.2505 4.55558 10.2492C4.56721 10.2049 4.58272 10.1565 4.60212 10.1054C4.60212 10.1026 4.6047 10.0998 4.60599 10.0957C4.61116 10.0819 4.61634 10.068 4.6228 10.0528C4.62538 10.0473 4.62668 10.0418 4.62926 10.0376C4.63443 10.0252 4.6396 10.0127 4.64478 9.9989C4.64736 9.99199 4.64995 9.98646 4.65253 9.97954C4.6577 9.9671 4.66287 9.95466 4.66934 9.94221C4.67321 9.9353 4.6758 9.92839 4.67968 9.92009C4.68485 9.90765 4.69131 9.8952 4.69648 9.88276C4.70036 9.87447 4.70424 9.86755 4.70812 9.85926C4.71458 9.84681 4.71975 9.83437 4.72622 9.82193C4.7301 9.81363 4.73527 9.80534 4.73914 9.79566C4.74561 9.78321 4.75207 9.77077 4.75983 9.75833C4.765 9.75003 4.76888 9.74035 4.77405 9.73206C4.7818 9.71961 4.78827 9.70579 4.79602 9.69196C4.80119 9.68228 4.80637 9.67399 4.81154 9.66431C4.81929 9.65048 4.82834 9.63666 4.8361 9.62283C4.84127 9.61315 4.84644 9.60486 4.8529 9.59518C4.86195 9.57997 4.87229 9.56476 4.88134 9.54817C4.88651 9.53988 4.89169 9.53158 4.89686 9.52328C4.91108 9.50116 4.9253 9.47904 4.94081 9.45554C4.9421 9.45415 4.94339 9.45139 4.94469 9.45C5.52641 8.57067 5.72291 8.27479 5.71774 7.79088C5.71774 7.74249 5.68283 7.70378 5.63759 7.69963L5.64922 7.70792ZM1.00835 8.07708C0.987662 8.05772 0.9631 8.02316 0.964393 7.95679C0.994126 7.92223 1.0342 7.89872 1.08591 7.88766C1.2475 7.8531 1.47243 7.94573 1.61075 8.05357C1.64954 8.08399 1.67927 8.11303 1.69995 8.1393C1.42072 8.1863 1.11823 8.18492 1.00835 8.07708ZM1.98435 8.97162C1.96108 9.02555 1.89257 9.14445 1.71547 9.16934C1.69607 9.1721 1.67539 9.17348 1.656 9.17348C1.6198 9.17348 1.5849 9.16795 1.55 9.15966C1.36902 9.11541 1.22164 8.96471 1.18416 8.77529C1.19838 8.75317 1.21389 8.73382 1.23199 8.71861C1.29404 8.66469 1.37419 8.65224 1.44011 8.65224C1.52285 8.65224 1.60946 8.67298 1.68832 8.70755C1.70642 8.71584 1.72322 8.72414 1.74003 8.73382C1.84991 8.79327 1.94169 8.87761 1.98435 8.97162Z" fill="#262E61"/>
<path d="M5.48256 4.72001C5.46575 4.73246 5.45024 4.74628 5.43602 4.76011C5.41404 4.77947 5.39465 4.79882 5.37526 4.82094C5.29123 4.91358 5.23048 5.02004 5.20591 5.12926C5.1736 5.26614 5.20204 5.39611 5.28348 5.49704C5.30028 5.51778 5.32484 5.52884 5.34811 5.52884C5.3688 5.52884 5.38819 5.52192 5.40499 5.50672C5.40758 5.50395 5.41016 5.50119 5.41275 5.49842C5.42568 5.48321 5.43343 5.46386 5.43473 5.44312C5.43473 5.42929 5.43343 5.41546 5.42826 5.40302C5.42438 5.39334 5.42051 5.38366 5.41275 5.37675C5.37914 5.33527 5.36233 5.28688 5.36492 5.23158C5.36492 5.2136 5.3675 5.19425 5.37268 5.17489C5.37785 5.15415 5.38431 5.13341 5.39336 5.11267C5.4037 5.08779 5.41663 5.06428 5.43085 5.04078C5.43085 5.04078 5.43343 5.03801 5.43473 5.03663C5.49678 4.9592 5.59115 4.92326 5.69327 4.9357C5.723 4.93985 5.75144 4.94814 5.77859 4.9592C5.84064 4.98547 5.89493 5.02972 5.93242 5.08917C5.94018 5.10161 5.94664 5.11406 5.95311 5.1265C5.96733 5.15553 5.98155 5.18319 5.99577 5.20669C6.19355 5.54266 6.43012 5.45141 6.44176 5.44726C6.44822 5.4445 6.45598 5.44035 6.46115 5.4362C6.47537 5.42514 6.48571 5.40993 6.49217 5.39196C6.49347 5.38643 6.49605 5.37952 6.49734 5.37399C6.50381 5.32006 6.50639 5.26753 6.50639 5.21637C6.50122 4.99792 6.42366 4.81541 6.28146 4.69513C6.24656 4.66609 6.20907 4.64121 6.17028 4.62185C6.02291 4.54719 5.84581 4.54028 5.68422 4.60664C5.61312 4.63568 5.5459 4.67577 5.48514 4.72278L5.48256 4.72001Z" fill="#262E61"/>
<path d="M4.89027 4.81558C4.90449 4.82526 4.92 4.82941 4.93552 4.82941C4.96137 4.82941 4.98723 4.81696 5.00403 4.79346C5.00403 4.79346 5.02859 4.76028 5.07125 4.71327C5.08547 4.69806 5.10228 4.68008 5.12038 4.66211C5.12038 4.66211 5.12296 4.65934 5.12426 4.65796C5.17338 4.60957 5.23672 4.55427 5.31041 4.50449C5.3117 4.50449 5.31299 4.50311 5.31429 4.50173C5.42805 4.42707 5.56637 4.36347 5.72408 4.35379C5.76545 4.35102 5.79906 4.31646 5.80423 4.27222C5.80552 4.25562 5.80423 4.23903 5.79776 4.22521C5.79518 4.22106 5.79389 4.21553 5.7913 4.21138C5.78096 4.19341 5.76415 4.17958 5.74476 4.17405C5.74476 4.17405 5.74088 4.17405 5.7383 4.17267C5.72666 4.1699 5.7021 4.16299 5.66203 4.15884C5.63488 4.15608 5.60256 4.15331 5.56249 4.15331C5.55473 4.15331 5.54568 4.15331 5.53663 4.15331C5.49527 4.15331 5.45261 4.15608 5.40736 4.16161C5.37246 4.16576 5.34014 4.16714 5.30653 4.16714C5.30524 4.16714 5.30394 4.16714 5.30265 4.16714C4.87993 4.16714 4.6718 3.87126 4.56968 3.59059C4.55933 3.56294 4.55029 3.53529 4.54253 3.50902C4.53994 3.50072 4.53607 3.49381 4.53219 3.4869C4.51538 3.45924 4.48436 3.44127 4.45204 3.44542C4.44687 3.44542 4.4417 3.4468 4.43782 3.44818C4.40421 3.45786 4.37965 3.48828 4.37448 3.52561C4.3706 3.56156 4.27364 4.40495 4.88898 4.81558H4.89027Z" fill="#262E61"/>
<path d="M9.85197 2.87168C9.82224 2.80393 9.74726 2.77628 9.68392 2.80808C9.62058 2.83988 9.59472 2.92145 9.62445 2.98781C9.63092 3.00302 9.70331 3.17308 9.73304 3.43716C9.73304 3.43716 9.73304 3.43854 9.73304 3.43993C9.73563 3.45928 9.73692 3.48002 9.73821 3.50076C9.73821 3.50353 9.73821 3.50491 9.73821 3.50767C9.73951 3.52703 9.7408 3.54777 9.74209 3.56851C9.74209 3.57127 9.74209 3.57542 9.74209 3.57819C9.74209 3.59893 9.74339 3.61966 9.74339 3.64179C9.74339 3.64455 9.74339 3.6487 9.74339 3.65146C9.74339 3.67359 9.74339 3.69571 9.74339 3.71783C9.74339 3.72059 9.74339 3.72336 9.74339 3.72612C9.74339 3.74963 9.74209 3.77452 9.73951 3.79802C9.73951 3.80217 9.73821 3.80632 9.73692 3.81046C9.72529 3.94872 9.67099 4.03859 9.6167 4.07869C9.59214 4.09666 9.56628 4.10496 9.54431 4.10219C9.50165 4.09805 9.46157 4.05104 9.46804 3.97223C9.48096 3.83397 9.47838 3.69432 9.4564 3.55606C9.45382 3.53947 9.45123 3.52288 9.44735 3.50629C9.43701 3.45099 9.39694 3.41227 9.3491 3.40121C9.32842 3.39707 9.30645 3.39707 9.28447 3.40398C9.26896 3.40951 9.25474 3.4178 9.2431 3.42886C9.2082 3.46066 9.1901 3.5132 9.20044 3.56436C9.21725 3.65423 9.22371 3.7441 9.22242 3.83535C9.22242 3.85609 9.22242 3.87821 9.21983 3.89895C9.21983 3.91001 9.21725 3.91969 9.21595 3.92937C9.17847 4.19345 9.08539 4.25428 9.05695 4.26672C9.01687 4.28331 8.98068 4.27778 8.9587 4.26119C8.93285 4.24184 8.92509 4.19898 8.93026 4.15888C8.93414 4.1257 8.93673 4.09113 8.93931 4.05657C8.93931 4.05657 8.93931 4.0538 8.93931 4.05242C8.9419 4.01924 8.9419 3.98467 8.94319 3.94872C8.94319 3.94596 8.94319 3.94458 8.94319 3.94319C8.94319 3.89065 8.91604 3.84088 8.87468 3.81738C8.87468 3.81738 8.87209 3.81738 8.87209 3.81599C8.86692 3.81323 8.86046 3.81046 8.85399 3.8077C8.84882 3.80632 8.84494 3.80493 8.83977 3.80493C8.83589 3.80493 8.83331 3.80355 8.82943 3.80217C8.82426 3.80217 8.82038 3.80217 8.81521 3.80217C8.81004 3.80217 8.80616 3.80217 8.80099 3.80217C8.7984 3.80217 8.79582 3.80217 8.79194 3.80355C8.78677 3.80355 8.7816 3.80632 8.77643 3.8077C8.77126 3.80908 8.76609 3.81185 8.76221 3.81461C8.75962 3.81461 8.75833 3.81599 8.75575 3.81738C8.71567 3.84088 8.68852 3.88927 8.68852 3.94043C8.68852 3.95702 8.68852 3.97361 8.68852 3.98882C8.68852 3.99573 8.68852 4.00265 8.68852 4.00956C8.68852 4.03306 8.68594 4.05657 8.68465 4.08007C8.66913 4.18653 8.64328 4.27364 8.60967 4.33724C8.60967 4.33862 8.60708 4.34138 8.60708 4.34277C8.58123 4.39116 8.5502 4.42434 8.5153 4.44093C8.4804 4.45614 8.4442 4.45199 8.41705 4.42987C8.41705 4.42987 8.41576 4.42849 8.41447 4.42711C8.41188 4.42434 8.4093 4.42157 8.40671 4.41881C8.39766 4.40637 8.39378 4.38977 8.39637 4.37318C8.39637 4.3718 8.39637 4.37042 8.39637 4.36904C8.39637 4.36074 8.39637 4.35244 8.39637 4.34415C8.39637 4.34415 8.39637 4.34415 8.39637 4.34277C8.39378 4.29299 8.36534 4.24737 8.32398 4.22524C8.32398 4.22524 8.32268 4.22524 8.32139 4.22524C8.3201 4.22524 8.31751 4.22525 8.31493 4.22248C8.30846 4.21971 8.302 4.21695 8.29554 4.21557C8.29554 4.21557 8.29424 4.21557 8.29295 4.21557C8.28519 4.21418 8.27614 4.2128 8.26839 4.2128C8.26839 4.2128 8.2671 4.2128 8.2658 4.2128C8.20246 4.21557 8.15075 4.26949 8.14429 4.33724C8.14429 4.34553 8.1417 4.35244 8.1417 4.35936C8.1417 4.36627 8.14041 4.37457 8.13912 4.38148C8.13782 4.38839 8.13653 4.39669 8.13394 4.4036C8.13265 4.41051 8.13136 4.41743 8.12877 4.42434C8.12748 4.43125 8.1249 4.43817 8.12231 4.44508C8.11973 4.45199 8.11843 4.45752 8.11585 4.46444C8.11326 4.47135 8.11068 4.47688 8.10809 4.48379C8.10551 4.48932 8.10292 4.49624 8.10033 4.50177C8.09775 4.50868 8.09387 4.51421 8.09129 4.51974C8.0887 4.52527 8.08611 4.5308 8.08353 4.53633C8.07965 4.54186 8.07707 4.54739 8.07319 4.55292C8.0706 4.55845 8.06672 4.5626 8.06414 4.56813C8.06026 4.57366 8.05638 4.57919 8.0525 4.58472C8.04992 4.58887 8.04604 4.5944 8.04345 4.59855C8.03958 4.60408 8.03441 4.60961 8.03053 4.61514C8.02794 4.61929 8.02406 4.62343 8.02148 4.6262C8.01631 4.63173 8.01114 4.63726 8.00597 4.64141C8.00338 4.64417 8.00079 4.64832 7.99692 4.65109C7.99175 4.65662 7.98658 4.66077 7.9814 4.6663C7.97882 4.66906 7.97623 4.67183 7.97235 4.67459C7.96718 4.67874 7.96201 4.68289 7.95684 4.68704C7.95426 4.6898 7.95038 4.69257 7.94779 4.69533C7.94262 4.69948 7.93745 4.70363 7.93228 4.70777C7.9297 4.71054 7.92582 4.71192 7.92323 4.71469C7.91677 4.71883 7.9116 4.72298 7.90513 4.72713C7.90255 4.72851 7.90125 4.7299 7.89867 4.73128C7.8935 4.73404 7.88962 4.73681 7.88445 4.73957C7.88186 4.74096 7.87799 4.74372 7.8754 4.7451C7.87281 4.7451 7.87152 4.74787 7.87023 4.74787C7.8573 4.75617 7.84438 4.76308 7.83274 4.76861C7.63883 4.86677 7.40873 4.8723 7.2536 4.78658C7.22258 4.76723 7.19414 4.74649 7.16182 4.7216C7.05969 4.64279 6.9343 4.54463 6.62146 4.46444C6.60336 4.46029 6.58526 4.46167 6.56846 4.46858C6.55165 4.4755 6.53743 4.48794 6.52838 4.50453C6.50899 4.53771 6.51158 4.58196 6.53485 4.61237C6.53485 4.61237 6.53873 4.6179 6.54519 4.6262C6.54519 4.62758 6.54777 4.63035 6.54907 4.63173C6.55424 4.64003 6.5607 4.6497 6.56717 4.66077C6.58656 4.69395 6.61112 4.74096 6.63697 4.80456C6.64085 4.81423 6.64473 4.8253 6.64861 4.83497C6.66024 4.86677 6.67188 4.89996 6.68351 4.93729C6.68997 4.95941 6.69644 4.98153 6.70161 5.00642C6.71066 5.04651 6.71971 5.08799 6.72617 5.13362C6.74168 5.23869 6.74815 5.35622 6.73651 5.48895C6.73393 5.5166 6.73134 5.54425 6.72746 5.57052C6.72229 5.60785 6.71712 5.6438 6.70937 5.67836V5.67421H6.70807C6.65895 5.88437 6.56329 6.0406 6.45599 6.1678C6.45599 6.1678 6.45599 6.1678 6.4547 6.16919C6.44694 6.17886 6.43919 6.18716 6.43143 6.19684C6.42755 6.20099 6.42497 6.20375 6.42109 6.2079C6.41462 6.21481 6.40687 6.22311 6.4004 6.23002C6.39523 6.23555 6.39136 6.2397 6.38618 6.24523C6.37972 6.25214 6.37455 6.25767 6.36809 6.26459C6.36162 6.27012 6.35645 6.27703 6.34999 6.28256C6.34482 6.28671 6.34094 6.29224 6.33577 6.29639C6.32543 6.30606 6.31508 6.31574 6.30604 6.3268C6.30604 6.3268 6.30604 6.3268 6.30474 6.32819C6.29957 6.33372 6.2944 6.33925 6.28794 6.34339C6.27372 6.35722 6.2595 6.36966 6.24528 6.38349C6.24528 6.38349 6.24269 6.38626 6.2414 6.38626C6.23106 6.39593 6.22072 6.40561 6.21037 6.41529C6.21037 6.41529 6.21037 6.41667 6.21037 6.41806C6.12376 6.51069 6.05008 6.61024 5.99449 6.70978C5.9208 6.8439 5.82385 6.94621 5.71785 7.00704C5.70363 7.01534 5.68811 7.02225 5.67389 7.02917C5.6558 7.03746 5.6377 7.04437 5.6196 7.05129C5.60409 7.05682 5.58857 7.05958 5.57306 7.06373C5.55496 7.06788 5.53557 7.07064 5.51747 7.07203C5.38432 7.08309 5.26281 7.03193 5.17749 6.93377C5.17232 6.92824 5.16715 6.92271 5.16327 6.91718C5.14258 6.89091 5.11285 6.8757 5.08312 6.87293C5.07148 6.87293 5.05985 6.87293 5.04822 6.87708C5.04304 6.87708 5.03917 6.87985 5.034 6.88123C5.02107 6.88676 5.00814 6.89367 4.99651 6.90473C4.94997 6.95036 4.95126 7.03193 4.99134 7.08309C4.99263 7.08447 4.99392 7.08585 4.99521 7.08862C5.00297 7.09691 5.00943 7.10659 5.01719 7.11489C5.01978 7.11765 5.02236 7.12042 5.02495 7.12318C5.03141 7.1301 5.03787 7.13701 5.04563 7.14392C5.04822 7.14669 5.04951 7.14807 5.05209 7.15084C5.05985 7.15775 5.06761 7.16466 5.07536 7.17157C5.07666 7.17296 5.07924 7.17434 5.08053 7.17572C5.08958 7.18264 5.09734 7.18955 5.10639 7.19646C5.10639 7.19646 5.10897 7.19784 5.11027 7.19923C5.11932 7.20614 5.12966 7.21305 5.14 7.21997C5.14 7.21997 5.14 7.21997 5.14129 7.21997C5.15163 7.22688 5.16327 7.23379 5.17361 7.23932C5.18524 7.24624 5.19688 7.25177 5.20851 7.2573C5.22015 7.26283 5.23178 7.26836 5.24471 7.27389C5.24471 7.27389 5.246 7.27389 5.2473 7.27389C5.26022 7.2808 5.27444 7.28771 5.28866 7.29324C5.29254 7.29463 5.29642 7.29601 5.3003 7.29739C5.31193 7.30154 5.32357 7.30569 5.3352 7.30983C5.34037 7.31122 5.34554 7.3126 5.35071 7.31537C5.36105 7.31813 5.37269 7.32228 5.38432 7.32504C5.39079 7.32643 5.39725 7.32781 5.40242 7.32919C5.41406 7.33196 5.4244 7.33472 5.43603 7.3361C5.4425 7.3361 5.45025 7.33887 5.45672 7.34025C5.46835 7.34163 5.47999 7.3444 5.49291 7.34578C5.50067 7.34578 5.50713 7.34717 5.51489 7.34855C5.52782 7.34855 5.54074 7.35131 5.55367 7.3527C5.56143 7.3527 5.56789 7.3527 5.57565 7.35408C5.58987 7.35408 5.60538 7.35546 5.6196 7.35684C5.62606 7.35684 5.63253 7.35684 5.64028 7.35684C5.66226 7.35684 5.68553 7.35684 5.7088 7.35684C5.72302 7.35684 5.73853 7.35684 5.75404 7.35684C5.76956 7.35684 5.78507 7.35684 5.80187 7.35546C5.88332 7.35131 5.97381 7.34302 6.07852 7.32919C6.0992 7.32643 6.12118 7.32366 6.14315 7.31951C6.22589 7.30707 6.30216 7.30154 6.37326 7.30154C6.49219 7.30154 6.57621 7.31951 6.63309 7.33887C6.64473 7.34302 6.65507 7.34717 6.66412 7.35131C6.68222 7.35961 6.69773 7.3679 6.70807 7.37482C6.56975 8.23341 6.59043 9.08925 6.59173 9.09754C6.59173 9.13349 6.61241 9.16529 6.64344 9.17912C6.65378 9.18465 6.66541 9.18603 6.67705 9.18603C6.68093 9.18603 6.6848 9.18603 6.68868 9.18603C6.69256 9.18603 6.69514 9.18603 6.69902 9.18326C6.71195 9.17912 6.72358 9.17359 6.73393 9.16391C7.08684 8.82793 7.39451 8.40762 7.63108 8.03847C7.75001 7.85182 7.85213 7.67899 7.93099 7.53658C7.93228 7.53382 7.93357 7.53105 7.93616 7.52829C7.9465 7.51031 7.95684 7.49234 7.96589 7.47437C7.96718 7.4716 7.96977 7.46745 7.97106 7.46469C7.97753 7.45363 7.9827 7.44256 7.98916 7.4315C7.99045 7.42874 7.99304 7.42459 7.99433 7.42183C8.00597 7.3997 8.0176 7.37758 8.02923 7.35684C8.03441 7.34717 8.03958 7.33749 8.04345 7.32919C8.04345 7.32643 8.04604 7.32366 8.04733 7.32228C8.0525 7.3126 8.05638 7.3043 8.06155 7.29601C8.07189 7.27527 8.07965 7.25591 8.08611 7.23656V7.23379C8.09129 7.21582 8.09516 7.19784 8.09646 7.17987C8.09646 7.17987 8.09646 7.17711 8.09646 7.17572C8.09646 7.16743 8.09646 7.15775 8.09646 7.14807C8.09646 7.14807 8.09646 7.1453 8.09646 7.14392C8.09646 7.13563 8.09387 7.12595 8.09129 7.11627V7.11351C8.0887 7.10383 8.08482 7.09277 8.08094 7.08171C8.08094 7.07894 8.07965 7.07756 8.07836 7.07479C8.07319 7.06373 8.06802 7.05267 8.06285 7.04023C8.03699 6.99875 8.01243 6.95727 7.98916 6.91441C7.98916 6.91441 7.98916 6.91303 7.98787 6.91165C7.97623 6.89229 7.96589 6.87155 7.95426 6.85081C7.95038 6.8439 7.9465 6.83837 7.94392 6.83145C7.94004 6.82316 7.93487 6.81625 7.93099 6.80795C7.92582 6.79827 7.92065 6.78859 7.91677 6.77891C7.81981 6.58259 7.79137 6.38072 7.80301 6.23693C7.81076 6.15121 7.83016 6.07932 7.86247 6.02678C7.93874 5.97286 8.06155 5.94244 8.20892 5.90511C8.6032 5.80833 9.14227 5.6756 9.61411 4.93867C10.2954 3.87959 9.87266 2.90624 9.85456 2.86614L9.85197 2.87168Z" fill="#262E61"/>
<path d="M6.44309 0.185067C6.95113 0.237606 7.38807 0.461588 7.7022 0.69663C8.32012 1.15704 8.31366 1.96724 8.31366 1.97692C8.31366 2.03361 8.36666 2.07232 8.41578 2.05297C8.48042 2.0267 8.54505 2.0101 8.60193 1.99904C8.67174 1.9866 8.7325 1.98245 8.77257 1.98245C8.8036 1.98245 8.82816 1.9548 8.82945 1.923C8.82945 1.90088 8.82945 1.87876 8.82687 1.86217C8.72862 1.07823 8.33175 0.674509 7.57163 0.312266C7.35963 0.211336 7.15279 0.142206 6.97569 0.09658C6.67965 0.016389 6.46635 -0.00020228 6.45213 -0.00020228C6.40301 -0.00435009 6.36164 0.037128 6.36035 0.0910496C6.36035 0.140823 6.39784 0.179536 6.44438 0.185067H6.44309Z" fill="#262E61"/>
</g>
<defs>
<clipPath id="clip0_41_7242">
<rect width="41" height="11" fill="white"/>
</clipPath>
</defs>
</svg>
